<ttFont>
          <CharString index="0">
            4 -3 -49 callgsubr
            hhcurveto
            -6 -5 -3 -4 -3 hvcurveto
            -54 -74 rlineto
            -3 -83 callsubr
            8 -8 9 5 5 3 4 3 vhcurveto
            41 56 40 -56 rlineto
            -5 3 -70 callsubr
            7 8 8 3 -1 4 -2 -15 callsubr
          </CharString>
          <CharString index="1">
            43 244 54 rmoveto
            61 -1 37 34 22 39 rrcurveto
            2 5 12 callgsubr
            vvcurveto
            10 -61 callsubr
            -6 -8 -4 -4 -2 vhcurveto
            -44 -21 -24 -20 -44 -5 -4 0 -4 hhcurveto
            3 8 callgsubr
            11 vvcurveto
            80 -30 33 -35 -29 -20 -27 -36 -46 28 -40 38 -20 vhcurveto
            -26 -13 -24 -20 -37 hhcurveto
            -42 -28 32 44 49 30 28 21 10 hvcurveto
            10 12 callgsubr
            11 vvcurveto
            10 -6 6 -11 -19 -69 -40 -83 -65 44 -45 61 52 36 30 39 19 vhcurveto
            -2 7 7 0 8 hhcurveto
            -84 123 rmoveto
            19 30 callsubr
            19 10 -42 -35 -7 0 -7 -1 -6 vhcurveto
            -28 17 -13 32 25 vvcurveto
            return
          </CharString>
          <CharString index="2">
            71 396 -15 callgsubr
            1 3 0 2 2 vvcurveto
            9 -7 10 -11 -81 callsubr
            -38 -17 -47 -85 -47 hhcurveto
            -47 -3 76 25 -2 hvcurveto
            17 callsubr
            -9 -10 -70 callgsubr
            -67 -9 -41 -31 -24 hhcurveto
            -32 -10 29 24 80 56 36 41 27 16 -14 -2 2 hvcurveto
            -4 4 -70 callsubr
            9 9 10 5 -2 4 -4 4 -22 callgsubr
            -27 26 -41 33 callgsubr
            30 33 23 37 22 hvcurveto
            -36 12 26 -27 38 hhcurveto
            80 58 128 16 8 hvcurveto
            return
          </CharString>
          <CharString index="3">
            rmoveto
            30 -15 15 -12 -10 -8 -8 -8 9 callsubr
            2 -4 vhcurveto
            2 -5 3 11 callgsubr
            -3 -1 -8 -10 -8 -5 8 9 -6 vhcurveto
            14 -10 -12 18 -27 hhcurveto
            -30 -17 -22 -22 -32 13 -43 callgsubr
            7 9 -9 callgsubr
            -1 2 hvcurveto
            -3 -74 callsubr
            6 vvcurveto
            2 0 10 12 8 5 -7 -9 6 vhcurveto
            -14 9 11 -18 27 hhcurveto
            29 20 20 23 hvcurveto
            endchar
          </CharString>
          <CharString index="4">
            855 1299 734 rmoveto
            1 27 callsubr
            14 -9 5 -23 -120 -78 -90 -115 -29 vhcurveto
            -19 -72 -38 -227 -20 -156 -64 193 -142 382 -7 18 rrcurveto
            8 -3 -6 5 -8 -14 callsubr
            -10 hvcurveto
            -1 0 -3 -6 vvcurveto
            -39 -4 -152 -70 -179 vhcurveto
            -262 -101 -213 -15 -66 hhcurveto
            -114 -95 64 96 87 90 66 92 113 44 -76 -4 2 hvcurveto
            -6 3 6 -3 7 31 callgsubr
            9 9 -33 callgsubr
            -2 3 hvcurveto
            6 -3 -52 92 -139 hhcurveto
            -112 -103 -83 -105 -118 103 -80 143 63 241 18 282 109 hvcurveto
            48 122 18 108 7 72 59 -159 122 -334 25 -94 rrcurveto
            -9 3 7 -5 9 hhcurveto
            9 7 9 8 1 hvcurveto
            15 136 48 315 24 83 rrcurveto
            163 46 107 15 37 11 2 -25 callgsubr
            9 31 callsubr
            2 hvcurveto
            return
          </CharString>
          <CharString index="5">
            1119 872 557 rmoveto
            -9 -64 -13 -98 -85 vvcurveto
            -205 45 -125 133 214 126 358 215 93 -21 84 -50 53 vhcurveto
            -6 callsubr
            -51 callsubr
            -4 2 -5 3 -3 hvcurveto
            42 -45 19 -75 -84 vvcurveto
            -188 -111 -350 -192 -106 -35 104 186 vhcurveto
            166 38 177 10 vvcurveto
            9 -8 9 -11 -7 -5 -47 callsubr
            -328 -606 rlineto
            1 18 0 38 26 vvcurveto
            208 1 -3 319 -275 hhcurveto
            -142 -106 -107 -131 -115 87 -86 108 78 53 51 3 3 hvcurveto
            3 3 2 4 5 -76 callgsubr
            -5 -5 -2 -3 -36 callgsubr
            -43 -41 -65 hhcurveto
            -85 -72 69 95 109 86 94 127 256 -19 -355 -222 hvcurveto
            -43 -1 -28 -1 -38 callsubr
            3 7 4 vhcurveto
            return
          </CharString>
          <CharString index="6">
            31 195 -48 rmoveto
            2 93 2 81 1 -37 callsubr
            -10 -10 -70 callgsubr
            -67 -9 -39 -31 -27 hhcurveto
            -28 -14 21 31 83 62 34 39 26 12 -13 -3 4 hvcurveto
            -4 4 -70 callsubr
            9 9 10 5 -2 4 -4 4 -22 callgsubr
            -27 26 -41 hhcurveto
            -60 -76 -53 -102 -51 29 -37 46 26 30 15 25 19 hvcurveto
            -1 -38 0 -47 -1 -45 rrcurveto
            -79 -88 -58 -152 -99 vvcurveto
            -61 24 -34 43 92 16 145 147 vhcurveto
            48 -1 40 41 vvcurveto
            81 101 52 78 28 65 rrcurveto
            1 3 1 2 2 vvcurveto
            10 -8 9 -11 -7 -6 -84 callsubr
            -24 -53 -42 -66 -62 -80 rrcurveto
            -37 -107 rmoveto
            1 -29 0 -28 -28 vvcurveto
            -93 -8 -160 -62 -12 -19 8 47 76 39 123 61 84 vhcurveto
            return
          </CharString>
          <CharString index="7">
            628 879 80 13 callsubr
            3 vvcurveto
            10 -8 9 -11 18 callsubr
            -16 callgsubr
            -48 -76 -104 hhcurveto
            -118 -90 72 52 -100 hvcurveto
            11 27 5 39 27 47 -4 39 80 vvcurveto
            168 56 111 122 65 58 -42 -65 -33 -14 -25 -19 -17 vhcurveto
            -4 -4 -5 -5 -8 vvcurveto
            -11 9 -5 9 32 29 61 47 86 -75 57 -86 -141 -73 -126 -186 vhcurveto
            -80 4 -31 -43 vvcurveto
            -46 -4 -20 -8 -24 vhcurveto
            29 -59 -75 29 -74 hhcurveto
            -99 -76 -49 -79 -83 83 -27 71 75 108 22 107 64 hvcurveto
            -57 105 91 -71 128 hhcurveto
            123 57 91 4 3 hvcurveto
            -539 51 rmoveto
            -90 -49 -89 -21 -76 hhcurveto
            -63 -56 24 52 56 63 34 77 68 69 -27 -28 56 hvcurveto
            return
          </CharString>
          <CharString index="8">
            -34 callgsubr
            4 -45 callsubr
            -31 callsubr
            -90 -56 -140 -96 -156 hhcurveto
            -176 -192 90 212 235 237 121 167 148 122 -68 -102 -92 -97 -84 -122 -64 -74 26 74 48 36 -44 callsubr
            4 4 2 5 5 vvcurveto
            11 -8 7 -10 -4 -5 -1 -3 9 callgsubr
            -2 -48 -42 -65 vvcurveto
            -76 60 -60 114 141 115 98 115 123 -138 83 -167 -228 -215 -165 -228 return
          </CharString>
          <CharString index="9">
            rmoveto
            14 -11 11 -15 -14 -11 -11 -14 -14 11 -11 14 15 11 11 14 vhcurveto
            -91 hmoveto
            14 -11 11 -14 -14 -11 -11 -14 -14 11 -11 14 14 11 11 14 vhcurveto
            endchar
          </CharString>
          <CharString index="10">
            rmoveto
            -64 31 -53 58 69 62 109 46 23 vhcurveto
            1 3 -88 callsubr
            -6 -3 vhcurveto
            -81 -40 -44 -53 -36 hhcurveto
            -22 -31 12 69 hvcurveto
            50 8 80 7 -65 callgsubr
            -10 -11 -7 -46 callgsubr
            -6 -46 -3 -47 -47 vvcurveto
            return
          </CharString>
          <CharString index="11">
            604 854 680 rmoveto
            -3 -3 28 callgsubr
            -2 -1 -34 -20 -33 -41 rrcurveto
            31 -185 -165 92 -155 hhcurveto
            -143 -108 -87 -132 -100 76 -73 99 154 51 149 4 14 callsubr
            1 2 vvcurveto
            10 -7 9 -25 callsubr
            vhcurveto
            -1 -45 -128 -127 -80 -59 58 79 109 90 74 124 136 173 -84 -35 175 vhcurveto
            -13 -22 -12 -26 -8 -31 -29 -115 25 -155 -32 -91 rrcurveto
            -83 -29 -56 -49 -96 hhcurveto
            -91 -61 34 73 -48 hvcurveto
            5 -3 -7 4 -6 hhcurveto
            -12 -7 -11 -9 -5 4 -7 7 callsubr
            -81 57 78 -37 94 hhcurveto
            116 71 68 87 30 hvcurveto
            39 117 -30 140 27 110 8 31 13 27 15 22 rrcurveto
            -6 34 34 -3 34 hhcurveto
            118 74 41 42 31 hvcurveto
            -4 callsubr
            9 -8 10 -10 18 callsubr
            -4 4 callgsubr
            -31 -63 -29 -99 hhcurveto
            -26 -25 2 3 -24 hvcurveto
            23 24 20 12 1 1 rrcurveto
            6 3 3 6 6 -35 callsubr
            8 -9 vhcurveto
            return
          </CharString>
          <CharString index="12">
            rmoveto
            27 callgsubr
            -58 callsubr
            -32 -10 -22 -25 -19 vhcurveto
            -6 1 callgsubr
            -6 callgsubr
            6 -7 -43 callsubr
            2 4 vhcurveto
            37 27 10 37 36 vvcurveto
            endchar
          </CharString>
          <CharString index="13">
            30 70 201 rmoveto
            12 11 0 9 hhcurveto
            19 4 -6 -12 hvcurveto
            -29 -10 -34 -32 vvcurveto
            -62 38 -36 47 76 50 91 54 29 -32 callsubr
            -7 10 -12 -6 -59 callsubr
            -42 -22 -44 -83 -56 hhcurveto
            -19 -29 13 47 hvcurveto
            32 10 38 29 vvcurveto
            37 -20 15 -38 vhcurveto
            -9 -11 0 -11 hhcurveto
            26 -1 -6 50 -30 hhcurveto
            -26 -28 -62 -22 -30 29 0 22 hvcurveto
            -12 -57 -4 8 -8 vvcurveto
            -10 9 -8 9 -37 callgsubr
            1 2 11 28 6 35 rrcurveto
            -33 36 rmoveto
            -5 -11 0 -5 hhcurveto
            11 2 9 22 4 hhcurveto
            5 1 -24 -9 hvcurveto
            return
          </CharString>
          <CharString index="14">
            rmoveto
            8 11 callsubr
            vhcurveto
            -124 -5 rlineto
            -9 -1 -7 -7 -9 vvcurveto
            -9 -21 callgsubr
            1 vhcurveto
            123 4 rlineto
            9 1 6 7 9 vvcurveto
            endchar
          </CharString>
          <CharString index="15">
            rmoveto
            51 37 33 39 28 vvcurveto
            25 -18 8 -12 -27 -32 -41 -73 -26 vhcurveto
            -45 -35 -87 -29 -86 -25 rrcurveto
            -119 -34 -79 -52 -96 vvcurveto
            -109 97 -51 88 25 callsubr
            11 -8 8 -10 -70 -79 34 91 78 69 39 103 30 vhcurveto
            68 20 73 21 51 28 rrcurveto
            -14 -53 -9 -63 -66 vvcurveto
            -71 7 -67 1 -67 vhcurveto
            -124 -53 -240 -142 -198 vvcurveto
            -119 78 -59 77 182 64 210 297 vhcurveto
            10 0 22 10 vvcurveto
            24 10 13 5 14 vvcurveto
            10 -8 6 -9 -6 -7 -2 -4 -8 vhcurveto
            -2 70 -6 60 60 vvcurveto
            84 16 72 18 54 vhcurveto
            -62 -455 rmoveto
            -262 -42 -236 -162 -63 -60 49 95 168 214 138 113 48 vhcurveto
            return
          </CharString>
          <CharString index="16">
            13 338 -64 callgsubr
            -8 9 -11 -7 -7 -4 -6 -2 vhcurveto
            -11 -5 -58 -129 -106 hhcurveto
            -54 -26 48 53 56 32 47 37 19 14 -13 -14 hvcurveto
            -20 -11 -2 -11 vvcurveto
            -61 callsubr
            11 14 15 23 28 30 -28 34 -42 -58 -47 -63 -78 -80 42 -56 74 126 65 137 22 11 vhcurveto
            return
          </CharString>
          <CharString index="17">
            43 244 54 rmoveto
            61 -1 37 34 22 39 rrcurveto
            2 5 12 callgsubr
            vvcurveto
            10 -61 callsubr
            -6 -8 -4 -4 -2 vhcurveto
            -44 -21 -24 -20 -44 -5 -4 0 -4 hhcurveto
            3 8 callgsubr
            11 vvcurveto
            41 -8 28 -12 18 vhcurveto
            23 35 rlineto
            3 4 1 3 12 callsubr
            -41 callsubr
            -5 -5 -1 10 callsubr
            -22 -34 rlineto
            3 -7 -7 2 -7 hhcurveto
            -29 -20 -27 -36 -14 2 -13 5 -12 hvcurveto
            -62 -94 rlineto
            -14 13 -9 20 24 vvcurveto
            49 30 28 21 10 vhcurveto
            10 12 callgsubr
            11 vvcurveto
            10 -6 6 -11 -19 -69 -40 -83 -38 14 -31 25 -19 vhcurveto
            -27 -41 rlineto
            -2 -4 -2 -3 -3 vvcurveto
            -9 6 -7 10 -1 vhcurveto
            -18 callgsubr
            hvcurveto
            30 46 rlineto
            -5 11 13 -2 14 hhcurveto
            52 36 30 39 19 hvcurveto
            -2 7 7 0 8 hhcurveto
            -128 -33 rmoveto
            -7 -6 1 2 -6 hvcurveto
            51 79 11 -15 15 -12 16 -9 rlinecurve
            -26 -13 -24 -20 -37 hhcurveto
            54 116 rmoveto
            25 37 rlineto
            5 -15 2 -19 -17 vvcurveto
            -7 0 -7 -1 -6 vhcurveto
            -14 8 -10 13 -7 13 rrcurveto
            3 63 rmoveto
            1 hlineto
            -14 -21 rlineto
            18 1 8 3 4 hhcurveto
            return
          </CharString>
          <CharString index="18">
            749 457 718 rmoveto
            -232 -157 -91 -147 -122 108 -54 39 9 9 6 11 8 -5 8 -8 2 hvcurveto
            -6 1 -110 31 109 vvcurveto
            128 147 74 214 239 247 -139 -235 -154 -110 -131 -185 -85 -93 26 50 -82 vhcurveto
            -1 0 1 -1 hhcurveto
            return
          </CharString>
          <CharString index="19">
            -83 callgsubr
            -10 -7 -7 -4 return
          </CharString>
          <CharString index="20">
            rmoveto
            15 -11 12 -15 -15 -12 -12 -15 -15 12 -11 15 15 11 11 15 vhcurveto
            endchar
          </CharString>
          <CharString index="21">
            rmoveto
            38 -31 32 -39 -39 -31 -32 -38 -38 31 -32 39 39 31 32 38 vhcurveto
            -32 hmoveto
            -21 -17 -17 -21 -21 -17 17 21 22 17 16 21 21 17 -16 -22 vhcurveto
            endchar
          </CharString>
          <CharString index="22">
            131 226 54 rmoveto
            51 25 38 42 53 vvcurveto
            41 -31 25 -30 -20 -17 -8 -12 -13 vhcurveto
            8 -12 -20 10 -26 33 callgsubr
            42 30 36 42 19 hvcurveto
            -48 13 35 -40 64 hhcurveto
            61 1 55 51 48 99 rrcurveto
            1 2 -83 callgsubr
            -11 -81 callsubr
            -58 -28 -40 -71 -58 hhcurveto
            -30 -22 13 19 -14 hvcurveto
            -52 135 rmoveto
            -67 -9 -28 -90 -52 hhcurveto
            -32 -10 29 24 80 56 36 41 15 12 -4 -5 8 hvcurveto
            26 callgsubr
            vvcurveto
            33 -104 rmoveto
            -3 12 -3 14 12 vvcurveto
            38 14 43 35 13 11 -11 -19 -35 -26 -36 -41 -18 vhcurveto
            return
          </CharString>
          <CharString index="23">
            -4 -78 callgsubr
            return
          </CharString>
          <CharString index="24">
            -3 -72 callsubr
            -8 return
          </CharString>
          <CharString index="25">
            42 0 76 53 vvcurveto
            72 129 58 135 159 vvcurveto
            76 -19 66 -55 -70 -16 -130 -224 -4 vhcurveto
            -3 -175 0 -252 -121 vvcurveto
            -162 0 -123 79 53 31 65 83 90 -35 111 -69 73 vhcurveto
            return
          </CharString>
          <CharString index="26">
            -7 -7 -84 callsubr
            return
          </CharString>
          <CharString index="27">
            7 8 0 11 -7 7 rrcurveto
            4 -4 -5 2 -4 hhcurveto
            -5 -5 -2 -4 -3 hvcurveto
            -35 -34 -16 -43 2 -50 rrcurveto
            15 callgsubr
            10 1 -28 callsubr
            vvcurveto
            -2 40 12 33 28 27 rrcurveto
            return
          </CharString>
          <CharString index="28">
            268 hmoveto
            14 -33 21 -16 11 vhcurveto
            -31 22 -29 19 -31 19 76 49 57 77 3 3 rrcurveto
            3 4 1 -84 callgsubr
            9 -11 -5 -6 -3 -5 -4 vhcurveto
            -1 -68 -91 -83 -42 vhcurveto
            -6 -3 -4 -6 -7 vvcurveto
            -7 4 -6 6 -4 vhcurveto
            53 -30 48 -36 55 -37 rrcurveto
            -3 3 4 -1 3 hhcurveto
            10 9 8 9 hvcurveto
            return
          </CharString>
          <CharString index="29">
            vhcurveto
            -51 -6 -62 -8 -77 -11 rrcurveto
            return
          </CharString>
          <CharString index="30">
            4 -45 callgsubr
            return
          </CharString>
          <CharString index="31">
            rmoveto
            -1 -63 callsubr
            -1 -256 -13 rcurveline
            -11 -1 -6 -9 -10 vvcurveto
            -11 9 -7 10 1 vhcurveto
            256 14 rlineto
            11 0 callgsubr
            hvcurveto
            return
          </CharString>
          <CharString index="32">
            -10 -8 -8 -10 hvcurveto
            -15 21 -10 -19 vvcurveto
            -17 -7 -30 -33 vhcurveto
            -55 0 107 -84 hhcurveto
            -43 -39 -40 -60 -30 5 -9 15 11 -28 callsubr
            hvcurveto
            4 -2 7 11 vvcurveto
            50 31 13 14 vhcurveto
            56 -2 -108 79 hhcurveto
            52 31 42 43 21 -18 40 -22 hvcurveto
            endchar
          </CharString>
          <CharString index="33">
            5 -2 5 return
          </CharString>
          <CharString index="34">
            1 -1 callgsubr
            vvcurveto
            return
          </CharString>
          <CharString index="35">
            -1 -3 -4 vvcurveto
            return
          </CharString>
          <CharString index="36">
            3 vvcurveto
            9 -7 return
          </CharString>
          <CharString index="37">
            -62 callsubr
            9 return
          </CharString>
          <CharString index="38">
            rmoveto
            -75 callgsubr
            return
          </CharString>
          <CharString index="39">
            rmoveto
            48 35 27 45 47 vvcurveto
            57 -42 37 -58 -52 -56 -35 -54 -28 11 -25 15 9 6 8 8 vhcurveto
            7 -10 3 27 vvcurveto
            34 39 24 38 44 25 -26 -39 -41 -35 -45 -45 -26 vhcurveto
            12 -31 -27 return
          </CharString>
          <CharString index="40">
            1 39 34 10 1 hhcurveto
            8 2 6 8 9 vvcurveto
            11 -26 callsubr
            -5 -27 -8 -3 -38 vhcurveto
            -2 76 -1 63 29 vvcurveto
            11 -1 -8 6 -10 hhcurveto
            -11 -7 -8 -11 -25 2 -64 2 -77 hvcurveto
            1 return
          </CharString>
          <CharString index="41">
            7 4 7 3 vhcurveto
            return
          </CharString>
          <CharString index="42">
            76 142 60 rmoveto
            58 18 57 39 59 vvcurveto
            37 -29 30 -38 -68 -43 -91 -67 -21 vhcurveto
            2 return
          </CharString>
          <CharString index="43">
            0 -12 7 -6 rrcurveto
            -4 4 4 8 callsubr
            5 -52 callsubr
            hvcurveto
            34 34 17 43 -2 50 rrcurveto
            83 hmoveto
            -72 callgsubr
            1 vhcurveto
            1 -40 -13 -33 -27 return
          </CharString>
          <CharString index="44">
            -50 callsubr
            -10 return
          </CharString>
          <CharString index="45">
            5 8 callsubr
            return
          </CharString>
          <CharString index="46">
            -10 8 -8 return
          </CharString>
          <CharString index="47">
            -10 -1 vhcurveto
            return
          </CharString>
          <CharString index="48">
            -7 -46 callsubr
            return
          </CharString>
          <CharString index="49">
            -11 -35 callgsubr
            return
          </CharString>
          <CharString index="50">
            2 3 3 return
          </CharString>
          <CharString index="51">
            rmoveto
            167 10 79 7 -76 callgsubr
            -9 -70 callgsubr
            return
          </CharString>
          <CharString index="52">
            1 3 1 3 2 vvcurveto
            10 return
          </CharString>
          <CharString index="53">
            -3 vhcurveto
            -1 return
          </CharString>
          <CharString index="54">
            7 8 11 return
          </CharString>
          <CharString index="55">
            4 -40 callgsubr
            return
          </CharString>
          <CharString index="56">
            -17 callgsubr
            -9 -10 return
          </CharString>
          <CharString index="57">
            10 -9 8 return
          </CharString>
          <CharString index="58">
            0 -12 7 -6 rrcurveto
            -4 4 4 8 callsubr
            5 -52 callsubr
            hvcurveto
            34 34 17 43 -2 50 rrcurveto
            endchar
          </CharString>
          <CharString index="59">
            -3 1 -3 7 callsubr
            return
          </CharString>
          <CharString index="60">
            -3 -61 callgsubr
            return
          </CharString>
          <CharString index="61">
            -4 -61 callgsubr
            return
          </CharString>
          <CharString index="62">
            3 -58 callgsubr
            return
          </CharString>
          <CharString index="63">
            31 0 callsubr
            return
          </CharString>
          <CharString index="64">
            -16 callsubr
            3 return
          </CharString>
          <CharString index="65">
            rmoveto
            -175 -4 -8 -264 -64 hhcurveto
            -24 -4 33 23 89 40 151 64 143 hvcurveto
            endchar
          </CharString>
          <CharString index="66">
            -7 7 -9 return
          </CharString>
          <CharString index="67">
            -9 7 -10 return
          </CharString>
          <CharString index="68">
            -28 39 34 24 27 21 vhcurveto
            return
          </CharString>
          <CharString index="69">
            vvcurveto
            -26 callsubr
            11 7 6 return
          </CharString>
          <CharString index="70">
            -10 callsubr
            9 return
          </CharString>
          <CharString index="71">
            -25 callgsubr
            10 return
          </CharString>
          <CharString index="72">
            vvcurveto
            11 -10 return
          </CharString>
          <CharString index="73">
            rmoveto
            8 -6 7 -9 -6 -31 callsubr
            -9 -5 -7 -13 -17 hhcurveto
            -13 -9 7 15 return
          </CharString>
          <CharString index="74">
            -9 -8 -7 return
          </CharString>
          <CharString index="75">
            vhcurveto
            1 3 -57 callgsubr
            8 return
          </CharString>
          <CharString index="76">
            -6 -47 callsubr
            return
          </CharString>
          <CharString index="77">
            hvcurveto
            1 2 0 return
          </CharString>
          <CharString index="78">
            1 -4 2 return
          </CharString>
          <CharString index="79">
            8 8 10 return
          </CharString>
          <CharString index="80">
            rcurveline
            -2 -4 -1 -4 -5 vvcurveto
            -9 6 -5 8 vhcurveto
            5 7 -2 callsubr
            return
          </CharString>
          <CharString index="81">
            -10 7 -9 return
          </CharString>
          <CharString index="82">
            29 callgsubr
            -7 -3 return
          </CharString>
          <CharString index="83">
            2 -37 callsubr
            -11 return
          </CharString>
          <CharString index="84">
            hvcurveto
            -2 3 return
          </CharString>
          <CharString index="85">
            6 6 vvcurveto
            return
          </CharString>
          <CharString index="86">
            4 -2 4 return
          </CharString>
          <CharString index="87">
            -33 callsubr
            -9 -9 -8 0 callgsubr
            31 callsubr
            -18 callsubr
            return
          </CharString>
          <CharString index="88">
            3 callsubr
            34 callgsubr
            38 -4 -1 36 hvcurveto
            return
          </CharString>
          <CharString index="89">
            9 8 -7 -10 vhcurveto
            return
          </CharString>
          <CharString index="90">
            vvcurveto
            -21 callgsubr
            -11 return
          </CharString>
          <CharString index="91">
            11 6 6 return
          </CharString>
          <CharString index="92">
            3 hvcurveto
            endchar
          </CharString>
          <CharString index="93">
            35 callsubr
            -9 return
          </CharString>
          <CharString index="94">
            -3 0 -2 return
          </CharString>
          <CharString index="95">
            -6 -6 -3 return
          </CharString>
          <CharString index="96">
            26 27 vvcurveto
            return
          </CharString>
          <CharString index="97">
            vvcurveto
            10 -7 return
          </CharString>
          <CharString index="98">
            -8 -9 -10 return
          </CharString>
          <CharString index="99">
            -7 7 -8 -7 -6 -3 -78 callgsubr
            -8 -4 -8 -13 -16 hhcurveto
            return
          </CharString>
          <CharString index="100">
            hhcurveto
            11 8 return
          </CharString>
          <CharString index="101">
            4 -4 -4 return
          </CharString>
          <CharString index="102">
            -63 -32 -48 -77 -77 hhcurveto
            -2 hlineto
            32 22 24 44 59 vvcurveto
            return
          </CharString>
          <CharString index="103">
            -51 callgsubr
            4 4 vvcurveto
            return
          </CharString>
          <CharString index="104">
            -9 28 callsubr
            return
          </CharString>
          <CharString index="105">
            3 11 hhcurveto
            13 19 return
          </CharString>
          <CharString index="106">
            -9 -10 -8 return
          </CharString>
          <CharString index="107">
            2 2 hvcurveto
            return
          </CharString>
          <CharString index="108">
            -10 -1 -8 -9 1 -10 rlinecurve
            -61 callsubr
            10 1 vhcurveto
            return
          </CharString>
          <CharString index="109">
            vvcurveto
            -9 8 return
          </CharString>
          <CharString index="110">
            hhcurveto
            -10 -9 return
          </CharString>
          <CharString index="111">
            316 rmoveto
            return
          </CharString>
          <CharString index="112">
            rrcurveto
            10 1 return
          </CharString>
          <CharString index="113">
            10 23 callgsubr
            return
          </CharString>
          <CharString index="114">
            2 -3 hvcurveto
            return
          </CharString>
          <CharString index="115">
            -2 5 hhcurveto
            return
          </CharString>
          <CharString index="116">
            -3 2 -3 return
          </CharString>
          <CharString index="117">
            -5 -3 vhcurveto
            return
          </CharString>
          <CharString index="118">
            -8 8 -8 return
          </CharString>
          <CharString index="119">
            4 vvcurveto
            8 return
          </CharString>
          <CharString index="120">
            rmoveto
            -34 callgsubr
            3 return
          </CharString>
          <CharString index="121">
            2 -30 callsubr
            return
          </CharString>
          <CharString index="122">
            164 33 return
          </CharString>
          <CharString index="123">
            vvcurveto
            5 -2 return
          </CharString>
          <CharString index="124">
            9 -8 8 return
          </CharString>
          <CharString index="125">
            -6 -6 -4 return
          </CharString>
          <CharString index="126">
            -20 -22 -43 -13 -19 5 7 -20 vhcurveto
            -79 return
          </CharString>
          <CharString index="127">
            rlineto
            -10 -7 -3 callsubr
            10 hvcurveto
            return
          </CharString>
          <CharString index="128">
            8 9 17 callgsubr
            14 -11 7 -11 vhcurveto
            return
          </CharString>
          <CharString index="129">
            -4 -6 3 -6 hhcurveto
            -11 return
          </CharString>
          <CharString index="130">
            10 10 -7 9 -11 hvcurveto
            return
          </CharString>
          <CharString index="131">
            10 8 7 10 return
          </CharString>
          <CharString index="132">
            9 32 callgsubr
            return
          </CharString>
          <CharString index="133">
            rmoveto
            41 -32 20 return
          </CharString>
          <CharString index="134">
            0 1 1 vvcurveto
            return
          </CharString>
          <CharString index="135">
            -10 -61 callsubr
            return
          </CharString>
          <CharString index="136">
            hhcurveto
            -3 -3 0 return
          </CharString>
          <CharString index="137">
            9 4 4 return
          </CharString>
          <CharString index="138">
            8 7 9 return
          </CharString>
          <CharString index="139">
            -2 callsubr
            -7 -24 -21 -17 return
          </CharString>
          <CharString index="140">
            -14 11 -12 14 14 11 12 14 vhcurveto
            return
          </CharString>
          <CharString index="141">
            -3 -3 -1 return
          </CharString>
          <CharString index="142">
            hhcurveto
            -11 -8 return
          </CharString>
        <CharString name=".notdef">
          -29 endchar
        </CharString>
        <CharString name="A">
          784 955 2 rmoveto
          -22 44 -12 94 -4 107 82 10 38 4 23 3 5 callsubr
          -11 callgsubr
          vvcurveto
          11 -11 7 -8 -2 -43 -4 -12 -97 vhcurveto
          -1 26 0 -11 callsubr
          143 14 148 4 25 vhcurveto
          6 7 8 17 callgsubr
          12 -11 9 -10 -17 -7 -18 -17 4 callgsubr
          -64 -110 -177 -84 -119 -18 -24 -24 -32 -31 -34 rrcurveto
          -6 -65 -58 -4 -53 hhcurveto
          -184 -105 40 74 44 44 -44 callsubr
          6 3 2 6 6 18 callgsubr
          7 -9 -23 -49 -59 -51 -115 152 -35 174 44 47 2 4 46 vhcurveto
          -94 -95 -137 -96 -164 hhcurveto
          -120 -52 53 3 -3 hvcurveto
          -6 callsubr
          2 -6 hhcurveto
          -23 callgsubr
          -4 2 -49 callgsubr
          -23 callsubr
          62 -65 138 hhcurveto
          153 160 81 151 138 hvcurveto
          29 2 28 4 27 4 77 10 61 8 48 6 5 -109 12 -99 25 -48 rrcurveto
          -7 3 3 callgsubr
          hhcurveto
          11 -28 callsubr
          -33 callgsubr
          -2 2 hvcurveto
          -266 252 rmoveto
          -15 -2 -14 -2 -14 -1 16 20 17 21 15 22 63 88 78 122 52 82 rrcurveto
          -6 -61 -3 -88 -91 vvcurveto
          -29 0 -28 1 -28 -78 callsubr
          endchar
        </CharString>
        <CharString name="AE">
          1411 955 2 rmoveto
          -9 17 -7 24 -5 30 rrcurveto
          -69 64 116 -30 111 hhcurveto
          32 32 2 5 30 hvcurveto
          268 42 64 177 2 8 rrcurveto
          1 1 0 2 2 vvcurveto
          10 -8 -26 callgsubr
          -30 -2 -31 hhcurveto
          -144 -161 53 141 86 55 60 103 30 hvcurveto
          -27 46 67 -16 63 hhcurveto
          57 41 20 33 33 -40 17 -58 hvcurveto
          -32 -1 -69 -2 -70 -18 rrcurveto
          -39 28 -21 40 42 vvcurveto
          73 69 84 152 197 38 -119 -4 1 vhcurveto
          -8 2 7 -6 8 -7 callsubr
          9 9 2 0 2 -1 2 hvcurveto
          5 -1 -43 144 -227 hhcurveto
          -150 -108 -81 -113 -45 19 -43 37 -34 hvcurveto
          -59 -21 -42 -32 -26 -40 rrcurveto
          49 vlineto
          143 14 148 4 25 vhcurveto
          6 7 8 17 callgsubr
          12 -11 9 -10 -17 -7 -18 -17 4 callgsubr
          -64 -110 -177 -84 -119 -18 -24 -24 -32 -31 -34 rrcurveto
          -6 -65 -58 -4 -53 hhcurveto
          -184 -105 40 74 44 44 -44 callsubr
          6 3 2 6 6 18 callgsubr
          7 -9 -23 -49 -59 -51 -115 152 -35 174 44 47 2 4 46 vhcurveto
          -94 -95 -137 -96 -164 hhcurveto
          -120 -52 53 3 -3 hvcurveto
          -6 callsubr
          2 -6 hhcurveto
          -23 callgsubr
          -4 2 -49 callgsubr
          -23 callsubr
          62 -65 138 hhcurveto
          153 160 81 151 138 hvcurveto
          29 2 28 4 27 4 77 10 61 8 48 6 5 -109 12 -99 25 -48 rrcurveto
          -7 3 3 callgsubr
          hhcurveto
          11 -28 callsubr
          -33 callgsubr
          -2 2 hvcurveto
          -266 252 rmoveto
          -15 -2 -14 -2 -14 -1 16 20 17 21 15 22 63 88 78 122 52 82 rrcurveto
          -6 -61 -3 -88 -91 vvcurveto
          -29 0 -27 1 -29 -78 callsubr
          626 137 rmoveto
          -8 -20 -8 -40 -45 -46 8 13 -34 vhcurveto
          8 44 31 1 39 hhcurveto
          34 37 -4 -10 hvcurveto
          endchar
        </CharString>
        <CharString name="AEacute">
          1411 955 2 rmoveto
          -9 17 -7 24 -5 30 rrcurveto
          -69 64 116 -30 111 hhcurveto
          32 32 2 5 30 hvcurveto
          268 42 64 177 2 8 rrcurveto
          1 1 0 2 2 vvcurveto
          10 -8 -26 callgsubr
          -30 -2 -31 hhcurveto
          -144 -161 53 141 86 55 60 103 30 hvcurveto
          -27 46 67 -16 63 hhcurveto
          57 41 20 33 33 -40 17 -58 hvcurveto
          -32 -1 -69 -2 -70 -18 rrcurveto
          -39 28 -21 40 42 vvcurveto
          73 69 84 152 197 38 -119 -4 1 vhcurveto
          -8 2 7 -6 8 -7 callsubr
          9 9 2 0 2 -1 2 hvcurveto
          5 -1 -43 144 -227 hhcurveto
          -150 -108 -81 -113 -45 19 -43 37 -34 hvcurveto
          -59 -21 -42 -32 -26 -40 rrcurveto
          49 vlineto
          143 14 148 4 25 vhcurveto
          6 7 8 17 callgsubr
          12 -11 9 -10 -17 -7 -18 -17 4 callgsubr
          -64 -110 -177 -84 -119 -18 -24 -24 -32 -31 -34 rrcurveto
          -6 -65 -58 -4 -53 hhcurveto
          -184 -105 40 74 44 44 -44 callsubr
          6 3 2 6 6 18 callgsubr
          7 -9 -23 -49 -59 -51 -115 152 -35 174 44 47 2 4 46 vhcurveto
          -94 -95 -137 -96 -164 hhcurveto
          -120 -52 53 3 -3 hvcurveto
          -6 callsubr
          2 -6 hhcurveto
          -23 callgsubr
          -4 2 -49 callgsubr
          -23 callsubr
          62 -65 138 hhcurveto
          153 160 81 151 138 hvcurveto
          29 2 28 4 27 4 77 10 61 8 48 6 5 -109 12 -99 25 -48 rrcurveto
          -7 3 3 callgsubr
          hhcurveto
          11 -28 callsubr
          -33 callgsubr
          -2 2 hvcurveto
          -266 252 rmoveto
          -15 -2 -14 -2 -14 -1 16 20 17 21 15 22 63 88 78 122 52 82 rrcurveto
          -6 -61 -3 -88 -91 vvcurveto
          -29 0 -27 1 -29 -78 callsubr
          626 137 rmoveto
          -8 -20 -8 -40 -45 -46 8 13 -34 vhcurveto
          8 44 31 1 39 hhcurveto
          34 37 -4 -10 hvcurveto
          -282 402 rmoveto
          -4 -3 -1 -4 -5 -74 callgsubr
          30 callsubr
          -57 callsubr
          vhcurveto
          78 74 rlineto
          4 3 1 -84 callgsubr
          8 -8 -4 -4 -2 -3 -3 vhcurveto
          -78 -74 rlineto
          endchar
        </CharString>
        <CharString name="Aacute">
          784 955 2 rmoveto
          -22 44 -12 94 -4 107 82 10 38 4 23 3 5 callsubr
          -11 callgsubr
          vvcurveto
          11 -11 7 -8 -2 -43 -4 -12 -97 vhcurveto
          -1 26 0 -11 callsubr
          143 14 148 4 25 vhcurveto
          6 7 8 17 callgsubr
          12 -11 9 -10 -17 -7 -18 -17 4 callgsubr
          -64 -110 -177 -84 -119 -18 -24 -24 -32 -31 -34 rrcurveto
          -6 -65 -58 -4 -53 hhcurveto
          -184 -105 40 74 44 44 -44 callsubr
          6 3 2 6 6 18 callgsubr
          7 -9 -23 -49 -59 -51 -115 152 -35 174 44 47 2 4 46 vhcurveto
          -94 -95 -137 -96 -164 hhcurveto
          -120 -52 53 3 -3 hvcurveto
          -6 callsubr
          2 -6 hhcurveto
          -23 callgsubr
          -4 2 -49 callgsubr
          -23 callsubr
          62 -65 138 hhcurveto
          153 160 81 151 138 hvcurveto
          29 2 28 4 27 4 77 10 61 8 48 6 5 -109 12 -99 25 -48 rrcurveto
          -7 3 3 callgsubr
          hhcurveto
          11 -28 callsubr
          -33 callgsubr
          -2 2 hvcurveto
          -266 252 rmoveto
          -15 -2 -14 -2 -14 -1 16 20 17 21 15 22 63 88 78 122 52 82 rrcurveto
          -6 -61 -3 -88 -91 vvcurveto
          -29 0 -28 1 -28 -78 callsubr
          212 540 rmoveto
          -4 -3 -1 -4 -5 -74 callgsubr
          30 callsubr
          -57 callsubr
          vhcurveto
          78 74 rlineto
          4 3 1 -84 callgsubr
          8 -8 -4 -4 -2 -3 -3 vhcurveto
          -78 -74 rlineto
          endchar
        </CharString>
        <CharString name="Abreve">
          784 955 2 rmoveto
          -22 44 -12 94 -4 107 82 10 38 4 23 3 5 callsubr
          -11 callgsubr
          vvcurveto
          11 -11 7 -8 -2 -43 -4 -12 -97 vhcurveto
          -1 26 0 -11 callsubr
          143 14 148 4 25 vhcurveto
          6 7 8 17 callgsubr
          12 -11 9 -10 -17 -7 -18 -17 4 callgsubr
          -64 -110 -177 -84 -119 -18 -24 -24 -32 -31 -34 rrcurveto
          -6 -65 -58 -4 -53 hhcurveto
          -184 -105 40 74 44 44 -44 callsubr
          6 3 2 6 6 18 callgsubr
          7 -9 -23 -49 -59 -51 -115 152 -35 174 44 47 2 4 46 vhcurveto
          -94 -95 -137 -96 -164 hhcurveto
          -120 -52 53 3 -3 hvcurveto
          -6 callsubr
          2 -6 hhcurveto
          -23 callgsubr
          -4 2 -49 callgsubr
          -23 callsubr
          62 -65 138 hhcurveto
          153 160 81 151 138 hvcurveto
          29 2 28 4 27 4 77 10 61 8 48 6 5 -109 12 -99 25 -48 rrcurveto
          -7 3 3 callgsubr
          hhcurveto
          11 -28 callsubr
          -33 callgsubr
          -2 2 hvcurveto
          -266 252 rmoveto
          -15 -2 -14 -2 -14 -1 16 20 17 21 15 22 63 88 78 122 52 82 rrcurveto
          -6 -61 -3 -88 -91 vvcurveto
          -29 0 -28 1 -28 -78 callsubr
          310 590 -94 callgsubr
        </CharString>
        <CharString name="Acircumflex">
          784 955 2 rmoveto
          -22 44 -12 94 -4 107 82 10 38 4 23 3 5 callsubr
          -11 callgsubr
          vvcurveto
          11 -11 7 -8 -2 -43 -4 -12 -97 vhcurveto
          -1 26 0 -11 callsubr
          143 14 148 4 25 vhcurveto
          6 7 8 17 callgsubr
          12 -11 9 -10 -17 -7 -18 -17 4 callgsubr
          -64 -110 -177 -84 -119 -18 -24 -24 -32 -31 -34 rrcurveto
          -6 -65 -58 -4 -53 hhcurveto
          -184 -105 40 74 44 44 -44 callsubr
          6 3 2 6 6 18 callgsubr
          7 -9 -23 -49 -59 -51 -115 152 -35 174 44 47 2 4 46 vhcurveto
          -94 -95 -137 -96 -164 hhcurveto
          -120 -52 53 3 -3 hvcurveto
          -6 callsubr
          2 -6 hhcurveto
          -23 callgsubr
          -4 2 -49 callgsubr
          -23 callsubr
          62 -65 138 hhcurveto
          153 160 81 151 138 hvcurveto
          29 2 28 4 27 4 77 10 61 8 48 6 5 -109 12 -99 25 -48 rrcurveto
          -7 3 3 callgsubr
          hhcurveto
          11 -28 callsubr
          -33 callgsubr
          -2 2 hvcurveto
          -266 252 rmoveto
          -15 -2 -14 -2 -14 -1 16 20 17 21 15 22 63 88 78 122 52 82 rrcurveto
          -6 -61 -3 -88 -91 vvcurveto
          -29 0 -28 1 -28 -78 callsubr
          254 612 rmoveto
          -107 callsubr
        </CharString>
        <CharString name="Adieresis">
          784 955 2 rmoveto
          -22 44 -12 94 -4 107 82 10 38 4 23 3 5 callsubr
          -11 callgsubr
          vvcurveto
          11 -11 7 -8 -2 -43 -4 -12 -97 vhcurveto
          -1 26 0 -11 callsubr
          143 14 148 4 25 vhcurveto
          6 7 8 17 callgsubr
          12 -11 9 -10 -17 -7 -18 -17 4 callgsubr
          -64 -110 -177 -84 -119 -18 -24 -24 -32 -31 -34 rrcurveto
          -6 -65 -58 -4 -53 hhcurveto
          -184 -105 40 74 44 44 -44 callsubr
          6 3 2 6 6 18 callgsubr
          7 -9 -23 -49 -59 -51 -115 152 -35 174 44 47 2 4 46 vhcurveto
          -94 -95 -137 -96 -164 hhcurveto
          -120 -52 53 3 -3 hvcurveto
          -6 callsubr
          2 -6 hhcurveto
          -23 callgsubr
          -4 2 -49 callgsubr
          -23 callsubr
          62 -65 138 hhcurveto
          153 160 81 151 138 hvcurveto
          29 2 28 4 27 4 77 10 61 8 48 6 5 -109 12 -99 25 -48 rrcurveto
          -7 3 3 callgsubr
          hhcurveto
          11 -28 callsubr
          -33 callgsubr
          -2 2 hvcurveto
          -266 252 rmoveto
          -15 -2 -14 -2 -14 -1 16 20 17 21 15 22 63 88 78 122 52 82 rrcurveto
          -6 -61 -3 -88 -91 vvcurveto
          -29 0 -28 1 -28 -78 callsubr
          312 556 -98 callsubr
        </CharString>
        <CharString name="Agrave">
          784 955 2 rmoveto
          -22 44 -12 94 -4 107 82 10 38 4 23 3 5 callsubr
          -11 callgsubr
          vvcurveto
          11 -11 7 -8 -2 -43 -4 -12 -97 vhcurveto
          -1 26 0 -11 callsubr
          143 14 148 4 25 vhcurveto
          6 7 8 17 callgsubr
          12 -11 9 -10 -17 -7 -18 -17 4 callgsubr
          -64 -110 -177 -84 -119 -18 -24 -24 -32 -31 -34 rrcurveto
          -6 -65 -58 -4 -53 hhcurveto
          -184 -105 40 74 44 44 -44 callsubr
          6 3 2 6 6 18 callgsubr
          7 -9 -23 -49 -59 -51 -115 152 -35 174 44 47 2 4 46 vhcurveto
          -94 -95 -137 -96 -164 hhcurveto
          -120 -52 53 3 -3 hvcurveto
          -6 callsubr
          2 -6 hhcurveto
          -23 callgsubr
          -4 2 -49 callgsubr
          -23 callsubr
          62 -65 138 hhcurveto
          153 160 81 151 138 hvcurveto
          29 2 28 4 27 4 77 10 61 8 48 6 5 -109 12 -99 25 -48 rrcurveto
          -7 3 3 callgsubr
          hhcurveto
          11 -28 callsubr
          -33 callgsubr
          -2 2 hvcurveto
          -266 252 rmoveto
          -15 -2 -14 -2 -14 -1 16 20 17 21 15 22 63 88 78 122 52 82 rrcurveto
          -6 -61 -3 -88 -91 vvcurveto
          -29 0 -28 1 -28 -78 callsubr
          273 540 -98 callgsubr
        </CharString>
        <CharString name="Amacron">
          784 955 2 rmoveto
          -22 44 -12 94 -4 107 82 10 38 4 23 3 5 callsubr
          -11 callgsubr
          vvcurveto
          11 -11 7 -8 -2 -43 -4 -12 -97 vhcurveto
          -1 26 0 -11 callsubr
          143 14 148 4 25 vhcurveto
          6 7 8 17 callgsubr
          12 -11 9 -10 -17 -7 -18 -17 4 callgsubr
          -64 -110 -177 -84 -119 -18 -24 -24 -32 -31 -34 rrcurveto
          -6 -65 -58 -4 -53 hhcurveto
          -184 -105 40 74 44 44 -44 callsubr
          6 3 2 6 6 18 callgsubr
          7 -9 -23 -49 -59 -51 -115 152 -35 174 44 47 2 4 46 vhcurveto
          -94 -95 -137 -96 -164 hhcurveto
          -120 -52 53 3 -3 hvcurveto
          -6 callsubr
          2 -6 hhcurveto
          -23 callgsubr
          -4 2 -49 callgsubr
          -23 callsubr
          62 -65 138 hhcurveto
          153 160 81 151 138 hvcurveto
          29 2 28 4 27 4 77 10 61 8 48 6 5 -109 12 -99 25 -48 rrcurveto
          -7 3 3 callgsubr
          hhcurveto
          11 -28 callsubr
          -33 callgsubr
          -2 2 hvcurveto
          -266 252 rmoveto
          -15 -2 -14 -2 -14 -1 16 20 17 21 15 22 63 88 78 122 52 82 rrcurveto
          -6 -61 -3 -88 -91 vvcurveto
          -29 0 -28 1 -28 -78 callsubr
          319 560 -93 callsubr
        </CharString>
        <CharString name="Aogonek">
          784 988 -108 rmoveto
          8 -8 callsubr
          -13 -9 7 15 24 callgsubr
          3 3 4 4 7 vvcurveto
          4 -1 2 -1 2 vhcurveto
          -22 44 -12 94 -4 107 82 10 38 4 23 3 5 callsubr
          -11 callgsubr
          vvcurveto
          11 -11 7 -8 -2 -43 -4 -12 -97 vhcurveto
          -1 26 0 -11 callsubr
          143 14 148 4 25 vhcurveto
          6 7 8 17 callgsubr
          12 -11 9 -10 -17 -7 -18 -17 4 callgsubr
          -64 -110 -177 -84 -119 -18 -24 -24 -32 -31 -34 rrcurveto
          -6 -65 -58 -4 -53 hhcurveto
          -184 -105 40 74 44 44 -44 callsubr
          6 3 2 6 6 18 callgsubr
          7 -9 -23 -49 -59 -51 -115 152 -35 174 44 47 2 4 46 vhcurveto
          -94 -95 -137 -96 -164 hhcurveto
          -120 -52 53 3 -3 hvcurveto
          -6 callsubr
          2 -6 hhcurveto
          -23 callgsubr
          -4 2 -49 callgsubr
          -23 callsubr
          62 -65 138 hhcurveto
          153 160 81 151 138 hvcurveto
          29 2 28 4 27 4 77 10 61 8 48 6 5 -102 11 -94 22 -51 rrcurveto
          -16 -19 -29 -39 -39 19 callgsubr
          -299 362 rmoveto
          -15 -2 -14 -2 -14 -1 16 20 17 21 15 22 63 88 78 122 52 82 rrcurveto
          -6 -61 -3 -88 -91 vvcurveto
          -29 0 -28 1 -28 -78 callsubr
          endchar
        </CharString>
        <CharString name="Aring">
          784 955 2 rmoveto
          -22 44 -12 94 -4 107 82 10 38 4 23 3 5 callsubr
          -11 callgsubr
          vvcurveto
          11 -11 7 -8 -2 -43 -4 -12 -97 vhcurveto
          -1 26 0 -11 callsubr
          143 14 148 4 25 vhcurveto
          6 7 8 17 callgsubr
          12 -11 9 -10 -17 -7 -18 -17 4 callgsubr
          -64 -110 -177 -84 -119 -18 -24 -24 -32 -31 -34 rrcurveto
          -6 -65 -58 -4 -53 hhcurveto
          -184 -105 40 74 44 44 -44 callsubr
          6 3 2 6 6 18 callgsubr
          7 -9 -23 -49 -59 -51 -115 152 -35 174 44 47 2 4 46 vhcurveto
          -94 -95 -137 -96 -164 hhcurveto
          -120 -52 53 3 -3 hvcurveto
          -6 callsubr
          2 -6 hhcurveto
          -23 callgsubr
          -4 2 -49 callgsubr
          -23 callsubr
          62 -65 138 hhcurveto
          153 160 81 151 138 hvcurveto
          29 2 28 4 27 4 77 10 61 8 48 6 5 -109 12 -99 25 -48 rrcurveto
          -7 3 3 callgsubr
          hhcurveto
          11 -28 callsubr
          -33 callgsubr
          -2 2 hvcurveto
          -266 252 rmoveto
          -15 -2 -14 -2 -14 -1 16 20 17 21 15 22 63 88 78 122 52 82 rrcurveto
          -6 -61 -3 -88 -91 vvcurveto
          -29 0 -28 1 -28 -78 callsubr
          311 577 -86 callsubr
        </CharString>
        <CharString name="Atilde">
          784 955 2 rmoveto
          -22 44 -12 94 -4 107 82 10 38 4 23 3 5 callsubr
          -11 callgsubr
          vvcurveto
          11 -11 7 -8 -2 -43 -4 -12 -97 vhcurveto
          -1 26 0 -11 callsubr
          143 14 148 4 25 vhcurveto
          6 7 8 17 callgsubr
          12 -11 9 -10 -17 -7 -18 -17 4 callgsubr
          -64 -110 -177 -84 -119 -18 -24 -24 -32 -31 -34 rrcurveto
          -6 -65 -58 -4 -53 hhcurveto
          -184 -105 40 74 44 44 -44 callsubr
          6 3 2 6 6 18 callgsubr
          7 -9 -23 -49 -59 -51 -115 152 -35 174 44 47 2 4 46 vhcurveto
          -94 -95 -137 -96 -164 hhcurveto
          -120 -52 53 3 -3 hvcurveto
          -6 callsubr
          2 -6 hhcurveto
          -23 callgsubr
          -4 2 -49 callgsubr
          -23 callsubr
          62 -65 138 hhcurveto
          153 160 81 151 138 hvcurveto
          29 2 28 4 27 4 77 10 61 8 48 6 5 -109 12 -99 25 -48 rrcurveto
          -7 3 3 callgsubr
          hhcurveto
          11 -28 callsubr
          -33 callgsubr
          -2 2 hvcurveto
          -266 252 rmoveto
          -15 -2 -14 -2 -14 -1 16 20 17 21 15 22 63 88 78 122 52 82 rrcurveto
          -6 -61 -3 -88 -91 vvcurveto
          -29 0 -28 1 -28 -78 callsubr
          321 562 -104 callsubr
        </CharString>
        <CharString name="B">
          879 917 339 rmoveto
          81 29 67 54 95 vvcurveto
          86 -65 61 -119 28 vhcurveto
          16 16 10 5 14 vvcurveto
          9 -9 6 -9 34 callsubr
          -2 -4 vhcurveto
          -2 -1 -15 -11 -24 -26 rrcurveto
          7 -40 -44 3 -49 hhcurveto
          -180 -263 -77 -215 -152 hvcurveto
          -53 -76 -28 -75 -69 vvcurveto
          -133 104 -85 147 143 174 102 225 94 vhcurveto
          0 12 0 6 36 44 3 7 44 vhcurveto
          137 -18 91 -58 -79 vvcurveto
          -72 -76 -74 -175 -64 -65 13 25 -60 vhcurveto
          1 -3 -2 1 -3 hhcurveto
          -9 -9 -8 -11 -7 4 -7 7 -3 hvcurveto
          -29 70 71 -13 64 hhcurveto
          120 167 47 137 37 -14 92 -167 47 hvcurveto
          -84 16 rmoveto
          4 -34 -30 2 -25 hhcurveto
          -8 -12 0 -1 -13 hvcurveto
          26 101 51 119 65 81 rrcurveto
          112 -23 64 -48 -72 vvcurveto
          -107 -110 -39 -86 -17 vhcurveto
          -21 312 rmoveto
          -70 -96 -35 -107 -36 -107 rrcurveto
          -31 -4 -15 -5 -16 vvcurveto
          -15 16 -6 11 vhcurveto
          -202 -88 -156 -90 -128 hhcurveto
          -128 -86 67 114 60 25 69 49 68 hvcurveto
          205 144 250 72 171 hhcurveto
          38 36 -2 -5 33 hvcurveto
          endchar
        </CharString>
        <CharString name="C">
          576 817 181 rmoveto
          -99 callsubr
          -234 209 -104 197 168 153 104 99 61 vhcurveto
          endchar
        </CharString>
        <CharString name="Cacute">
          576 817 181 rmoveto
          -99 callsubr
          -234 209 -104 197 168 153 104 99 61 vhcurveto
          -368 596 rmoveto
          -4 -3 -1 -4 -5 -74 callgsubr
          30 callsubr
          -57 callsubr
          vhcurveto
          78 74 rlineto
          4 3 1 -84 callgsubr
          8 -8 -4 -4 -2 -3 -3 vhcurveto
          -78 -74 rlineto
          endchar
        </CharString>
        <CharString name="Ccaron">
          576 817 181 rmoveto
          -99 callsubr
          -234 209 -104 197 168 153 104 99 61 vhcurveto
          -352 575 -102 callgsubr
        </CharString>
        <CharString name="Ccedilla">
          576 490 -117 26 callsubr
          -30 vhcurveto
          7 19 rlineto
          1 3 2 7 4 vvcurveto
          1 vlineto
          167 1 152 104 60 98 rrcurveto
          -99 callsubr
          -223 189 -105 188 -9 vhcurveto
          -15 -41 rlineto
          -2 -3 -1 -5 -6 callgsubr
          6 -6 8 vhcurveto
          5 7 32 callsubr
          -9 -19 hvcurveto
          -26 -10 17 -10 hhcurveto
          -8 -9 -6 -62 callgsubr
        </CharString>
        <CharString name="Ccircumflex">
          576 817 181 rmoveto
          -99 callsubr
          -234 209 -104 197 168 153 104 99 61 vhcurveto
          -326 668 rmoveto
          -107 callsubr
        </CharString>
        <CharString name="Cdotaccent">
          576 817 181 rmoveto
          -99 callsubr
          -234 209 -104 197 168 153 104 99 61 vhcurveto
          -313 612 -87 callsubr
        </CharString>
        <CharString name="D">
          -89 callsubr
          52 68 15 95 13 79 16 95 14 83 69 40 rrcurveto
          6 3 3 6 7 vvcurveto
          11 -26 callsubr
          34 callsubr
          -1 -3 vhcurveto
          -131 -78 34 -184 -61 -151 -79 callgsubr
        </CharString>
        <CharString name="Dcaron">
          -89 callsubr
          52 68 15 95 13 79 16 95 14 83 69 40 rrcurveto
          6 3 3 6 7 vvcurveto
          11 -26 callsubr
          34 callsubr
          -1 -3 vhcurveto
          -131 -78 34 -184 -61 -151 -89 callgsubr
          155 673 -102 callgsubr
        </CharString>
        <CharString name="Dcroat">
          -90 callgsubr
        </CharString>
        <CharString name="E">
          -107 callgsubr
          endchar
        </CharString>
        <CharString name="Eacute">
          -107 callgsubr
          -96 399 rmoveto
          -4 -3 -1 -4 -5 -74 callgsubr
          30 callsubr
          -57 callsubr
          vhcurveto
          78 74 rlineto
          4 3 1 -84 callgsubr
          8 -8 -4 -4 -2 -3 -3 vhcurveto
          -78 -74 rlineto
          endchar
        </CharString>
        <CharString name="Ebreve">
          -107 callgsubr
          3 449 -94 callgsubr
        </CharString>
        <CharString name="Ecaron">
          -107 callgsubr
          -79 378 -102 callgsubr
        </CharString>
        <CharString name="Ecircumflex">
          -107 callgsubr
          -53 471 rmoveto
          -107 callsubr
        </CharString>
        <CharString name="Edieresis">
          -107 callgsubr
          5 415 -98 callsubr
        </CharString>
        <CharString name="Edotaccent">
          -107 callgsubr
          -40 415 -87 callsubr
        </CharString>
        <CharString name="Egrave">
          -107 callgsubr
          -35 399 -98 callgsubr
        </CharString>
        <CharString name="Emacron">
          -107 callgsubr
          11 419 -93 callsubr
        </CharString>
        <CharString name="Eng">
          876 1299 734 rmoveto
          3 vlineto
          14 -9 5 -23 -120 -78 -90 -115 -29 vhcurveto
          -19 -72 -38 -227 -20 -156 -64 193 -142 382 -7 18 rrcurveto
          8 -3 -6 5 -8 -14 callsubr
          -10 hvcurveto
          -10 vlineto
          -39 -4 -152 -70 -179 vhcurveto
          -262 -101 -213 -15 -66 hhcurveto
          -114 -95 64 96 87 90 66 92 113 44 -76 -4 2 hvcurveto
          -6 3 6 -3 7 31 callgsubr
          9 9 -33 callgsubr
          -2 3 hvcurveto
          6 -3 -52 92 -139 hhcurveto
          -112 -103 -83 -105 -118 103 -80 143 63 241 18 282 109 hvcurveto
          48 122 18 108 7 72 47 -127 87 -239 46 -139 rrcurveto
          -152 -47 -141 -99 -125 vvcurveto
          -77 50 -68 84 193 27 312 25 1 vhcurveto
          2 17 3 20 2 22 30 7 31 4 29 2 rrcurveto
          10 8 8 9 12 -10 8 -10 hvcurveto
          -27 -2 -28 -4 -28 -5 21 153 35 216 19 67 rrcurveto
          163 46 107 15 37 11 2 -25 callgsubr
          9 31 callsubr
          2 hvcurveto
          -532 -1028 rmoveto
          -52 -44 44 65 107 125 87 142 43 hvcurveto
          7 -19 5 -16 3 -12 rrcurveto
          -41 -5 -27 -258 -154 hhcurveto
          endchar
        </CharString>
        <CharString name="Eogonek">
          556 706 -34 rmoveto
          8 -6 7 -9 -12 callsubr
          -6 -4 vhcurveto
          -9 -4 -7 -13 -17 hhcurveto
          -13 -9 8 14 51 133 82 41 103 hvcurveto
          1 1 0 2 2 vvcurveto
          10 -8 8 -11 -8 -6 -4 -8 -54 callsubr
          -58 -161 -248 -39 vhcurveto
          -5 -26 -30 -2 -31 hhcurveto
          -144 -161 53 141 86 55 60 103 30 hvcurveto
          -27 46 67 -16 62 hhcurveto
          58 41 20 33 33 -41 17 -58 hvcurveto
          -31 -1 -69 -2 -70 -18 rrcurveto
          -39 28 -22 40 42 vvcurveto
          73 70 84 151 198 38 -119 -4 vhcurveto
          -8 3 7 -6 8 hhcurveto
          -53 callgsubr
          9 hvcurveto
          2 0 2 2 16 callsubr
          -42 144 -228 hhcurveto
          -149 -108 -81 -113 -45 18 -43 37 -34 hvcurveto
          -104 -38 -54 -71 -95 vvcurveto
          -162 177 -67 15 callsubr
          32 2 5 29 vhcurveto
          55 9 61 21 45 20 rrcurveto
          -21 -21 -13 -19 -22 vvcurveto
          -25 18 -26 39 34 24 27 21 vhcurveto
          -246 425 rmoveto
          -8 -19 -8 -41 -45 -46 8 13 -34 vhcurveto
          8 45 31 1 38 hhcurveto
          35 36 -4 -10 hvcurveto
          endchar
        </CharString>
        <CharString name="Eth">
          -90 callgsubr
        </CharString>
        <CharString name="Euro">
          262 259 304 -24 callgsubr
          -116 hlineto
          3 0 -77 callsubr
          0 9 1 8 vhcurveto
          145 2 rlineto
          25 callsubr
          11 -40 callsubr
          hvcurveto
          -132 -1 rlineto
          77 34 95 28 50 hhcurveto
          69 57 -30 -46 -41 -45 -37 -56 hvcurveto
          -30 -2 -37 33 hhcurveto
          76 61 54 62 67 -73 45 -89 -64 -66 -26 -45 -44 hvcurveto
          -18 -17 -17 -23 -11 -31 rrcurveto
          -48 hlineto
          -10 -8 -3 callsubr
          10 hvcurveto
          39 hlineto
          -1 -8 0 -9 -9 vvcurveto
          -12 -39 vlineto
          -10 -9 -8 -10 -11 9 -8 10 hvcurveto
          44 hlineto
          9 -35 19 -29 30 -22 rrcurveto
          -35 46 60 -9 43 hhcurveto
          76 85 44 62 38 hvcurveto
          2 -33 callgsubr
          -45 callgsubr
          -6 9 -12 -12 callsubr
          -6 -4 vhcurveto
          -42 -26 -66 -47 -74 hhcurveto
          -63 -81 23 72 -25 hvcurveto
          110 1 rlineto
          -42 callgsubr
          hvcurveto
          endchar
        </CharString>
        <CharString name="F">
          809 1119 723 rmoveto
          -96 -108 -43 -102 -36 hvcurveto
          31 -219 -257 80 -134 hhcurveto
          -152 -117 -68 -117 -64 43 -45 32 -22 -23 callsubr
          3 -1 4 hhcurveto
          9 9 7 11 6 -2 6 -6 4 hvcurveto
          -3 1 -55 38 61 vvcurveto
          94 100 54 132 140 244 -78 -31 213 vhcurveto
          -14 -50 -8 -60 -72 vvcurveto
          -5 -138 -102 -11 -1 hhcurveto
          -10 -2 -7 -7 -9 vvcurveto
          -13 10 -6 11 12 93 11 5 132 vhcurveto
          -8 0 -8 -8 vvcurveto
          -184 -107 -97 -203 -222 -65 127 56 -17 vhcurveto
          7 -2 -7 5 -8 35 callsubr
          -8 -10 -2 0 -2 1 -2 hvcurveto
          -63 20 74 -146 245 hhcurveto
          222 125 115 203 hvcurveto
          9 -1 9 9 vvcurveto
          26 26 1 27 36 37 -2 37 hhcurveto
          10 8 7 23 callsubr
          2 -37 -38 1 -36 -27 -26 -1 -25 hhcurveto
          1 71 7 58 15 46 rrcurveto
          -5 41 38 -2 36 hhcurveto
          124 87 47 70 58 -65 17 -45 hvcurveto
          72 -74 rmoveto
          -48 -74 -34 -100 -30 -34 2 4 -36 vhcurveto
          91 42 97 22 63 hhcurveto
          27 45 -6 -31 hvcurveto
          endchar
        </CharString>
        <CharString name="G">
          -103 callgsubr
          endchar
        </CharString>
        <CharString name="Gbreve">
          -103 callgsubr
          -103 805 -94 callgsubr
        </CharString>
        <CharString name="Gcircumflex">
          -103 callgsubr
          -159 827 rmoveto
          -107 callsubr
        </CharString>
        <CharString name="Gcommaaccent">
          -103 callgsubr
          -400 -153 -95 callsubr
        </CharString>
        <CharString name="Gdotaccent">
          -103 callgsubr
          -146 771 -87 callsubr
        </CharString>
        <CharString name="H">
          -92 callgsubr
          endchar
        </CharString>
        <CharString name="Hbar">
          911 742 708 rmoveto
          21 -17 15 -21 -33 -41 -36 -82 -23 vhcurveto
          -5 -16 -19 -1 -23 -117 -108 45 -114 hhcurveto
          -99 -111 -49 -115 -59 40 -40 29 -18 -23 callsubr
          -70 callsubr
          -28 callsubr
          7 -4 6 -5 4 hvcurveto
          -7 4 -46 27 55 vvcurveto
          86 76 40 97 vhcurveto
          117 107 -43 114 hhcurveto
          18 20 3 3 15 hvcurveto
          -5 -26 -4 -32 -2 -32 -1 -27 rcurveline
          -90 hlineto
          -58 callsubr
          -10 9 -7 10 hvcurveto
          16 32 1 39 hhcurveto
          -2 -31 -2 -31 -3 -30 rrcurveto
          -3 -66 -42 -2 -1 hhcurveto
          -11 -1 -6 -8 -11 vvcurveto
          -10 9 -7 10 1 40 2 3 62 vhcurveto
          -162 -22 -60 -129 -192 hhcurveto
          -102 -93 43 64 -40 hvcurveto
          5 22 callsubr
          -7 -9 -10 -3 -59 callgsubr
          hvcurveto
          -73 47 104 -51 115 hhcurveto
          218 70 150 181 24 hvcurveto
          4 106 150 6 145 hhcurveto
          -32 vlineto
          -226 61 -86 2 -4 vhcurveto
          -5 4 5 -3 6 hhcurveto
          -14 callgsubr
          4 -1 3 -2 4 hvcurveto
          -1 1 -55 79 214 11 0 17 callgsubr
          -1 72 28 -2 26 hhcurveto
          9 9 8 23 callsubr
          1 -40 -42 1 -43 hhcurveto
          2 31 2 27 4 24 rrcurveto
          1 29 30 0 27 hhcurveto
          11 0 callgsubr
          27 callgsubr
          hvcurveto
          -80 -1 rlineto
          156 29 64 15 24 23 0 -8 10 hhcurveto
          6 5 3 6 3 -31 callgsubr
          3 vvcurveto
          23 -36 4 -15 -75 -54 -74 -134 -24 vhcurveto
          -403 -2 rlineto
          1 8 0 9 8 vvcurveto
          1 41 5 33 6 28 rrcurveto
          49 19 54 44 45 vvcurveto
          274 -351 rmoveto
          -143 -148 -5 -4 -106 hvcurveto
          3 29 2 31 1 30 rrcurveto
          107 151 0 1 140 hvcurveto
          -3 -25 -2 -28 -2 -29 rrcurveto
          -315 352 rmoveto
          13 -25 -50 -20 -42 hvcurveto
          48 15 29 22 10 hhcurveto
          endchar
        </CharString>
        <CharString name="Hcircumflex">
          -92 callgsubr
          226 160 rmoveto
          -107 callsubr
        </CharString>
        <CharString name="I">
          362 -106 callgsubr
          endchar
        </CharString>
        <CharString name="IJ">
          927 -106 callgsubr
          511 -111 -92 callsubr
          endchar
        </CharString>
        <CharString name="Iacute">
          362 -106 callgsubr
          -29 67 rmoveto
          -4 -3 -1 -4 -5 -74 callgsubr
          30 callsubr
          -57 callsubr
          vhcurveto
          78 74 rlineto
          4 3 1 -84 callgsubr
          8 -8 -4 -4 -2 -3 -3 vhcurveto
          -78 -74 rlineto
          endchar
        </CharString>
        <CharString name="Ibreve">
          362 -106 callgsubr
          69 117 -94 callgsubr
        </CharString>
        <CharString name="Icircumflex">
          362 -106 callgsubr
          13 139 rmoveto
          -107 callsubr
        </CharString>
        <CharString name="Idieresis">
          362 -106 callgsubr
          71 83 -98 callsubr
        </CharString>
        <CharString name="Idotaccent">
          362 -106 callgsubr
          26 83 -87 callsubr
        </CharString>
        <CharString name="Igrave">
          362 -106 callgsubr
          31 67 -98 callgsubr
        </CharString>
        <CharString name="Imacron">
          362 -106 callgsubr
          78 87 -93 callsubr
        </CharString>
        <CharString name="Iogonek">
          362 322 -131 -34 callsubr
          24 callgsubr
          4 3 2 4 1 4 rrcurveto
          245 22 37 231 260 vvcurveto
          59 6 47 7 36 vhcurveto
          41 36 22 35 27 vvcurveto
          20 -13 16 -16 -24 -26 -37 -78 -18 vhcurveto
          -64 -54 -196 -28 -120 vvcurveto
          -90 79 -32 43 7 callgsubr
          5 -36 callsubr
          -53 callsubr
          3 callgsubr
          -11 3 hvcurveto
          -4 1 -91 13 81 vvcurveto
          88 136 31 78 42 vhcurveto
          -4 -33 -3 -42 -1 -41 rrcurveto
          -260 -2 -31 -221 -248 hhcurveto
          -89 -127 36 108 81 75 60 89 hvcurveto
          6 7 0 6 hhcurveto
          10 9 7 11 20 -21 -1 -17 -109 -92 -77 -101 -101 91 -77 155 -1 hvcurveto
          -17 -21 -23 -35 -35 vvcurveto
          -26 17 -39 callsubr
          endchar
        </CharString>
        <CharString name="Itilde">
          362 -106 callgsubr
          80 89 -104 callsubr
        </CharString>
        <CharString name="J">
          292 496 646 -92 callsubr
          endchar
        </CharString>
        <CharString name="Jcircumflex">
          292 496 646 -92 callsubr
          128 733 rmoveto
          -107 callsubr
        </CharString>
        <CharString name="K">
          -93 callgsubr
          endchar
        </CharString>
        <CharString name="Kcommaaccent">
          -93 callgsubr
          13 -756 -95 callsubr
        </CharString>
        <CharString name="L">
          -100 callsubr
          endchar
        </CharString>
        <CharString name="Lacute">
          -100 callsubr
          213 656 rmoveto
          -4 -3 -1 -4 -5 -74 callgsubr
          30 callsubr
          -57 callsubr
          vhcurveto
          78 74 rlineto
          4 3 1 -84 callgsubr
          8 -8 -4 -4 -2 -3 -3 vhcurveto
          -78 -74 rlineto
          endchar
        </CharString>
        <CharString name="Lcaron">
          -100 callsubr
          525 535 -88 callgsubr
        </CharString>
        <CharString name="Lcommaaccent">
          -100 callsubr
          151 -197 -95 callsubr
        </CharString>
        <CharString name="Ldot">
          -100 callsubr
          337 161 -71 callgsubr
        </CharString>
        <CharString name="Lslash">
          628 879 80 13 callsubr
          3 vvcurveto
          10 -8 9 -11 18 callsubr
          -16 callgsubr
          -48 -76 -104 hhcurveto
          -118 -90 72 52 -100 hvcurveto
          11 27 5 39 27 vvcurveto
          25 -1 22 -1 27 vhcurveto
          145 52 rlineto
          7 3 4 7 6 callgsubr
          -133 -46 rlineto
          15 0 17 20 vvcurveto
          168 56 111 122 65 58 -42 -65 -33 -14 -25 -19 -17 vhcurveto
          -4 -4 -5 -5 -8 vvcurveto
          -11 9 -5 9 32 29 61 47 86 -75 57 -86 -141 -73 -126 -186 -28 0 -22 1 -19 vhcurveto
          -116 -41 rlineto
          -7 -2 -5 11 callgsubr
          -10 9 -8 9 vhcurveto
          2 4 1 2 hhcurveto
          104 37 rlineto
          1 -16 0 -14 -17 vvcurveto
          -46 -4 -20 -8 -24 vhcurveto
          29 -59 -75 29 -74 hhcurveto
          -99 -76 -49 -79 -83 83 -27 71 75 108 22 107 64 hvcurveto
          -57 105 91 -71 128 hhcurveto
          123 57 91 4 3 hvcurveto
          -539 51 rmoveto
          -90 -49 -89 -21 -76 hhcurveto
          -63 -56 24 52 56 63 34 77 68 69 -27 -28 56 hvcurveto
          endchar
        </CharString>
        <CharString name="M">
          1056 1163 629 rmoveto
          -28 -89 -25 -119 -115 vvcurveto
          -146 35 -148 141 -20 vhcurveto
          -1 5 5 -1 5 hhcurveto
          -53 callgsubr
          9 9 -7 10 -10 hvcurveto
          -124 5 -32 143 129 vvcurveto
          28 2 27 2 25 vhcurveto
          13 162 73 174 1 2 rrcurveto
          1 3 0 2 2 vvcurveto
          10 -8 9 -10 -5 -5 -2 -4 -3 vhcurveto
          -3 -3 -72 -77 -103 -185 -72 -130 -71 -174 -35 -88 -26 115 -47 207 -27 120 rrcurveto
          12 49 6 42 31 vvcurveto
          57 -21 7 -13 -15 -21 -6 -58 -26 5 -40 10 -57 vhcurveto
          -12 -40 -13 -40 -13 -34 rrcurveto
          -338 -128 -129 -55 -148 hhcurveto
          -87 -132 55 124 83 76 59 91 101 36 -53 -1 1 hvcurveto
          -6 4 6 -3 6 -7 callsubr
          10 9 3 -1 4 -2 3 -22 callgsubr
          -46 70 -121 hhcurveto
          -111 -95 -73 -106 -150 153 -67 102 197 133 103 370 129 hvcurveto
          41 -177 58 -257 1 -2 rrcurveto
          -9 2 7 -6 8 hhcurveto
          8 7 5 7 3 hvcurveto
          1 3 96 263 100 178 39 70 35 59 28 41 rrcurveto
          endchar
        </CharString>
        <CharString name="N">
          -103 callsubr
          endchar
        </CharString>
        <CharString name="Nacute">
          -103 callsubr
          -385 31 rmoveto
          -4 -3 -1 -4 -5 -74 callgsubr
          30 callsubr
          -57 callsubr
          vhcurveto
          78 74 rlineto
          4 3 1 -84 callgsubr
          8 -8 -4 -4 -2 -3 -3 vhcurveto
          -78 -74 rlineto
          endchar
        </CharString>
        <CharString name="Ncaron">
          -103 callsubr
          -369 10 -102 callgsubr
        </CharString>
        <CharString name="Ncommaaccent">
          -103 callsubr
          -540 -800 -95 callsubr
        </CharString>
        <CharString name="Ntilde">
          -103 callsubr
          -276 53 -104 callsubr
        </CharString>
        <CharString name="O">
          732 408 rmoveto
          5 0 -22 callsubr
          207 -137 86 -124 -102 -89 -72 -117 -144 132 -73 138 50 46 12 19 42 vhcurveto
          -227 -28 -139 -99 -162 hhcurveto
          -26 -267 10 285 235 180 75 12 6 hvcurveto
          2 callgsubr
          7 7 vvcurveto
          11 -26 callsubr
          -2 -5 -1 -1 -2 vhcurveto
          -138 -69 -75 -125 -155 vvcurveto
          -233 172 -98 157 192 157 126 256 22 vhcurveto
          41 24 35 30 15 21 rrcurveto
          2 3 0 3 -71 callsubr
          10 -11 -4 -2 -1 -3 -2 vhcurveto
          -10 -13 -30 -28 -24 -13 rrcurveto
          -38 -23 rmoveto
          -22 -42 -48 -14 -53 hhcurveto
          -155 -79 86 94 98 68 55 84 108 119 -74 -185 -12 -1 -14 -1 -12 hvcurveto
          endchar
        </CharString>
        <CharString name="OE">
          1193 1436 208 rmoveto
          1 1 2 2 vvcurveto
          10 -9 -26 callgsubr
          -29 -2 -32 hhcurveto
          -144 -160 53 141 86 54 60 103 30 hvcurveto
          -27 46 68 -16 62 hhcurveto
          57 41 20 33 33 -40 17 -58 hvcurveto
          -32 -1 -68 -2 -70 -18 rrcurveto
          -39 28 -22 40 42 vvcurveto
          73 70 84 151 198 37 -119 -4 1 vhcurveto
          -8 3 6 -6 8 -7 callsubr
          9 9 2 0 2 -1 2 hvcurveto
          5 -1 -43 144 -227 hhcurveto
          -150 -107 -81 -113 -45 18 -43 37 -34 hvcurveto
          -39 -14 -32 -19 -25 -23 rrcurveto
          3 24 1 24 26 vvcurveto
          207 -137 86 -124 -102 -89 -72 -117 -144 132 -73 138 50 46 12 19 42 vhcurveto
          -227 -28 -139 -99 -162 hhcurveto
          -26 -267 10 285 235 180 75 12 6 hvcurveto
          2 callgsubr
          7 7 vvcurveto
          11 -26 callsubr
          -2 -5 -1 -1 -2 vhcurveto
          -138 -69 -75 -125 -155 vvcurveto
          -233 172 -98 157 135 112 65 116 65 vhcurveto
          -133 27 160 -55 150 hhcurveto
          33 31 2 5 30 hvcurveto
          269 42 63 177 3 8 rrcurveto
          -742 177 rmoveto
          -22 -42 -48 -14 -53 hhcurveto
          -155 -79 86 94 98 68 55 84 108 119 -74 -185 -12 -1 -14 -1 -12 hvcurveto
          403 6 rmoveto
          -8 -19 -8 -41 -45 -46 8 13 -34 vhcurveto
          8 45 30 1 39 hhcurveto
          35 36 -4 -10 hvcurveto
          endchar
        </CharString>
        <CharString name="Oacute">
          732 408 rmoveto
          5 0 -22 callsubr
          207 -137 86 -124 -102 -89 -72 -117 -144 132 -73 138 50 46 12 19 42 vhcurveto
          -227 -28 -139 -99 -162 hhcurveto
          -26 -267 10 285 235 180 75 12 6 hvcurveto
          2 callgsubr
          7 7 vvcurveto
          11 -26 callsubr
          -2 -5 -1 -1 -2 vhcurveto
          -138 -69 -75 -125 -155 vvcurveto
          -233 172 -98 157 192 157 126 256 22 vhcurveto
          41 24 35 30 15 21 rrcurveto
          2 3 0 3 -71 callsubr
          10 -11 -4 -2 -1 -3 -2 vhcurveto
          -10 -13 -30 -28 -24 -13 rrcurveto
          -38 -23 rmoveto
          -22 -42 -48 -14 -53 hhcurveto
          -155 -79 86 94 98 68 55 84 108 119 -74 -185 -12 -1 -14 -1 -12 hvcurveto
          -255 402 rmoveto
          -4 -3 -1 -4 -5 -74 callgsubr
          30 callsubr
          -57 callsubr
          vhcurveto
          78 74 rlineto
          4 3 1 -84 callgsubr
          8 -8 -4 -4 -2 -3 -3 vhcurveto
          -78 -74 rlineto
          endchar
        </CharString>
        <CharString name="Obreve">
          732 408 rmoveto
          5 0 -22 callsubr
          207 -137 86 -124 -102 -89 -72 -117 -144 132 -73 138 50 46 12 19 42 vhcurveto
          -227 -28 -139 -99 -162 hhcurveto
          -26 -267 10 285 235 180 75 12 6 hvcurveto
          2 callgsubr
          7 7 vvcurveto
          11 -26 callsubr
          -2 -5 -1 -1 -2 vhcurveto
          -138 -69 -75 -125 -155 vvcurveto
          -233 172 -98 157 192 157 126 256 22 vhcurveto
          41 24 35 30 15 21 rrcurveto
          2 3 0 3 -71 callsubr
          10 -11 -4 -2 -1 -3 -2 vhcurveto
          -10 -13 -30 -28 -24 -13 rrcurveto
          -38 -23 rmoveto
          -22 -42 -48 -14 -53 hhcurveto
          -155 -79 86 94 98 68 55 84 108 119 -74 -185 -12 -1 -14 -1 -12 hvcurveto
          -156 452 -94 callgsubr
        </CharString>
        <CharString name="Ocircumflex">
          732 408 rmoveto
          5 0 -22 callsubr
          207 -137 86 -124 -102 -89 -72 -117 -144 132 -73 138 50 46 12 19 42 vhcurveto
          -227 -28 -139 -99 -162 hhcurveto
          -26 -267 10 285 235 180 75 12 6 hvcurveto
          2 callgsubr
          7 7 vvcurveto
          11 -26 callsubr
          -2 -5 -1 -1 -2 vhcurveto
          -138 -69 -75 -125 -155 vvcurveto
          -233 172 -98 157 192 157 126 256 22 vhcurveto
          41 24 35 30 15 21 rrcurveto
          2 3 0 3 -71 callsubr
          10 -11 -4 -2 -1 -3 -2 vhcurveto
          -10 -13 -30 -28 -24 -13 rrcurveto
          -38 -23 rmoveto
          -22 -42 -48 -14 -53 hhcurveto
          -155 -79 86 94 98 68 55 84 108 119 -74 -185 -12 -1 -14 -1 -12 hvcurveto
          -212 474 rmoveto
          -107 callsubr
        </CharString>
        <CharString name="Odieresis">
          732 408 rmoveto
          5 0 -22 callsubr
          207 -137 86 -124 -102 -89 -72 -117 -144 132 -73 138 50 46 12 19 42 vhcurveto
          -227 -28 -139 -99 -162 hhcurveto
          -26 -267 10 285 235 180 75 12 6 hvcurveto
          2 callgsubr
          7 7 vvcurveto
          11 -26 callsubr
          -2 -5 -1 -1 -2 vhcurveto
          -138 -69 -75 -125 -155 vvcurveto
          -233 172 -98 157 192 157 126 256 22 vhcurveto
          41 24 35 30 15 21 rrcurveto
          2 3 0 3 -71 callsubr
          10 -11 -4 -2 -1 -3 -2 vhcurveto
          -10 -13 -30 -28 -24 -13 rrcurveto
          -38 -23 rmoveto
          -22 -42 -48 -14 -53 hhcurveto
          -155 -79 86 94 98 68 55 84 108 119 -74 -185 -12 -1 -14 -1 -12 hvcurveto
          -154 418 -98 callsubr
        </CharString>
        <CharString name="Ograve">
          732 408 rmoveto
          5 0 -22 callsubr
          207 -137 86 -124 -102 -89 -72 -117 -144 132 -73 138 50 46 12 19 42 vhcurveto
          -227 -28 -139 -99 -162 hhcurveto
          -26 -267 10 285 235 180 75 12 6 hvcurveto
          2 callgsubr
          7 7 vvcurveto
          11 -26 callsubr
          -2 -5 -1 -1 -2 vhcurveto
          -138 -69 -75 -125 -155 vvcurveto
          -233 172 -98 157 192 157 126 256 22 vhcurveto
          41 24 35 30 15 21 rrcurveto
          2 3 0 3 -71 callsubr
          10 -11 -4 -2 -1 -3 -2 vhcurveto
          -10 -13 -30 -28 -24 -13 rrcurveto
          -38 -23 rmoveto
          -22 -42 -48 -14 -53 hhcurveto
          -155 -79 86 94 98 68 55 84 108 119 -74 -185 -12 -1 -14 -1 -12 hvcurveto
          -194 402 -98 callgsubr
        </CharString>
        <CharString name="Ohungarumlaut">
          732 408 rmoveto
          5 0 -22 callsubr
          207 -137 86 -124 -102 -89 -72 -117 -144 132 -73 138 50 46 12 19 42 vhcurveto
          -227 -28 -139 -99 -162 hhcurveto
          -26 -267 10 285 235 180 75 12 6 hvcurveto
          2 callgsubr
          7 7 vvcurveto
          11 -26 callsubr
          -2 -5 -1 -1 -2 vhcurveto
          -138 -69 -75 -125 -155 vvcurveto
          -233 172 -98 157 192 157 126 256 22 vhcurveto
          41 24 35 30 15 21 rrcurveto
          2 3 0 3 -71 callsubr
          10 -11 -4 -2 -1 -3 -2 vhcurveto
          -10 -13 -30 -28 -24 -13 rrcurveto
          -38 -23 rmoveto
          -22 -42 -48 -14 -53 hhcurveto
          -155 -79 86 94 98 68 55 84 108 119 -74 -185 -12 -1 -14 -1 -12 hvcurveto
          -291 402 rmoveto
          -3 -3 -2 -4 -5 -74 callgsubr
          10 3 4 2 3 4 vhcurveto
          78 -8 callgsubr
          3 2 -84 callgsubr
          8 -8 -4 -4 -2 -3 -4 vhcurveto
          5 -74 rmoveto
          -3 -3 -2 -4 -5 -74 callgsubr
          10 3 4 2 3 4 vhcurveto
          78 -8 callgsubr
          3 2 -84 callgsubr
          8 -8 -4 -4 -2 -3 -4 vhcurveto
          endchar
        </CharString>
        <CharString name="Omacron">
          732 408 rmoveto
          5 0 -22 callsubr
          207 -137 86 -124 -102 -89 -72 -117 -144 132 -73 138 50 46 12 19 42 vhcurveto
          -227 -28 -139 -99 -162 hhcurveto
          -26 -267 10 285 235 180 75 12 6 hvcurveto
          2 callgsubr
          7 7 vvcurveto
          11 -26 callsubr
          -2 -5 -1 -1 -2 vhcurveto
          -138 -69 -75 -125 -155 vvcurveto
          -233 172 -98 157 192 157 126 256 22 vhcurveto
          41 24 35 30 15 21 rrcurveto
          2 3 0 3 -71 callsubr
          10 -11 -4 -2 -1 -3 -2 vhcurveto
          -10 -13 -30 -28 -24 -13 rrcurveto
          -38 -23 rmoveto
          -22 -42 -48 -14 -53 hhcurveto
          -155 -79 86 94 98 68 55 84 108 119 -74 -185 -12 -1 -14 -1 -12 hvcurveto
          -148 422 -93 callsubr
        </CharString>
        <CharString name="Oslash">
          732 408 rmoveto
          17 vlineto
          122 -47 80 -65 45 vhcurveto
          28 49 rlineto
          -55 callsubr
          -7 10 -11 -7 -5 -4 -6 -4 vhcurveto
          -28 -48 rlineto
          18 -37 -41 9 -39 hhcurveto
          -102 -89 -72 -117 -84 44 -59 65 -35 hvcurveto
          -175 -299 rlineto
          -74 36 -74 74 150 vvcurveto
          235 180 75 12 6 vhcurveto
          2 callgsubr
          7 7 vvcurveto
          11 -26 callsubr
          -2 -5 -1 -1 -2 vhcurveto
          -138 -69 -75 -125 -155 vvcurveto
          -151 72 -94 94 -48 vhcurveto
          -29 -49 rlineto
          -2 -3 0 -3 -3 vvcurveto
          -40 callsubr
          -16 callsubr
          4 6 4 vhcurveto
          31 52 rlineto
          -16 41 45 -7 43 hhcurveto
          192 157 126 256 22 hvcurveto
          41 24 35 30 15 21 rrcurveto
          2 3 0 3 -71 callsubr
          10 -11 -4 -2 -1 -3 -2 vhcurveto
          -10 -13 -30 -28 -24 -13 rrcurveto
          -182 -96 rmoveto
          50 46 12 19 42 hvcurveto
          -227 -28 -139 -99 -162 hhcurveto
          -10 -48 2 19 -53 hvcurveto
          174 297 rlineto
          -15 39 44 -8 45 hhcurveto
          144 73 rmoveto
          -22 -42 -48 -14 -53 hhcurveto
          -43 -36 6 12 -32 hvcurveto
          161 273 rlineto
          54 -40 41 -70 -107 vvcurveto
          -12 -1 -14 -1 -12 vhcurveto
          -377 144 rmoveto
          98 68 55 84 33 35 -7 -16 32 vhcurveto
          -162 -277 rlineto
          -60 34 -30 55 58 vvcurveto
          endchar
        </CharString>
        <CharString name="Oslashacute">
          732 408 rmoveto
          17 vlineto
          122 -47 80 -65 45 vhcurveto
          28 49 rlineto
          -55 callsubr
          -7 10 -11 -7 -5 -4 -6 -4 vhcurveto
          -28 -48 rlineto
          18 -37 -41 9 -39 hhcurveto
          -102 -89 -72 -117 -84 44 -59 65 -35 hvcurveto
          -175 -299 rlineto
          -74 36 -74 74 150 vvcurveto
          235 180 75 12 6 vhcurveto
          2 callgsubr
          7 7 vvcurveto
          11 -26 callsubr
          -2 -5 -1 -1 -2 vhcurveto
          -138 -69 -75 -125 -155 vvcurveto
          -151 72 -94 94 -48 vhcurveto
          -29 -49 rlineto
          -2 -3 0 -3 -3 vvcurveto
          -40 callsubr
          -16 callsubr
          4 6 4 vhcurveto
          31 52 rlineto
          -16 41 45 -7 43 hhcurveto
          192 157 126 256 22 hvcurveto
          41 24 35 30 15 21 rrcurveto
          2 3 0 3 -71 callsubr
          10 -11 -4 -2 -1 -3 -2 vhcurveto
          -10 -13 -30 -28 -24 -13 rrcurveto
          -182 -96 rmoveto
          50 46 12 19 42 hvcurveto
          -227 -28 -139 -99 -162 hhcurveto
          -10 -48 2 19 -53 hvcurveto
          174 297 rlineto
          -15 39 44 -8 45 hhcurveto
          144 73 rmoveto
          -22 -42 -48 -14 -53 hhcurveto
          -43 -36 6 12 -32 hvcurveto
          161 273 rlineto
          54 -40 41 -70 -107 vvcurveto
          -12 -1 -14 -1 -12 vhcurveto
          -377 144 rmoveto
          98 68 55 84 33 35 -7 -16 32 vhcurveto
          -162 -277 rlineto
          -60 34 -30 55 58 vvcurveto
          123 256 rmoveto
          -4 -3 -1 -4 -5 -74 callgsubr
          30 callsubr
          -57 callsubr
          vhcurveto
          78 74 rlineto
          4 3 1 -84 callgsubr
          8 -8 -4 -4 -2 -3 -3 vhcurveto
          -78 -74 rlineto
          endchar
        </CharString>
        <CharString name="Otilde">
          732 408 rmoveto
          5 0 -22 callsubr
          207 -137 86 -124 -102 -89 -72 -117 -144 132 -73 138 50 46 12 19 42 vhcurveto
          -227 -28 -139 -99 -162 hhcurveto
          -26 -267 10 285 235 180 75 12 6 hvcurveto
          2 callgsubr
          7 7 vvcurveto
          11 -26 callsubr
          -2 -5 -1 -1 -2 vhcurveto
          -138 -69 -75 -125 -155 vvcurveto
          -233 172 -98 157 192 157 126 256 22 vhcurveto
          41 24 35 30 15 21 rrcurveto
          2 3 0 3 -71 callsubr
          10 -11 -4 -2 -1 -3 -2 vhcurveto
          -10 -13 -30 -28 -24 -13 rrcurveto
          -38 -23 rmoveto
          -22 -42 -48 -14 -53 hhcurveto
          -155 -79 86 94 98 68 55 84 108 119 -74 -185 -12 -1 -14 -1 -12 hvcurveto
          -145 424 -104 callsubr
        </CharString>
        <CharString name="P">
          661 919 482 rmoveto
          161 -145 96 -207 -283 -235 -150 -182 -110 85 -68 98 108 60 57 2 2 vhcurveto
          4 4 -3 callgsubr
          -9 9 -9 -5 -5 -2 -4 9 callgsubr
          -2 -51 -46 -92 hhcurveto
          -76 -70 47 94 160 219 136 263 184 131 -80 -141 -138 -112 -77 -164 -10 -8 -9 -9 -13 10 -6 10 184 126 95 157 hvcurveto
          -290 116 rmoveto
          -2 -5 -1 -2 -2 hvcurveto
          -90 -61 -10 -103 -88 -21 0 -20 -21 vvcurveto
          -149 -34 -122 -153 -67 -53 30 57 -41 vhcurveto
          6 22 callsubr
          -8 -9 -9 -3 2 -4 1 -2 hvcurveto
          -66 41 73 -39 79 hhcurveto
          172 51 139 161 hvcurveto
          20 0 21 20 vvcurveto
          95 10 77 73 56 vhcurveto
          5 5 4 5 7 vvcurveto
          11 -40 callsubr
          vhcurveto
          endchar
        </CharString>
        <CharString name="Q">
          581 525 56 rmoveto
          77 -47 72 -55 70 -31 rrcurveto
          -20 45 44 -7 40 hhcurveto
          78 59 26 1 4 hvcurveto
          7 3 4 7 7 vvcurveto
          11 -40 callsubr
          -2 -3 0 -1 -2 vhcurveto
          0 -56 -24 -70 -36 -39 5 18 -39 vhcurveto
          -61 28 -64 47 -70 44 rrcurveto
          98 50 130 104 173 vvcurveto
          180 -152 146 -198 -197 -175 -151 -194 -73 27 -67 53 -54 vhcurveto
          -44 -11 -57 -26 -54 vvcurveto
          -32 21 -72 184 81 94 19 43 96 vhcurveto
          4 40 rmoveto
          -61 37 -68 35 -74 17 rrcurveto
          9 -39 -35 4 -29 -10 -8 -1 -9 hhcurveto
          -45 38 -44 61 89 vvcurveto
          171 157 136 178 177 136 -130 -159 -153 -107 -98 -119 -56 vhcurveto
          -42 -17 rmoveto
          -42 -97 -84 -8 -51 hhcurveto
          -134 -36 38 31 43 65 18 34 hvcurveto
          -35 45 38 -15 2 hhcurveto
          -2 4 5 -1 3 hhcurveto
          10 8 7 11 8 -5 5 -7 4 hvcurveto
          -5 2 -18 5 -19 13 92 -7 72 -25 78 -50 rrcurveto
          endchar
        </CharString>
        <CharString name="R">
          -104 callgsubr
          endchar
        </CharString>
        <CharString name="Racute">
          -104 callgsubr
          -132 481 rmoveto
          -4 -3 -1 -4 -5 -74 callgsubr
          30 callsubr
          -57 callsubr
          vhcurveto
          78 74 rlineto
          4 3 1 -84 callgsubr
          8 -8 -4 -4 -2 -3 -3 vhcurveto
          -78 -74 rlineto
          endchar
        </CharString>
        <CharString name="Rcaron">
          -104 callgsubr
          -115 460 -102 callgsubr
        </CharString>
        <CharString name="Rcommaaccent">
          -104 callgsubr
          -8 -392 -95 callsubr
        </CharString>
        <CharString name="S">
          -96 callgsubr
          endchar
        </CharString>
        <CharString name="Sacute">
          -96 callgsubr
          -416 288 rmoveto
          -4 -3 -1 -4 -5 -74 callgsubr
          30 callsubr
          -57 callsubr
          vhcurveto
          78 74 rlineto
          4 3 1 -84 callgsubr
          8 -8 -4 -4 -2 -3 -3 vhcurveto
          -78 -74 rlineto
          endchar
        </CharString>
        <CharString name="Scaron">
          -96 callgsubr
          -400 267 -102 callgsubr
        </CharString>
        <CharString name="Scedilla">
          548 536 -107 26 callsubr
          -30 vhcurveto
          6 19 1 2 1 3 1 3 rlinecurve
          160 3 127 60 110 vvcurveto
          59 -36 33 -74 19 vhcurveto
          -45 11 -59 7 -75 6 -75 6 rcurveline
          -156 14 -164 30 119 vvcurveto
          154 238 84 218 189 121 -55 -96 vhcurveto
          -9 -3 -10 -9 vvcurveto
          -10 8 -9 12 7 8 6 9 2 vhcurveto
          2 11 1 17 callgsubr
          35 -12 31 -23 27 vhcurveto
          45 -38 -85 49 -189 hhcurveto
          -228 -265 -90 -184 -120 116 -59 237 -20 hvcurveto
          75 -7 58 -4 66 -5 49 -13 rlinecurve
          48 -12 33 -20 -45 vvcurveto
          -77 -91 -58 -168 -169 -87 53 1 -1 vhcurveto
          2 -3 -4 1 -3 hhcurveto
          -9 -9 -8 -11 -6 2 -6 6 -3 hvcurveto
          4 -3 85 -52 165 -5 -12 -33 -27 callsubr
          -7 -24 -21 -17 -10 -19 hvcurveto
          -27 -9 17 -10 hhcurveto
          -8 -9 -5 -62 callgsubr
        </CharString>
        <CharString name="Scircumflex">
          -96 callgsubr
          -374 360 rmoveto
          -107 callsubr
        </CharString>
        <CharString name="T">
          -96 callsubr
          endchar
        </CharString>
        <CharString name="Tbar">
          604 1104 680 rmoveto
          18 callsubr
          -4 -4 hvcurveto
          -39 -31 -63 -29 -99 hhcurveto
          -26 -25 2 3 -24 hvcurveto
          23 24 20 12 1 1 rrcurveto
          6 3 3 6 6 -35 callsubr
          8 -9 34 callsubr
          -2 9 callgsubr
          -1 -34 -20 -33 -41 rrcurveto
          31 -185 -165 92 -155 hhcurveto
          -143 -108 -87 -132 -100 76 -73 99 154 51 149 4 14 callsubr
          1 2 vvcurveto
          10 -7 9 -25 callsubr
          vhcurveto
          -1 -45 -128 -127 -80 -59 58 79 109 90 74 124 136 173 -84 -35 175 vhcurveto
          -13 -22 -12 -26 -8 -31 -13 -50 -2 -57 -1 -57 -85 -1 rcurveline
          -11 -6 -8 -10 -10 -21 callgsubr
          hvcurveto
          56 1 -46 0 73 1 -1 -61 -3 -58 -15 -44 rrcurveto
          -83 -29 -56 -49 -96 hhcurveto
          -91 -61 34 73 -48 hvcurveto
          5 -3 -7 4 -6 hhcurveto
          -12 -7 -11 -9 -5 4 -7 7 callsubr
          -81 57 78 -37 94 hhcurveto
          116 71 68 87 30 hvcurveto
          18 56 4 61 1 60 rrcurveto
          1 21 27 0 34 hhcurveto
          10 -53 callsubr
          10 -9 6 -10 hvcurveto
          -80 -1 1 54 1 53 11 48 rlinecurve
          8 31 13 27 15 22 rrcurveto
          -6 34 34 -3 34 hhcurveto
          118 74 41 42 31 hvcurveto
          -4 callsubr
          9 -8 10 -10 vhcurveto
          endchar
        </CharString>
        <CharString name="Tcaron">
          -96 callsubr
          -267 47 -102 callgsubr
        </CharString>
        <CharString name="Tcommaaccent">
          -96 callsubr
          -298 -793 -95 callsubr
        </CharString>
        <CharString name="Thorn">
          661 915 389 rmoveto
          158 -140 96 -201 3 vhcurveto
          12 31 19 27 29 16 rrcurveto
          6 4 3 5 7 vvcurveto
          -33 callgsubr
          -2 3 vhcurveto
          6 -3 -6 3 -7 29 callsubr
          -2 -3 hvcurveto
          -3 -1 -51 -28 -28 -77 rrcurveto
          -270 -10 -220 -146 -176 vvcurveto
          -110 85 -68 99 107 60 57 2 2 vhcurveto
          4 4 2 5 4 vvcurveto
          10 -8 9 -10 -5 -5 -2 -3 9 callgsubr
          -2 -51 -47 -91 hhcurveto
          -77 -70 48 93 152 197 130 245 13 hvcurveto
          -3 -14 -2 -16 -1 -17 rrcurveto
          -3 -33 0 -78 -81 vvcurveto
          -294 -68 -60 -118 -5 vhcurveto
          -66 -3 -70 41 -25 48 rrcurveto
          6 -3 -6 3 -7 -14 callsubr
          -9 16 callgsubr
          2 -2 hvcurveto
          -60 32 80 -46 81 hhcurveto
          212 11 217 199 hvcurveto
          31 0 31 28 vvcurveto
          41 1 46 10 43 vhcurveto
          1 hlineto
          185 130 -80 -141 -138 -111 -77 -164 -11 -8 -8 -10 -12 10 -7 10 185 126 95 157 hvcurveto
          endchar
        </CharString>
        <CharString name="U">
          720 786 4 callsubr
          -9 -76 -6 -69 -42 vvcurveto
          -99 41 -60 74 101 52 147 21 7 vhcurveto
          2 1 2 2 vvcurveto
          -21 callgsubr
          -12 -7 -8 -5 -8 -2 vhcurveto
          -45 -15 -44 -99 -65 hhcurveto
          -47 -32 41 83 hvcurveto
          126 62 396 11 vvcurveto
          9 -8 9 -10 -33 callsubr
          -8 -2 vhcurveto
          -3 -45 -281 -84 -175 vhcurveto
          -160 -77 -71 -40 -56 hhcurveto
          -83 -28 56 82 hvcurveto
          116 60 145 122 vvcurveto
          112 -66 67 -109 -130 -115 -91 -126 -104 62 -41 52 -13 vhcurveto
          1 7 -36 callsubr
          9 7 11 8 -6 9 -10 1 hvcurveto
          -4 1 -85 11 111 vvcurveto
          105 97 76 112 89 48 -52 -91 vhcurveto
          -119 -60 -149 -115 vvcurveto
          -98 37 -75 111 104 106 111 234 76 vhcurveto
          endchar
        </CharString>
        <CharString name="Uacute">
          720 786 4 callsubr
          -9 -76 -6 -69 -42 vvcurveto
          -99 41 -60 74 101 52 147 21 7 vhcurveto
          2 1 2 2 vvcurveto
          -21 callgsubr
          -12 -7 -8 -5 -8 -2 vhcurveto
          -45 -15 -44 -99 -65 hhcurveto
          -47 -32 41 83 hvcurveto
          126 62 396 11 vvcurveto
          9 -8 9 -10 -33 callsubr
          -8 -2 vhcurveto
          -3 -45 -281 -84 -175 vhcurveto
          -160 -77 -71 -40 -56 hhcurveto
          -83 -28 56 82 hvcurveto
          116 60 145 122 vvcurveto
          112 -66 67 -109 -130 -115 -91 -126 -104 62 -41 52 -13 vhcurveto
          1 7 -36 callsubr
          9 7 11 8 -6 9 -10 1 hvcurveto
          -4 1 -85 11 111 vvcurveto
          105 97 76 112 89 48 -52 -91 vhcurveto
          -119 -60 -149 -115 vvcurveto
          -98 37 -75 111 104 106 111 234 76 vhcurveto
          -183 433 rmoveto
          -4 -3 -1 -4 -5 -74 callgsubr
          30 callsubr
          -57 callsubr
          vhcurveto
          78 74 rlineto
          4 3 1 -84 callgsubr
          8 -8 -4 -4 -2 -3 -3 vhcurveto
          -78 -74 rlineto
          endchar
        </CharString>
        <CharString name="Ubreve">
          720 786 4 callsubr
          -9 -76 -6 -69 -42 vvcurveto
          -99 41 -60 74 101 52 147 21 7 vhcurveto
          2 1 2 2 vvcurveto
          -21 callgsubr
          -12 -7 -8 -5 -8 -2 vhcurveto
          -45 -15 -44 -99 -65 hhcurveto
          -47 -32 41 83 hvcurveto
          126 62 396 11 vvcurveto
          9 -8 9 -10 -33 callsubr
          -8 -2 vhcurveto
          -3 -45 -281 -84 -175 vhcurveto
          -160 -77 -71 -40 -56 hhcurveto
          -83 -28 56 82 hvcurveto
          116 60 145 122 vvcurveto
          112 -66 67 -109 -130 -115 -91 -126 -104 62 -41 52 -13 vhcurveto
          1 7 -36 callsubr
          9 7 11 8 -6 9 -10 1 hvcurveto
          -4 1 -85 11 111 vvcurveto
          105 97 76 112 89 48 -52 -91 vhcurveto
          -119 -60 -149 -115 vvcurveto
          -98 37 -75 111 104 106 111 234 76 vhcurveto
          -85 483 -94 callgsubr
        </CharString>
        <CharString name="Ucircumflex">
          720 786 4 callsubr
          -9 -76 -6 -69 -42 vvcurveto
          -99 41 -60 74 101 52 147 21 7 vhcurveto
          2 1 2 2 vvcurveto
          -21 callgsubr
          -12 -7 -8 -5 -8 -2 vhcurveto
          -45 -15 -44 -99 -65 hhcurveto
          -47 -32 41 83 hvcurveto
          126 62 396 11 vvcurveto
          9 -8 9 -10 -33 callsubr
          -8 -2 vhcurveto
          -3 -45 -281 -84 -175 vhcurveto
          -160 -77 -71 -40 -56 hhcurveto
          -83 -28 56 82 hvcurveto
          116 60 145 122 vvcurveto
          112 -66 67 -109 -130 -115 -91 -126 -104 62 -41 52 -13 vhcurveto
          1 7 -36 callsubr
          9 7 11 8 -6 9 -10 1 hvcurveto
          -4 1 -85 11 111 vvcurveto
          105 97 76 112 89 48 -52 -91 vhcurveto
          -119 -60 -149 -115 vvcurveto
          -98 37 -75 111 104 106 111 234 76 vhcurveto
          -141 505 rmoveto
          -107 callsubr
        </CharString>
        <CharString name="Udieresis">
          720 786 4 callsubr
          -9 -76 -6 -69 -42 vvcurveto
          -99 41 -60 74 101 52 147 21 7 vhcurveto
          2 1 2 2 vvcurveto
          -21 callgsubr
          -12 -7 -8 -5 -8 -2 vhcurveto
          -45 -15 -44 -99 -65 hhcurveto
          -47 -32 41 83 hvcurveto
          126 62 396 11 vvcurveto
          9 -8 9 -10 -33 callsubr
          -8 -2 vhcurveto
          -3 -45 -281 -84 -175 vhcurveto
          -160 -77 -71 -40 -56 hhcurveto
          -83 -28 56 82 hvcurveto
          116 60 145 122 vvcurveto
          112 -66 67 -109 -130 -115 -91 -126 -104 62 -41 52 -13 vhcurveto
          1 7 -36 callsubr
          9 7 11 8 -6 9 -10 1 hvcurveto
          -4 1 -85 11 111 vvcurveto
          105 97 76 112 89 48 -52 -91 vhcurveto
          -119 -60 -149 -115 vvcurveto
          -98 37 -75 111 104 106 111 234 76 vhcurveto
          -83 449 -98 callsubr
        </CharString>
        <CharString name="Ugrave">
          720 786 4 callsubr
          -9 -76 -6 -69 -42 vvcurveto
          -99 41 -60 74 101 52 147 21 7 vhcurveto
          2 1 2 2 vvcurveto
          -21 callgsubr
          -12 -7 -8 -5 -8 -2 vhcurveto
          -45 -15 -44 -99 -65 hhcurveto
          -47 -32 41 83 hvcurveto
          126 62 396 11 vvcurveto
          9 -8 9 -10 -33 callsubr
          -8 -2 vhcurveto
          -3 -45 -281 -84 -175 vhcurveto
          -160 -77 -71 -40 -56 hhcurveto
          -83 -28 56 82 hvcurveto
          116 60 145 122 vvcurveto
          112 -66 67 -109 -130 -115 -91 -126 -104 62 -41 52 -13 vhcurveto
          1 7 -36 callsubr
          9 7 11 8 -6 9 -10 1 hvcurveto
          -4 1 -85 11 111 vvcurveto
          105 97 76 112 89 48 -52 -91 vhcurveto
          -119 -60 -149 -115 vvcurveto
          -98 37 -75 111 104 106 111 234 76 vhcurveto
          -122 433 -98 callgsubr
        </CharString>
        <CharString name="Uhungarumlaut">
          720 786 4 callsubr
          -9 -76 -6 -69 -42 vvcurveto
          -99 41 -60 74 101 52 147 21 7 vhcurveto
          2 1 2 2 vvcurveto
          -21 callgsubr
          -12 -7 -8 -5 -8 -2 vhcurveto
          -45 -15 -44 -99 -65 hhcurveto
          -47 -32 41 83 hvcurveto
          126 62 396 11 vvcurveto
          9 -8 9 -10 -33 callsubr
          -8 -2 vhcurveto
          -3 -45 -281 -84 -175 vhcurveto
          -160 -77 -71 -40 -56 hhcurveto
          -83 -28 56 82 hvcurveto
          116 60 145 122 vvcurveto
          112 -66 67 -109 -130 -115 -91 -126 -104 62 -41 52 -13 vhcurveto
          1 7 -36 callsubr
          9 7 11 8 -6 9 -10 1 hvcurveto
          -4 1 -85 11 111 vvcurveto
          105 97 76 112 89 48 -52 -91 vhcurveto
          -119 -60 -149 -115 vvcurveto
          -98 37 -75 111 104 106 111 234 76 vhcurveto
          -219 433 rmoveto
          -3 -3 -2 -4 -5 -74 callgsubr
          10 3 4 2 3 4 vhcurveto
          78 -8 callgsubr
          3 2 -84 callgsubr
          8 -8 -4 -4 -2 -3 -4 vhcurveto
          5 -74 rmoveto
          -3 -3 -2 -4 -5 -74 callgsubr
          10 3 4 2 3 4 vhcurveto
          78 -8 callgsubr
          3 2 -84 callgsubr
          8 -8 -4 -4 -2 -3 -4 vhcurveto
          endchar
        </CharString>
        <CharString name="Umacron">
          720 786 4 callsubr
          -9 -76 -6 -69 -42 vvcurveto
          -99 41 -60 74 101 52 147 21 7 vhcurveto
          2 1 2 2 vvcurveto
          -21 callgsubr
          -12 -7 -8 -5 -8 -2 vhcurveto
          -45 -15 -44 -99 -65 hhcurveto
          -47 -32 41 83 hvcurveto
          126 62 396 11 vvcurveto
          9 -8 9 -10 -33 callsubr
          -8 -2 vhcurveto
          -3 -45 -281 -84 -175 vhcurveto
          -160 -77 -71 -40 -56 hhcurveto
          -83 -28 56 82 hvcurveto
          116 60 145 122 vvcurveto
          112 -66 67 -109 -130 -115 -91 -126 -104 62 -41 52 -13 vhcurveto
          1 7 -36 callsubr
          9 7 11 8 -6 9 -10 1 hvcurveto
          -4 1 -85 11 111 vvcurveto
          105 97 76 112 89 48 -52 -91 vhcurveto
          -119 -60 -149 -115 vvcurveto
          -98 37 -75 111 104 106 111 234 76 vhcurveto
          -76 453 -93 callsubr
        </CharString>
        <CharString name="Uogonek">
          720 958 -117 rmoveto
          9 -6 7 -9 -12 callsubr
          -78 callgsubr
          -8 -5 -7 -13 -17 hhcurveto
          -13 -9 7 15 35 34 42 31 19 hvcurveto
          38 23 45 65 21 64 rrcurveto
          2 1 2 2 vvcurveto
          -21 callgsubr
          -12 -7 -8 -5 -8 -2 vhcurveto
          -45 -15 -44 -99 -65 hhcurveto
          -47 -32 41 83 hvcurveto
          126 62 396 11 vvcurveto
          9 -8 9 -10 -33 callsubr
          -8 -2 vhcurveto
          -3 -45 -281 -84 -175 vhcurveto
          -160 -77 -71 -40 -56 hhcurveto
          -83 -28 56 82 hvcurveto
          116 60 145 122 vvcurveto
          112 -66 67 -109 -130 -115 -91 -126 -104 62 -41 52 -13 vhcurveto
          1 7 -36 callsubr
          9 7 11 8 -6 9 -10 1 hvcurveto
          -4 1 -85 11 111 vvcurveto
          105 97 76 112 89 48 -52 -91 vhcurveto
          -119 -60 -149 -115 vvcurveto
          -98 37 -75 111 104 106 111 234 76 vhcurveto
          -9 -76 -6 -69 -42 vvcurveto
          -95 36 -60 75 -4 vhcurveto
          -26 -25 -12 -27 -28 vvcurveto
          -26 17 -29 39 35 23 28 20 vhcurveto
          endchar
        </CharString>
        <CharString name="Uring">
          720 786 4 callsubr
          -9 -76 -6 -69 -42 vvcurveto
          -99 41 -60 74 101 52 147 21 7 vhcurveto
          2 1 2 2 vvcurveto
          -21 callgsubr
          -12 -7 -8 -5 -8 -2 vhcurveto
          -45 -15 -44 -99 -65 hhcurveto
          -47 -32 41 83 hvcurveto
          126 62 396 11 vvcurveto
          9 -8 9 -10 -33 callsubr
          -8 -2 vhcurveto
          -3 -45 -281 -84 -175 vhcurveto
          -160 -77 -71 -40 -56 hhcurveto
          -83 -28 56 82 hvcurveto
          116 60 145 122 vvcurveto
          112 -66 67 -109 -130 -115 -91 -126 -104 62 -41 52 -13 vhcurveto
          1 7 -36 callsubr
          9 7 11 8 -6 9 -10 1 hvcurveto
          -4 1 -85 11 111 vvcurveto
          105 97 76 112 89 48 -52 -91 vhcurveto
          -119 -60 -149 -115 vvcurveto
          -98 37 -75 111 104 106 111 234 76 vhcurveto
          -84 470 -86 callsubr
        </CharString>
        <CharString name="Utilde">
          720 786 4 callsubr
          -9 -76 -6 -69 -42 vvcurveto
          -99 41 -60 74 101 52 147 21 7 vhcurveto
          2 1 2 2 vvcurveto
          -21 callgsubr
          -12 -7 -8 -5 -8 -2 vhcurveto
          -45 -15 -44 -99 -65 hhcurveto
          -47 -32 41 83 hvcurveto
          126 62 396 11 vvcurveto
          9 -8 9 -10 -33 callsubr
          -8 -2 vhcurveto
          -3 -45 -281 -84 -175 vhcurveto
          -160 -77 -71 -40 -56 hhcurveto
          -83 -28 56 82 hvcurveto
          116 60 145 122 vvcurveto
          112 -66 67 -109 -130 -115 -91 -126 -104 62 -41 52 -13 vhcurveto
          1 7 -36 callsubr
          9 7 11 8 -6 9 -10 1 hvcurveto
          -4 1 -85 11 111 vvcurveto
          105 97 76 112 89 48 -52 -91 vhcurveto
          -119 -60 -149 -115 vvcurveto
          -98 37 -75 111 104 106 111 234 76 vhcurveto
          -74 455 -104 callsubr
        </CharString>
        <CharString name="V">
          762 650 26 rmoveto
          4 49 2 49 44 vvcurveto
          321 -102 213 -236 -181 -98 -113 -112 -101 74 -68 98 80 52 43 2 2 vhcurveto
          5 3 2 5 6 vvcurveto
          27 callgsubr
          -3 -5 -1 -3 9 callgsubr
          -2 -43 -34 -65 hhcurveto
          -77 -59 50 83 94 84 96 160 215 85 -211 -285 -1 hvcurveto
          -57 -10 -113 -13 vvcurveto
          -10 6 -10 12 7 6 4 3 3 vhcurveto
          267 207 144 232 206 vvcurveto
          127 -65 94 -95 -15 -13 -4 -15 -11 9 -7 10 vhcurveto
          3 4 0 3 hhcurveto
          75 48 -81 -108 -184 -141 -227 -227 -178 hvcurveto
          endchar
        </CharString>
        <CharString name="W">
          -102 callsubr
          endchar
        </CharString>
        <CharString name="Wacute">
          -102 callsubr
          321 769 rmoveto
          -4 -3 -1 -4 -5 -74 callgsubr
          30 callsubr
          -57 callsubr
          vhcurveto
          78 74 rlineto
          4 3 1 -84 callgsubr
          8 -8 -4 -4 -2 -3 -3 vhcurveto
          -78 -74 rlineto
          endchar
        </CharString>
        <CharString name="Wcircumflex">
          -102 callsubr
          363 841 rmoveto
          -107 callsubr
        </CharString>
        <CharString name="Wdieresis">
          -102 callsubr
          421 785 -98 callsubr
        </CharString>
        <CharString name="Wgrave">
          -102 callsubr
          382 769 -98 callgsubr
        </CharString>
        <CharString name="X">
          709 964 4 rmoveto
          10 -8 8 -11 vhcurveto
          -156 11 -41 128 -70 161 134 134 116 136 90 131 rrcurveto
          -34 callgsubr
          -77 callsubr
          -7 9 -12 -5 -6 -3 -5 -4 vhcurveto
          -86 -126 -110 -131 -129 -129 rrcurveto
          205 -91 -43 157 -210 hhcurveto
          -136 -143 -111 -138 -91 64 -67 82 81 53 57 3 3 hvcurveto
          4 3 2 5 5 vvcurveto
          -50 callsubr
          -9 -5 -5 -2 -3 -4 vhcurveto
          -1 -1 -43 -48 -67 hhcurveto
          -62 -47 50 71 122 135 91 108 191 38 -158 -190 84 hvcurveto
          1 -2 0 -2 1 -2 -110 -109 -123 -107 -130 -102 -18 -13 0 0 -3 -4 rrcurveto
          -1 -3 -2 -4 -3 vvcurveto
          -10 9 -9 10 7 4 4 13 17 vhcurveto
          128 100 120 105 108 106 75 -175 46 -119 174 -14 rrcurveto
          11 -1 8 9 10 vvcurveto
          endchar
        </CharString>
        <CharString name="Y">
          -105 callgsubr
          endchar
        </CharString>
        <CharString name="Yacute">
          -105 callgsubr
          -178 766 rmoveto
          -4 -3 -1 -4 -5 -74 callgsubr
          30 callsubr
          -57 callsubr
          vhcurveto
          78 74 rlineto
          4 3 1 -84 callgsubr
          8 -8 -4 -4 -2 -3 -3 vhcurveto
          -78 -74 rlineto
          endchar
        </CharString>
        <CharString name="Ycircumflex">
          -105 callgsubr
          -135 838 rmoveto
          -107 callsubr
        </CharString>
        <CharString name="Ydieresis">
          -105 callgsubr
          -77 782 -98 callsubr
        </CharString>
        <CharString name="Ygrave">
          -105 callgsubr
          -117 766 -98 callgsubr
        </CharString>
        <CharString name="Z">
          638 910 628 rmoveto
          7 -3 -8 5 -7 -4 -4 0 -3 hhcurveto
          6 -218 -239 78 -139 hhcurveto
          -143 -113 -77 -118 -84 56 -73 114 51 51 17 33 42 hvcurveto
          5 3 2 -22 callsubr
          -50 callsubr
          -9 -4 -4 -2 -2 -4 vhcurveto
          -28 -35 -44 -15 -42 hhcurveto
          -88 -45 55 66 96 96 62 122 118 228 -68 -15 209 hvcurveto
          -114 -88 -349 -275 -122 -106 -53 -47 -30 -29 -21 -22 rrcurveto
          -10 -11 -4 -9 -10 vvcurveto
          -17 14 -8 16 9 25 5 3 19 vhcurveto
          9 65 122 17 156 hhcurveto
          88 101 -6 -19 116 hvcurveto
          2 -1 2 0 0 vvcurveto
          10 9 9 11 9 -41 callsubr
          1 hvcurveto
          19 -117 -104 7 -91 hhcurveto
          -194 -124 -24 -9 -60 hvcurveto
          68 78 398 315 253 194 rrcurveto
          5 3 3 6 6 2 -1 2 2 vvcurveto
          endchar
        </CharString>
        <CharString name="Zacute">
          638 910 628 rmoveto
          7 -3 -8 5 -7 -4 -4 0 -3 hhcurveto
          6 -218 -239 78 -139 hhcurveto
          -143 -113 -77 -118 -84 56 -73 114 51 51 17 33 42 hvcurveto
          5 3 2 -22 callsubr
          -50 callsubr
          -9 -4 -4 -2 -2 -4 vhcurveto
          -28 -35 -44 -15 -42 hhcurveto
          -88 -45 55 66 96 96 62 122 118 228 -68 -15 209 hvcurveto
          -114 -88 -349 -275 -122 -106 -53 -47 -30 -29 -21 -22 rrcurveto
          -10 -11 -4 -9 -10 vvcurveto
          -17 14 -8 16 9 25 5 3 19 vhcurveto
          9 65 122 17 156 hhcurveto
          88 101 -6 -19 116 hvcurveto
          2 -1 2 0 0 vvcurveto
          10 9 9 11 9 -41 callsubr
          1 hvcurveto
          19 -117 -104 7 -91 hhcurveto
          -194 -124 -24 -9 -60 hvcurveto
          68 78 398 315 253 194 rrcurveto
          5 3 3 6 6 2 -1 2 2 vvcurveto
          -376 139 rmoveto
          -4 -3 -1 -4 -5 -74 callgsubr
          30 callsubr
          -57 callsubr
          vhcurveto
          78 74 rlineto
          4 3 1 -84 callgsubr
          8 -8 -4 -4 -2 -3 -3 vhcurveto
          -78 -74 rlineto
          endchar
        </CharString>
        <CharString name="Zcaron">
          638 910 628 rmoveto
          7 -3 -8 5 -7 -4 -4 0 -3 hhcurveto
          6 -218 -239 78 -139 hhcurveto
          -143 -113 -77 -118 -84 56 -73 114 51 51 17 33 42 hvcurveto
          5 3 2 -22 callsubr
          -50 callsubr
          -9 -4 -4 -2 -2 -4 vhcurveto
          -28 -35 -44 -15 -42 hhcurveto
          -88 -45 55 66 96 96 62 122 118 228 -68 -15 209 hvcurveto
          -114 -88 -349 -275 -122 -106 -53 -47 -30 -29 -21 -22 rrcurveto
          -10 -11 -4 -9 -10 vvcurveto
          -17 14 -8 16 9 25 5 3 19 vhcurveto
          9 65 122 17 156 hhcurveto
          88 101 -6 -19 116 hvcurveto
          2 -1 2 0 0 vvcurveto
          10 9 9 11 9 -41 callsubr
          1 hvcurveto
          19 -117 -104 7 -91 hhcurveto
          -194 -124 -24 -9 -60 hvcurveto
          68 78 398 315 253 194 rrcurveto
          5 3 3 6 6 2 -1 2 2 vvcurveto
          -359 118 -102 callgsubr
        </CharString>
        <CharString name="Zdotaccent">
          638 910 628 rmoveto
          7 -3 -8 5 -7 -4 -4 0 -3 hhcurveto
          6 -218 -239 78 -139 hhcurveto
          -143 -113 -77 -118 -84 56 -73 114 51 51 17 33 42 hvcurveto
          5 3 2 -22 callsubr
          -50 callsubr
          -9 -4 -4 -2 -2 -4 vhcurveto
          -28 -35 -44 -15 -42 hhcurveto
          -88 -45 55 66 96 96 62 122 118 228 -68 -15 209 hvcurveto
          -114 -88 -349 -275 -122 -106 -53 -47 -30 -29 -21 -22 rrcurveto
          -10 -11 -4 -9 -10 vvcurveto
          -17 14 -8 16 9 25 5 3 19 vhcurveto
          9 65 122 17 156 hhcurveto
          88 101 -6 -19 116 hvcurveto
          2 -1 2 0 0 vvcurveto
          10 9 9 11 9 -41 callsubr
          1 hvcurveto
          19 -117 -104 7 -91 hhcurveto
          -194 -124 -24 -9 -60 hvcurveto
          68 78 398 315 253 194 rrcurveto
          5 3 3 6 6 2 -1 2 2 vvcurveto
          -320 155 -87 callsubr
        </CharString>
        <CharString name="a">
          -105 callsubr
          endchar
        </CharString>
        <CharString name="aacute">
          -105 callsubr
          -288 177 rmoveto
          -4 -3 -1 -4 -5 -74 callgsubr
          30 callsubr
          -57 callsubr
          vhcurveto
          78 74 rlineto
          4 3 1 -84 callgsubr
          8 -8 -4 -4 -2 -3 -3 vhcurveto
          -78 -74 rlineto
          endchar
        </CharString>
        <CharString name="abreve">
          -105 callsubr
          -189 227 -94 callgsubr
        </CharString>
        <CharString name="acircumflex">
          -105 callsubr
          -245 249 rmoveto
          -107 callsubr
        </CharString>
        <CharString name="acute">
          -29 72 313 rmoveto
          -4 -3 -1 -4 -5 -74 callgsubr
          30 callsubr
          -57 callsubr
          vhcurveto
          78 74 rlineto
          4 3 1 -84 callgsubr
          8 -8 -4 -4 -2 -3 -3 vhcurveto
          -78 -74 rlineto
          endchar
        </CharString>
        <CharString name="adieresis">
          -105 callsubr
          -187 193 -98 callsubr
        </CharString>
        <CharString name="ae">
          -85 callsubr
          endchar
        </CharString>
        <CharString name="aeacute">
          -85 callsubr
          -35 230 rmoveto
          -4 -3 -1 -4 -5 -74 callgsubr
          30 callsubr
          -57 callsubr
          vhcurveto
          78 74 rlineto
          4 3 1 -84 callgsubr
          8 -8 -4 -4 -2 -3 -3 vhcurveto
          -78 -74 rlineto
          endchar
        </CharString>
        <CharString name="agrave">
          -105 callsubr
          -227 177 -98 callgsubr
        </CharString>
        <CharString name="amacron">
          -105 callsubr
          -181 197 -93 callsubr
        </CharString>
        <CharString name="ampersand">
          270 641 226 rmoveto
          14 -11 6 -36 -50 -169 -14 -7 -57 vhcurveto
          -10 -1 -7 -8 -9 vvcurveto
          -12 10 -7 10 2 4 0 1 5 vhcurveto
          16 1 30 3 35 4 rrcurveto
          16 callgsubr
          -2 vvcurveto
          -107 -110 -51 -104 -74 -60 35 75 111 153 8 34 12 -11 callgsubr
          16 -15 2 -18 4 vhcurveto
          -48 9 -34 14 47 vvcurveto
          72 87 31 58 58 27 -26 -25 -20 -14 -22 -29 -21 -7 10 7 -6 vhcurveto
          5 -4 -4 4 -7 hhcurveto
          -10 -8 -8 -10 -13 24 -29 41 47 35 35 44 51 -53 34 -70 -81 -100 -47 -99 -41 30 -28 24 -10 hvcurveto
          -82 -18 -63 -51 -75 vvcurveto
          -92 77 -53 94 131 119 71 126 3 0 2 -1 3 vhcurveto
          5 57 59 4 20 19 8 -1 10 hhcurveto
          12 7 8 10 hvcurveto
          endchar
        </CharString>
        <CharString name="aogonek">
          71 280 -95 -34 callsubr
          32 38 44 5 5 hvcurveto
          2 -33 callgsubr
          hhcurveto
          80 58 128 16 8 hvcurveto
          1 3 0 2 2 vvcurveto
          9 -7 10 -11 -81 callsubr
          -38 -17 -47 -85 -47 hhcurveto
          -47 -3 76 25 -2 hvcurveto
          17 callsubr
          -9 -10 -70 callgsubr
          -67 -9 -41 -31 -24 hhcurveto
          -32 -10 29 24 80 56 36 41 27 16 -14 -2 2 hvcurveto
          -4 4 -70 callsubr
          9 9 10 5 -2 4 -4 4 -22 callgsubr
          -27 26 -41 33 callgsubr
          30 33 23 37 22 hvcurveto
          7 -21 11 -17 16 -12 rrcurveto
          -16 -19 -26 -38 -37 vvcurveto
          -26 17 -39 callsubr
          endchar
        </CharString>
        <CharString name="approxequal">
          93 292 295 rmoveto
          -10 -8 -8 -10 hvcurveto
          -14 21 -11 -19 vvcurveto
          -17 -7 -30 -33 vhcurveto
          -55 0 107 -84 hhcurveto
          -43 -39 -40 -60 -29 5 -10 15 11 8 9 9 hvcurveto
          4 -2 8 10 vvcurveto
          50 31 13 14 vhcurveto
          56 -2 -108 79 hhcurveto
          52 31 42 43 21 -18 40 -22 hvcurveto
          176 vmoveto
          -75 callsubr
        </CharString>
        <CharString name="aring">
          -105 callsubr
          -188 214 -86 callsubr
        </CharString>
        <CharString name="asciicircum">
          33 167 696 rmoveto
          4 -3 -5 3 -5 hhcurveto
          -5 -5 -3 -4 -3 hvcurveto
          -89 -123 rlineto
          -2 -83 callsubr
          7 -8 9 5 5 3 4 3 vhcurveto
          75 105 75 -105 rlineto
          -5 3 -70 callsubr
          7 8 8 3 -1 4 -2 -15 callsubr
        </CharString>
        <CharString name="asciitilde">
          93 292 388 rmoveto
          -75 callsubr
        </CharString>
        <CharString name="asterisk">
          7 160 684 rmoveto
          10 -8 9 -11 -10 -7 -8 -60 callsubr
          -3 -64 -54 30 rlineto
          1 -3 16 callgsubr
          hhcurveto
          -10 callgsubr
          -11 -7 3 -6 6 -3 hvcurveto
          59 -33 -49 -50 rlineto
          -3 -4 -2 -4 -5 2 callsubr
          -10 11 5 5 2 4 3 vhcurveto
          50 52 45 -56 rlineto
          -5 4 -62 callsubr
          11 8 8 11 3 -2 -21 callsubr
          hvcurveto
          -42 54 63 25 rlineto
          2 callgsubr
          6 8 18 callgsubr
          7 -9 -3 -2 0 -1 -2 vhcurveto
          -60 -23 rlineto
          endchar
        </CharString>
        <CharString name="at">
          406 630 246 rmoveto
          120 -101 93 -145 -169 -117 -125 -167 -146 124 -87 124 37 39 4 20 9 -6 7 -11 vhcurveto
          -6 -18 -5 -39 hhcurveto
          -116 -92 89 109 144 98 113 152 132 76 -88 -90 -103 -47 -38 -37 -53 -5 79 26 -1 hvcurveto
          10 -2 -7 8 -10 hhcurveto
          -9 -7 -7 -10 -1 hvcurveto
          -67 -10 -31 -35 -37 hhcurveto
          -23 -20 21 34 85 63 36 37 hvcurveto
          44 1 -24 16 hhcurveto
          10 9 10 9 7 -4 5 -4 3 hvcurveto
          6 -7 -26 20 -35 hhcurveto
          -63 -78 -54 -104 -50 30 -38 50 29 34 19 43 26 hvcurveto
          -42 13 29 -23 40 hhcurveto
          81 43 81 93 hvcurveto
          endchar
        </CharString>
        <CharString name="atilde">
          -105 callsubr
          -178 199 -104 callsubr
        </CharString>
        <CharString name="b">
          105 430 -64 callgsubr
          -8 9 -10 -55 callgsubr
          -17 -38 -54 -30 hhcurveto
          -37 -18 27 10 -5 hvcurveto
          1 8 0 8 8 vvcurveto
          56 -26 58 -56 -32 -29 -27 -38 -23 16 -36 26 25 callsubr
          3 callgsubr
          -5 3 vhcurveto
          -11 8 -4 9 9 vvcurveto
          4 1 23 24 31 14 -40 -37 -54 -35 -55 -45 -44 -23 57 64 -8 vhcurveto
          58 127 66 162 140 vvcurveto
          88 -27 59 -48 -44 -57 -45 -304 -158 6 -227 119 43 41 33 45 21 vhcurveto
          -15 15 23 -15 34 hhcurveto
          63 50 99 10 5 hvcurveto
          -377 63 rmoveto
          -3 30 -3 68 59 vvcurveto
          270 47 50 15 32 7 -63 -47 -123 -51 -134 -44 -110 vhcurveto
          endchar
        </CharString>
        <CharString name="backslash">
          215 61 692 rmoveto
          6 -4 -6 4 -7 hhcurveto
          -10 -8 -10 -9 -48 callsubr
          399 -683 rlineto
          -6 3 6 -4 7 31 callgsubr
          10 9 -9 callgsubr
          -2 -15 callsubr
        </CharString>
        <CharString name="bar">
          -29 142 -66 rmoveto
          1 1 73 88 vvcurveto
          74 -1 83 -1 60 vhcurveto
          -2 131 -10 270 3 18 callgsubr
          6 -10 -10 -8 -8 -11 -2 10 -270 2 -131 vhcurveto
          1 -65 1 -95 -77 -78 -1 -62 -1 vvcurveto
          -11 9 -7 10 -42 callgsubr
          vhcurveto
          endchar
        </CharString>
        <CharString name="braceleft">
          135 383 732 rmoveto
          -74 callsubr
          -4 4 vhcurveto
          1 -2 -26 21 -42 hhcurveto
          -47 -89 -42 -125 hvcurveto
          -96 25 -59 -33 vvcurveto
          -37 -37 -21 -31 vhcurveto
          -16 -2 2 -4 hhcurveto
          -10 callgsubr
          -11 -8 5 -7 8 -3 hvcurveto
          2 87 -27 -67 hvcurveto
          -65 -39 -114 -60 vvcurveto
          -48 29 -25 36 23 36 15 24 -21 callgsubr
          -11 vhcurveto
          -15 -4 -20 -21 hhcurveto
          -9 -20 2 33 hvcurveto
          66 39 108 68 vvcurveto
          46 -28 32 -28 20 vhcurveto
          26 9 36 29 49 37 -25 65 84 vvcurveto
          99 65 32 35 27 13 -10 -4 6 vhcurveto
          -2 3 3 -2 5 hhcurveto
          11 0 callgsubr
          hvcurveto
          endchar
        </CharString>
        <CharString name="braceright">
          135 24 -49 rmoveto
          -5 2 -6 5 -54 callsubr
          1 27 -21 42 hhcurveto
          46 89 42 125 hvcurveto
          95 -25 59 34 vvcurveto
          36 38 22 31 vhcurveto
          16 2 -3 4 hhcurveto
          10 8 8 11 8 -5 7 -8 2 hvcurveto
          -2 -88 28 67 hvcurveto
          65 39 113 61 vvcurveto
          47 -28 26 -37 -22 -37 -16 -23 -9 8 -10 11 vhcurveto
          15 3 21 22 hhcurveto
          9 19 -2 -34 hvcurveto
          -66 -38 -107 -69 vvcurveto
          -46 28 -31 27 -20 vhcurveto
          -26 -10 -35 -29 -48 -37 25 -65 -84 vvcurveto
          -100 -66 -31 -34 -28 -12 9 4 -6 vhcurveto
          3 -3 -3 2 -6 hhcurveto
          -11 -7 -10 -9 hvcurveto
          endchar
        </CharString>
        <CharString name="bracketleft">
          71 319 789 rmoveto
          7 -3 -7 5 -8 hhcurveto
          -9 -20 -12 -3 -44 hvcurveto
          -4 -41 -46 0 -1 hhcurveto
          -10 -8 -8 -10 -2 -5 -178 -9 -243 hvcurveto
          -9 -243 -1 -202 -1 vvcurveto
          -12 -50 callgsubr
          15 20 12 6 35 vhcurveto
          2 12 11 1 8 6 6 -1 2 hhcurveto
          10 9 8 11 15 -11 4 -23 -21 -31 -6 -9 -29 hvcurveto
          1 102 20 653 2 71 18 1 28 0 26 3 44 3 19 6 15 7 rrcurveto
          7 4 5 6 8 2 -1 2 2 vvcurveto
          endchar
        </CharString>
        <CharString name="bracketright">
          71 25 -113 rmoveto
          -8 3 8 -4 7 hhcurveto
          9 20 12 3 45 hvcurveto
          40 4 47 0 0 vvcurveto
          -42 callgsubr
          hvcurveto
          1 2 5 178 8 243 rrcurveto
          10 243 1 201 2 vvcurveto
          12 -40 callsubr
          -13 -22 -12 -6 -35 vhcurveto
          -2 -12 -11 -1 -8 -6 -6 0 -2 hhcurveto
          -10 -8 -8 -10 -15 10 -4 23 21 31 6 8 29 hvcurveto
          -1 -102 -20 -652 -2 -71 -18 -1 -28 0 -26 -3 -44 -3 -19 -7 -15 -6 rrcurveto
          -7 -4 -5 -6 -8 -2 1 -2 -2 vvcurveto
          endchar
        </CharString>
        <CharString name="breve">
          -29 192 363 -94 callgsubr
        </CharString>
        <CharString name="brokenbar">
          -29 141 -66 rmoveto
          1 0 52 68 68 -1 84 64 vvcurveto
          -50 callsubr
          -9 -23 callgsubr
          -27 callgsubr
          444 vmoveto
          1 0 53 68 67 -1 84 64 18 callgsubr
          7 -1 callsubr
          -8 -11 -27 callgsubr
          endchar
        </CharString>
        <CharString name="bullet">
          -29 184 4 callsubr
          34 -28 27 -34 -34 -28 -27 -34 -33 28 -28 34 34 28 28 33 vhcurveto
          endchar
        </CharString>
        <CharString name="c">
          -91 callsubr
          endchar
        </CharString>
        <CharString name="cacute">
          -91 callsubr
          -242 193 rmoveto
          -4 -3 -1 -4 -5 -74 callgsubr
          30 callsubr
          -57 callsubr
          vhcurveto
          78 74 rlineto
          4 3 1 -84 callgsubr
          8 -8 -4 -4 -2 -3 -3 vhcurveto
          -78 -74 rlineto
          endchar
        </CharString>
        <CharString name="caron">
          -29 108 292 -102 callgsubr
        </CharString>
        <CharString name="ccaron">
          -91 callsubr
          -226 172 -102 callgsubr
        </CharString>
        <CharString name="ccedilla">
          13 209 -112 26 callsubr
          -31 vhcurveto
          7 19 1 2 1 4 1 3 rlinecurve
          113 13 59 124 10 21 rrcurveto
          -55 callsubr
          -8 9 -11 -7 -7 -4 -6 -2 vhcurveto
          -11 -5 -58 -129 -106 hhcurveto
          -54 -26 48 53 56 32 47 37 19 14 -13 -14 hvcurveto
          -20 -11 -2 -11 vvcurveto
          -61 callsubr
          11 14 15 23 28 30 -28 34 -42 -58 -47 -63 -78 -74 37 -55 65 -6 vhcurveto
          -13 -34 -52 callgsubr
          18 -10 hhcurveto
          -9 -8 -6 -62 callgsubr
        </CharString>
        <CharString name="ccircumflex">
          -91 callsubr
          -200 265 rmoveto
          -107 callsubr
        </CharString>
        <CharString name="cdotaccent">
          -91 callsubr
          -187 209 -87 callsubr
        </CharString>
        <CharString name="cedilla">
          -29 188 -107 26 callsubr
          -31 vhcurveto
          7 19 rlineto
          1 3 3 7 12 callsubr
          -6 7 -9 -9 -5 -84 callsubr
          -16 -43 -52 callgsubr
          17 -10 hhcurveto
          -9 -8 -5 -62 callgsubr
        </CharString>
        <CharString name="cent">
          195 271 673 rmoveto
          11 -8 8 -10 vhcurveto
          -10 1 -9 -8 -10 vvcurveto
          -6 -146 -106 -13 -93 -82 1 -108 rlinecurve
          -111 85 -56 95 -10 vhcurveto
          -5 -134 -1 -11 8 -8 10 -1 rlinecurve
          1 hlineto
          -42 callgsubr
          1 hvcurveto
          5 134 75 2 81 44 38 61 rlinecurve
          2 3 0 3 -71 callsubr
          10 -11 -6 -31 callsubr
          -43 -27 -68 -45 -74 hhcurveto
          -74 -101 32 109 127 132 42 62 68 57 -30 -46 -40 -44 -38 -56 -24 -36 6 34 20 11 8 5 6 hvcurveto
          4 3 2 5 6 vvcurveto
          -50 callsubr
          -9 -4 -5 -1 -3 9 callgsubr
          -2 -27 -23 -37 vvcurveto
          -44 35 -33 62 74 63 52 64 65 -70 45 -87 2 vhcurveto
          endchar
        </CharString>
        <CharString name="circumflex">
          -29 136 385 rmoveto
          -107 callsubr
        </CharString>
        <CharString name="colon">
          -44 141 14 rmoveto
          -20 callgsubr
          195 vmoveto
          15 -12 11 -15 -14 -12 -11 -15 35 callgsubr
          14 15 12 12 14 vhcurveto
          endchar
        </CharString>
        <CharString name="comma">
          -93 105 18 rmoveto
          11 -1 -8 7 -10 hhcurveto
          -58 callsubr
          -42 -13 -33 -25 -25 hvcurveto
          -4 -4 -2 -5 -5 vvcurveto
          -10 10 -8 9 -4 callgsubr
        </CharString>
        <CharString name="commaaccent">
          -29 162 -66 -95 callsubr
        </CharString>
        <CharString name="copyright">
          507 741 410 rmoveto
          161 -120 120 -162 -211 -209 -198 -223 -160 122 -120 160 223 197 201 219 vhcurveto
          -420 -383 rmoveto
          -145 -100 104 141 203 194 180 189 143 102 -103 -141 -200 -183 -184 -200 hvcurveto
          -44 247 rmoveto
          81 95 103 80 29 1 -18 -11 -10 -5 -10 -6 -11 vhcurveto
          -5 -9 -6 -10 -6 vvcurveto
          -61 callsubr
          -43 callsubr
          7 4 vhcurveto
          4 8 20 32 32 vvcurveto
          38 -32 19 -36 -102 -108 -124 -97 -70 52 -41 61 52 49 29 5 9 vhcurveto
          7 4 4 7 6 -35 callsubr
          7 -8 -5 -5 -3 -5 -10 vhcurveto
          -10 -23 -34 -15 -32 hhcurveto
          -42 -29 31 45 hvcurveto
          endchar
        </CharString>
        <CharString name="currency">
          -15 222 262 rmoveto
          -51 callgsubr
          4 3 16 callsubr
          4 -4 4 vhcurveto
          -31 27 rlineto
          5 9 3 10 11 vvcurveto
          9 -2 9 -4 8 vhcurveto
          36 27 rlineto
          4 3 2 5 5 vvcurveto
          3 -1 4 -2 2 vhcurveto
          4 -3 -5 3 -5 hhcurveto
          -3 -4 -2 -2 -2 hvcurveto
          -36 -27 rlineto
          9 -11 -15 6 -16 hhcurveto
          -14 -13 -5 -7 -11 hvcurveto
          -33 28 rlineto
          3 -3 -4 1 -3 hhcurveto
          -8 -8 -7 -9 -5 1 -4 4 -3 hvcurveto
          33 -29 rlineto
          -4 -9 -3 -9 -11 vvcurveto
          -9 2 -9 4 -8 vhcurveto
          -39 -28 rlineto
          -4 -4 -3 -5 -5 vvcurveto
          11 callsubr
          9 -51 callgsubr
          3 3 vhcurveto
          39 29 rlineto
          -9 12 14 -6 15 hhcurveto
          14 13 5 7 10 hvcurveto
          32 -28 rlineto
          -2 3 -21 callsubr
          hhcurveto
          4 5 2 4 3 hvcurveto
          -57 80 rmoveto
          -8 -3 -7 -5 -6 vhcurveto
          -3 -3 rlineto
          -6 -6 -8 -3 -10 3 callsubr
          4 7 -6 hvcurveto
          0 -1 1 1 0 -1 0 1 vvcurveto
          -4 5 -2 7 7 vvcurveto
          8 2 7 5 5 vhcurveto
          1 0 0 0 vhcurveto
          1 0 0 1 vhcurveto
          8 6 9 4 10 hhcurveto
          10 9 -4 -7 7 hvcurveto
          1 -2 1 -2 1 -1 rrcurveto
          4 -5 2 -6 -7 vvcurveto
          endchar
        </CharString>
        <CharString name="d">
          92 208 142 rmoveto
          35 85 59 157 151 vvcurveto
          70 -17 49 -43 -73 -22 -161 -122 -92 11 -76 11 -57 vhcurveto
          -98 -38 -25 -16 -21 hhcurveto
          -25 -14 19 32 80 55 33 39 5 hvcurveto
          10 1 6 8 9 -76 callgsubr
          -59 -69 -63 -90 -65 36 -24 39 37 31 28 67 31 vhcurveto
          -69 23 30 -29 44 hhcurveto
          70 52 112 33 14 hvcurveto
          1 2 1 2 3 vvcurveto
          9 -8 9 -11 -7 -7 -4 -8 -3 vhcurveto
          -42 -18 -41 -79 -47 hhcurveto
          -29 -24 38 75 -16 hvcurveto
          57 394 rmoveto
          -113 -32 -114 -38 -100 vhcurveto
          -6 44 -5 61 58 vvcurveto
          120 26 126 32 20 3 -50 -32 vhcurveto
          endchar
        </CharString>
        <CharString name="dagger">
          22 callgsubr
          94 -6 191 -4 152 vhcurveto
          -67 callsubr
          -31 -35 4 -6 -19 callsubr
          4 -147 5 -181 -89 -87 -1 -73 -2 vvcurveto
          -10 8 -8 11 -42 callgsubr
          vhcurveto
          endchar
        </CharString>
        <CharString name="daggerdbl">
          22 callgsubr
          14 vlineto
          40 2 37 11 2 1 rrcurveto
          8 2 5 7 9 vvcurveto
          -50 callsubr
          -9 -4 -33 -8 -4 -38 vhcurveto
          -1 103 -4 154 -4 128 rrcurveto
          -67 callsubr
          -30 -35 4 -7 -19 callsubr
          3 -132 5 -160 1 -96 rrcurveto
          -27 -36 3 -4 hhcurveto
          -10 -8 34 callgsubr
          31 -2 -1 36 hvcurveto
          -84 -1 -69 -2 vvcurveto
          -10 8 -8 11 -42 callgsubr
          vhcurveto
          endchar
        </CharString>
        <CharString name="dcaron">
          161 208 142 rmoveto
          35 85 59 157 151 vvcurveto
          70 -17 49 -43 -73 -22 -161 -122 -92 11 -76 11 -57 vhcurveto
          -98 -38 -25 -16 -21 hhcurveto
          -25 -14 19 32 80 55 33 39 5 hvcurveto
          10 1 6 8 9 -76 callgsubr
          -59 -69 -63 -90 -65 36 -24 39 37 31 28 67 31 vhcurveto
          -69 23 30 -29 44 hhcurveto
          70 52 112 33 14 hvcurveto
          1 2 1 2 3 vvcurveto
          9 -8 9 -11 -7 -7 -4 -8 -3 vhcurveto
          -42 -18 -41 -79 -47 hhcurveto
          -29 -24 38 75 -16 hvcurveto
          57 394 rmoveto
          -113 -32 -114 -38 -100 vhcurveto
          -6 44 -5 61 58 vvcurveto
          120 26 126 32 20 3 -50 -32 vhcurveto
          148 130 -88 callgsubr
        </CharString>
        <CharString name="dcroat">
          92 387 448 rmoveto
          10 -1 -9 6 -10 hhcurveto
          -69 -1 rlineto
          2 24 2 24 24 vvcurveto
          70 -17 49 -43 -55 -26 -93 -99 -10 vhcurveto
          -87 -1 rlineto
          -48 callgsubr
          35 17 0 32 hhcurveto
          -1 -19 -1 -19 -18 vvcurveto
          -92 11 -76 11 -57 vhcurveto
          -98 -38 -25 -16 -21 hhcurveto
          -25 -14 19 32 80 55 33 39 5 hvcurveto
          10 1 6 8 9 -76 callgsubr
          -59 -69 -63 -90 -65 36 -24 39 37 31 28 67 31 vhcurveto
          -69 23 30 -29 44 hhcurveto
          70 52 112 33 14 hvcurveto
          1 2 1 2 3 vvcurveto
          9 -8 9 -11 -7 -7 -4 -8 -3 vhcurveto
          -42 -18 -41 -79 -47 hhcurveto
          -29 -24 38 75 -16 hvcurveto
          26 65 41 107 18 115 rrcurveto
          22 25 0 29 hhcurveto
          11 -53 callsubr
          hvcurveto
          -192 -239 rmoveto
          -6 44 -5 61 58 vvcurveto
          18 1 19 1 19 vhcurveto
          18 23 0 29 hhcurveto
          -12 -76 -23 -75 -26 -68 rrcurveto
          70 327 rmoveto
          -25 -1 -24 -3 -24 vhcurveto
          -73 -1 rlineto
          86 9 21 70 24 hhcurveto
          20 3 -50 -32 hvcurveto
          endchar
        </CharString>
        <CharString name="degree">
          -103 155 633 rmoveto
          38 -31 32 -40 -38 -31 -32 -38 -38 31 -32 38 40 31 32 38 vhcurveto
          -32 hmoveto
          -21 -17 -17 -22 -20 -17 17 21 21 17 16 20 22 17 -16 -21 vhcurveto
          endchar
        </CharString>
        <CharString name="dieresis">
          -29 193 329 -98 callsubr
        </CharString>
        <CharString name="divide">
          93 213 380 rmoveto
          14 -11 11 -14 -14 -11 -11 -14 33 callsubr
          -5 -158 rmoveto
          13 -11 12 -14 -14 -11 -12 -13 33 callsubr
          122 87 -56 callgsubr
        </CharString>
        <CharString name="dollar">
          224 473 441 rmoveto
          65 -71 38 -113 vhcurveto
          -10 hlineto
          8 129 rlineto
          10 -8 9 -11 -10 callgsubr
          -10 vhcurveto
          -8 -133 rlineto
          -105 -12 -103 -49 -85 vvcurveto
          -45 30 -47 173 -17 vhcurveto
          93 -9 45 -4 -32 vvcurveto
          -31 -46 -25 -75 -80 -42 25 1 -1 vhcurveto
          2 -3 16 callgsubr
          3 callsubr
          -8 -11 -6 3 -6 5 -3 hvcurveto
          2 -2 39 -24 74 -5 -6 -134 rcurveline
          -11 8 -8 11 24 callsubr
          vhcurveto
          6 135 rlineto
          112 3 37 49 46 vvcurveto
          64 -85 4 -92 9 vhcurveto
          -75 7 -89 13 52 vvcurveto
          70 120 41 100 87 34 -23 -15 13 vhcurveto
          7 -8 4 -10 -11 -4 -2 -5 -5 2 callsubr
          -9 10 18 3 20 13 vhcurveto
          endchar
        </CharString>
        <CharString name="dotaccent">
          -29 148 329 -87 callsubr
        </CharString>
        <CharString name="dotlessi">
          -63 19 97 -97 callsubr
          endchar
        </CharString>
        <CharString name="dotlessj">
          -107 56 -17 -86 callgsubr
          -35 -199 -41 callgsubr
        </CharString>
        <CharString name="e">
          -100 callgsubr
          endchar
        </CharString>
        <CharString name="eacute">
          -100 callgsubr
          19 231 rmoveto
          -4 -3 -1 -4 -5 -74 callgsubr
          30 callsubr
          -57 callsubr
          vhcurveto
          78 74 rlineto
          4 3 1 -84 callgsubr
          8 -8 -4 -4 -2 -3 -3 vhcurveto
          -78 -74 rlineto
          endchar
        </CharString>
        <CharString name="ebreve">
          -100 callgsubr
          118 281 -94 callgsubr
        </CharString>
        <CharString name="ecaron">
          -100 callgsubr
          36 210 -102 callgsubr
        </CharString>
        <CharString name="ecircumflex">
          -100 callgsubr
          62 303 rmoveto
          -107 callsubr
        </CharString>
        <CharString name="edieresis">
          -100 callgsubr
          120 247 -98 callsubr
        </CharString>
        <CharString name="edotaccent">
          -100 callgsubr
          75 247 -87 callsubr
        </CharString>
        <CharString name="egrave">
          -100 callgsubr
          80 231 -98 callgsubr
        </CharString>
        <CharString name="eight">
          384 628 173 rmoveto
          100 -83 73 -162 42 vhcurveto
          118 49 61 50 83 vvcurveto
          64 -54 93 -150 -155 -100 -69 -96 -100 84 -50 84 -30 vhcurveto
          -120 -49 -122 -63 -115 vvcurveto
          -170 183 -26 108 137 171 62 152 vhcurveto
          -102 397 rmoveto
          -97 -133 -44 -69 -25 vhcurveto
          -85 25 -100 40 93 vvcurveto
          75 88 53 131 77 91 -39 -81 vhcurveto
          -204 -574 rmoveto
          -153 -103 54 104 104 139 58 121 49 hvcurveto
          98 -28 167 -35 -130 vvcurveto
          -135 -158 -41 -111 vhcurveto
          endchar
        </CharString>
        <CharString name="ellipsis">
          266 116 14 -69 callsubr
          180 hmoveto
          -75 callgsubr
          180 hmoveto
          -20 callgsubr
          endchar
        </CharString>
        <CharString name="emacron">
          -100 callgsubr
          126 251 -93 callsubr
        </CharString>
        <CharString name="emdash">
          727 956 167 rmoveto
          10 -1 -9 8 -10 hhcurveto
          -801 -25 1 callsubr
          802 24 rlineto
          10 1 8 9 10 vvcurveto
          endchar
        </CharString>
        <CharString name="endash">
          227 456 157 rmoveto
          10 -1 -9 8 -10 hhcurveto
          -301 -15 1 callsubr
          302 15 rlineto
          -14 callgsubr
          hvcurveto
          endchar
        </CharString>
        <CharString name="eng">
          157 283 -57 rmoveto
          -107 -116 -41 -115 -80 vvcurveto
          -73 33 -42 49 70 35 85 179 vhcurveto
          45 -2 51 52 vvcurveto
          52 58 81 82 29 67 -19 callgsubr
          -23 -50 -58 -66 -48 -52 rrcurveto
          69 4 81 30 vvcurveto
          36 -16 28 -34 -17 -20 -9 -23 -18 vhcurveto
          -37 -47 -34 -61 -21 -43 rrcurveto
          3 38 8 83 23 vvcurveto
          31 -10 33 -30 -26 -25 -32 -69 -29 vhcurveto
          -1 -13 callsubr
          -2 vvcurveto
          -26 callsubr
          11 -37 callgsubr
          24 57 15 19 6 2 rrcurveto
          4 -3 1 -18 -16 -36 -13 -102 -14 vvcurveto
          -21 13 -12 18 14 12 8 27 14 vhcurveto
          43 20 64 120 30 hhcurveto
          5 9 -5 -21 -30 -7 -112 2 -79 hvcurveto
          2 -159 -41 callgsubr
        </CharString>
        <CharString name="eogonek">
          -18 194 -99 rmoveto
          8 -7 8 10 callgsubr
          -4 -6 -4 vhcurveto
          -9 -4 -8 -13 -16 hhcurveto
          -13 -9 8 14 29 31 39 9 11 hvcurveto
          62 6 50 50 42 94 rrcurveto
          1 2 -88 callsubr
          -7 -3 vhcurveto
          -61 -27 -40 -68 -64 hhcurveto
          -31 -21 13 19 -14 hvcurveto
          51 25 39 42 53 vvcurveto
          41 -31 25 -31 -51 -34 -50 -65 -58 28 -63 64 -15 vhcurveto
          -15 -21 -18 -31 -30 19 callgsubr
          -132 184 rmoveto
          -3 12 -2 14 12 vvcurveto
          38 14 43 34 13 12 -11 -19 -35 -26 -36 -42 -18 vhcurveto
          endchar
        </CharString>
        <CharString name="equal">
          93 330 362 -24 callgsubr
          -256 -6 20 callsubr
          256 6 rlineto
          11 0 callgsubr
          hvcurveto
          -8 -122 -24 callgsubr
          -249 -3 rlineto
          -10 -8 -3 callsubr
          11 hvcurveto
          249 4 rlineto
          -42 callgsubr
          hvcurveto
          endchar
        </CharString>
        <CharString name="eth">
          20 274 487 rmoveto
          -2 -2 -1 -2 hhcurveto
          -79 -39 rlineto
          45 -33 -44 27 -47 -40 -17 -13 -1 hhcurveto
          -8 -5 -1 -5 -5 vvcurveto
          -10 7 -7 10 vhcurveto
          11 6 8 35 hhcurveto
          31 31 -19 -33 26 hvcurveto
          -73 -36 -7 -3 -4 -8 1 -8 rlinecurve
          1 -8 8 -7 9 1 5 1 6 3 2 1 72 35 rcurveline
          29 -49 19 -68 -78 vvcurveto
          -74 -32 -111 -78 -41 -26 32 44 49 46 54 88 9 vhcurveto
          11 1 7 9 11 vvcurveto
          10 -6 8 -10 -2 vhcurveto
          -92 -11 -80 -55 -83 vvcurveto
          -65 42 -45 60 116 31 138 85 82 -19 72 -32 54 vhcurveto
          75 37 7 3 3 8 -1 7 rlinecurve
          9 -8 7 -10 -2 vhcurveto
          endchar
        </CharString>
        <CharString name="exclam">
          -12 164 683 rmoveto
          10 -8 8 -10 1 vhcurveto
          -11 -8 -8 -10 -1 hvcurveto
          -16 -553 rlineto
          -10 8 -9 10 11 7 8 9 1 vhcurveto
          3 -118 rmoveto
          14 -11 12 -15 -15 -11 -12 -14 -15 11 -12 15 15 11 12 15 vhcurveto
          endchar
        </CharString>
        <CharString name="exclamdown">
          -12 97 -264 rmoveto
          -61 callsubr
          10 -1 vhcurveto
          10 32 callgsubr
          hvcurveto
          16 553 rlineto
          10 1 -8 9 -10 hhcurveto
          -1 0 0 0 hvcurveto
          -10 -8 -8 -9 hvcurveto
          -4 118 rmoveto
          35 callgsubr
          15 14 12 12 14 15 -12 12 -14 -15 -12 -12 -15 vhcurveto
          endchar
        </CharString>
        <CharString name="f">
          -51 57 -24 rmoveto
          -82 callsubr
          109 50 58 75 28 64 -19 callgsubr
          -26 -59 -62 -73 -96 -43 rrcurveto
          1 246 -82 callgsubr
          endchar
        </CharString>
        <CharString name="fi">
          159 57 -24 rmoveto
          -82 callsubr
          77 36 52 48 34 48 rrcurveto
          -56 6 29 -43 54 hhcurveto
          68 62 109 46 23 hvcurveto
          1 3 -88 callsubr
          -6 -3 vhcurveto
          -81 -40 -44 -53 -36 hhcurveto
          -21 -32 12 69 hvcurveto
          50 9 80 7 vvcurveto
          10 -8 8 -9 -12 -7 -46 callgsubr
          -3 -28 -3 -27 -1 -28 rrcurveto
          -1 26 callgsubr
          vvcurveto
          -26 -59 -62 -73 -96 -43 rrcurveto
          1 246 -82 callgsubr
          263 467 -69 callgsubr
          -27 hmoveto
          -20 callsubr
          endchar
        </CharString>
        <CharString name="five">
          374 613 184 rmoveto
          153 -141 65 -165 -90 -67 -18 -12 -35 vhcurveto
          12 280 rlineto
          -3 42 41 -1 40 164 125 18 1 hhcurveto
          10 1 6 8 10 vvcurveto
          10 -9 7 -9 vhcurveto
          -5 -118 -16 -165 -44 -78 4 -17 3 callsubr
          -7 -11 -1 hvcurveto
          -14 -326 rlineto
          -11 -1 7 -8 11 hhcurveto
          7 7 3 3 5 hvcurveto
          10 22 48 22 125 hhcurveto
          164 104 -60 -121 -157 -166 -50 -163 -129 -76 56 13 -20 hvcurveto
          3 -4 -4 -51 callsubr
          -5 2 -5 4 -2 hvcurveto
          -28 34 89 -50 131 hhcurveto
          181 182 66 176 hvcurveto
          endchar
        </CharString>
        <CharString name="fl">
          194 519 -64 callgsubr
          -8 -80 callgsubr
          73 133 58 150 130 vvcurveto
          105 -26 39 -43 -81 -32 -213 -165 -46 2 -66 11 -62 vhcurveto
          -4 -2 -3 -3 -2 -4 -26 -59 -62 -73 -96 -43 rrcurveto
          -82 callsubr
          94 43 56 62 32 57 rrcurveto
          -69 19 32 -55 57 hhcurveto
          75 53 106 44 22 hvcurveto
          -245 -30 callgsubr
          33 179 41 21 13 -30 -77 -110 -49 -136 -54 -106 vhcurveto
          -3 35 -2 39 42 vvcurveto
          -216 -110 -82 callgsubr
          endchar
        </CharString>
        <CharString name="florin">
          80 263 352 rmoveto
          -50 callsubr
          -9 vhcurveto
          -66 -1 rlineto
          82 2 7 158 42 hhcurveto
          25 12 -41 -62 -17 3 -12 17 16 1 14 13 77 -19 65 -55 -65 -18 -102 -176 -5 hvcurveto
          -64 -1 rlineto
          -11 -7 -7 -10 -11 8 -6 10 hvcurveto
          63 -1 hlineto
          0 5 -369 -62 -25 -12 26 38 17 -3 12 -17 -16 -1 -14 -13 -55 19 -48 55 100 -13 262 138 7 vhcurveto
          7 vlineto
          67 1 rlineto
          11 7 8 10 hvcurveto
          endchar
        </CharString>
        <CharString name="four">
          528 791 208 rmoveto
          11 -7 9 -11 -1 -77 4 1 -117 vhcurveto
          2 157 3 156 6 79 rrcurveto
          20 23 29 29 24 vvcurveto
          19 -13 14 -18 -10 -22 -5 -42 -14 vhcurveto
          -3 -7 -2 -17 -2 -23 -242 -279 -289 -152 -3 -1 rrcurveto
          -6 -4 -4 -6 -7 vvcurveto
          -11 -21 callgsubr
          vhcurveto
          90 9 89 5 83 4 rrcurveto
          4 92 85 1 74 hhcurveto
          -2 -104 0 -86 -21 2 callsubr
          -8 10 10 32 callgsubr
          64 0 73 1 73 vhcurveto
          -1 117 75 -4 3 hhcurveto
          10 9 7 10 hvcurveto
          -241 373 rmoveto
          -5 -94 -3 -135 -1 -119 rrcurveto
          -120 -153 -4 -12 -159 hvcurveto
          98 60 178 123 165 181 rrcurveto
          endchar
        </CharString>
        <CharString name="fraction">
          -67 callgsubr
        </CharString>
        <CharString name="g">
          -101 callsubr
          endchar
        </CharString>
        <CharString name="gbreve">
          -101 callsubr
          46 518 -94 callgsubr
        </CharString>
        <CharString name="gcircumflex">
          -101 callsubr
          -10 540 rmoveto
          -107 callsubr
        </CharString>
        <CharString name="gcommaaccent">
          -101 callsubr
          -45 458 rmoveto
          -11 9 -7 10 11 6 9 10 32 11 22 25 19 vhcurveto
          6 5 2 5 6 vvcurveto
          7 -6 7 -11 -6 -6 -2 -3 -4 vhcurveto
          -37 -27 -10 -37 -35 vvcurveto
          endchar
        </CharString>
        <CharString name="gdotaccent">
          -101 callsubr
          3 484 -87 callsubr
        </CharString>
        <CharString name="germandbls">
          58 383 -15 callgsubr
          1 3 1 2 2 vvcurveto
          10 -8 9 -11 -7 -6 -84 callsubr
          -64 -32 -41 -75 -84 hhcurveto
          19 15 15 25 31 82 -97 59 56 vvcurveto
          40 19 57 8 30 vhcurveto
          22 79 10 64 48 vvcurveto
          75 -23 39 -48 -78 -12 -130 -224 -5 vhcurveto
          -3 -169 0 -510 -129 vvcurveto
          -61 callsubr
          10 -42 callgsubr
          129 1 509 4 169 vhcurveto
          1 77 2 87 11 63 rrcurveto
          67 10 13 24 20 hhcurveto
          18 16 -8 -69 -39 -8 -67 -29 -97 hvcurveto
          -11 -37 -11 -42 -36 -77 97 -53 -67 vvcurveto
          -27 -17 -24 -25 -17 -13 13 2 -2 vhcurveto
          3 -3 -5 -17 callgsubr
          -7 -10 -48 callsubr
          -35 23 40 -14 43 hhcurveto
          94 62 83 76 34 hvcurveto
          endchar
        </CharString>
        <CharString name="grave">
          -29 172 313 -98 callgsubr
        </CharString>
        <CharString name="greater">
          93 52 135 rmoveto
          -5 4 6 -5 6 hhcurveto
          4 3 1 3 4 hvcurveto
          102 70 27 23 101 57 rrcurveto
          5 3 4 7 6 vvcurveto
          7 -4 6 -6 4 vhcurveto
          -132 71 -93 109 -2 2 rrcurveto
          5 -3 -6 2 -6 hhcurveto
          -10 -8 -8 -10 -4 -59 callgsubr
          hvcurveto
          6 -7 75 -90 129 -80 -91 -54 -18 -16 -95 -65 rrcurveto
          -5 -3 -3 -6 -6 vvcurveto
          -3 -59 callgsubr
          vhcurveto
          endchar
        </CharString>
        <CharString name="greaterequal">
          93 330 162 -76 callsubr
          -284 58 rmoveto
          -9 9 -10 10 4 3 1 1 4 vhcurveto
          104 45 27 10 99 41 rrcurveto
          6 3 6 3 10 vvcurveto
          8 -7 5 -6 3 vhcurveto
          -119 56 -101 59 -7 4 rrcurveto
          2 -4 -5 3 -6 hhcurveto
          -10 callgsubr
          -10 -9 3 -5 7 -5 hvcurveto
          20 -13 55 -31 119 -57 -78 -33 -38 -14 -75 -34 rrcurveto
          -6 -2 -6 -6 -9 vvcurveto
          endchar
        </CharString>
        <CharString name="guillemotleft">
          165 -79 callsubr
          146 hmoveto
          14 -33 21 -16 11 vhcurveto
          -30 22 -29 19 -32 19 77 49 57 77 3 3 rrcurveto
          2 4 1 -84 callgsubr
          9 -10 -12 callsubr
          -16 callgsubr
          -68 -91 -82 -42 rrcurveto
          -6 -3 -4 -6 -7 vvcurveto
          -7 3 -6 6 -4 vhcurveto
          54 -30 48 -36 54 -37 rrcurveto
          -3 4 3 -1 4 hhcurveto
          10 8 8 9 hvcurveto
          endchar
        </CharString>
        <CharString name="guillemotright">
          165 220 hmoveto
          -9 8 -8 10 4 3 1 3 4 vhcurveto
          54 37 48 36 54 30 rrcurveto
          6 4 3 6 7 vvcurveto
          7 -4 6 -6 3 vhcurveto
          -82 42 -69 91 1 vvcurveto
          5 -3 -6 3 -6 hhcurveto
          -10 -8 -9 -9 -4 -29 callsubr
          -4 hvcurveto
          3 -3 57 -77 76 -49 -31 -19 -29 -19 -30 -22 rrcurveto
          -17 -11 -32 -21 -14 vvcurveto
          -147 hmoveto
          -9 9 -8 10 3 4 1 3 3 vhcurveto
          55 37 48 36 53 30 rrcurveto
          6 4 4 6 7 vvcurveto
          7 -4 6 -7 3 vhcurveto
          -82 42 -68 91 -1 1 rrcurveto
          5 -3 -6 3 -5 -14 callsubr
          -9 -4 1 -4 3 -4 hvcurveto
          3 -3 57 -77 76 -49 -31 -19 -30 -19 -30 -22 rrcurveto
          -16 -11 -33 -21 -14 vvcurveto
          endchar
        </CharString>
        <CharString name="guilsinglleft">
          19 -79 callsubr
          endchar
        </CharString>
        <CharString name="guilsinglright">
          19 73 hmoveto
          -9 9 -8 10 3 4 1 3 3 vhcurveto
          55 37 48 36 53 30 rrcurveto
          6 4 4 6 7 vvcurveto
          7 -4 6 -7 3 vhcurveto
          -82 42 -68 91 -1 1 rrcurveto
          5 -3 -6 3 -5 -14 callsubr
          -9 -4 1 -4 3 -4 hvcurveto
          3 -3 57 -77 76 -49 -31 -19 -30 -19 -30 -22 rrcurveto
          -16 -11 -33 -21 -14 vvcurveto
          endchar
        </CharString>
        <CharString name="h">
          -39 callgsubr
          69 126 60 141 154 vvcurveto
          76 -19 65 -56 -95 4 -279 -369 vhcurveto
          -87 callgsubr
          180 vmoveto
          124 -2 329 56 36 2 -82 -21 -127 -38 -103 -54 -120 vhcurveto
          endchar
        </CharString>
        <CharString name="hbar">
          -39 callgsubr
          47 86 42 93 23 99 rrcurveto
          1 23 27 0 31 hhcurveto
          11 -53 callsubr
          10 -9 6 -10 hvcurveto
          -73 -1 rlineto
          6 36 4 36 36 vvcurveto
          76 -19 65 -56 -56 -21 -96 -154 -9 vhcurveto
          -79 -1 rlineto
          -11 -6 -8 -10 -10 -50 callgsubr
          hvcurveto
          1 32 17 0 27 hhcurveto
          -3 -102 0 -124 -137 vvcurveto
          -87 callgsubr
          54 633 rmoveto
          36 2 -82 -21 -38 -3 -36 -7 -35 hvcurveto
          -78 -1 rlineto
          112 6 13 101 31 hhcurveto
          -54 -453 rmoveto
          48 0 79 3 79 vhcurveto
          18 23 0 31 hhcurveto
          -16 -69 -27 -66 -32 -71 rrcurveto
          endchar
        </CharString>
        <CharString name="hcircumflex">
          -39 callgsubr
          69 126 60 141 154 vvcurveto
          76 -19 65 -56 -95 4 -279 -369 vhcurveto
          -87 callgsubr
          180 vmoveto
          124 -2 329 56 36 2 -82 -21 -127 -38 -103 -54 -120 vhcurveto
          71 632 rmoveto
          -107 callsubr
        </CharString>
        <CharString name="hungarumlaut">
          -29 30 313 rmoveto
          -3 -3 -2 -4 -5 -74 callgsubr
          10 3 4 2 3 4 vhcurveto
          78 -8 callgsubr
          3 2 -84 callgsubr
          8 -8 -4 -4 -2 -3 -4 vhcurveto
          5 -74 rmoveto
          -3 -3 -2 -4 -5 -74 callgsubr
          10 3 4 2 3 4 vhcurveto
          78 -8 callgsubr
          3 2 -84 callgsubr
          8 -8 -4 -4 -2 -3 -4 vhcurveto
          endchar
        </CharString>
        <CharString name="hyphen">
          -60 callgsubr
        </CharString>
        <CharString name="i">
          -63 98 383 -69 callgsubr
          -79 -286 -97 callsubr
          52 286 rmoveto
          -9 -8 -35 callgsubr
          -7 0 callgsubr
          -11 callgsubr
          -18 callsubr
          endchar
        </CharString>
        <CharString name="iacute">
          -63 19 97 -97 callsubr
          7 216 rmoveto
          -4 -3 -1 -4 -5 -74 callgsubr
          30 callsubr
          -57 callsubr
          vhcurveto
          78 74 rlineto
          4 3 1 -84 callgsubr
          8 -8 -4 -4 -2 -3 -3 vhcurveto
          -78 -74 rlineto
          endchar
        </CharString>
        <CharString name="ibreve">
          -63 19 97 -97 callsubr
          107 266 -94 callgsubr
        </CharString>
        <CharString name="icircumflex">
          -63 19 97 -97 callsubr
          43 288 rmoveto
          -107 callsubr
        </CharString>
        <CharString name="idieresis">
          -63 19 97 -97 callsubr
          103 232 -98 callsubr
        </CharString>
        <CharString name="igrave">
          -63 19 97 -97 callsubr
          56 216 -98 callgsubr
        </CharString>
        <CharString name="ij">
          103 266 -17 -56 callsubr
          -3 -22 -2 -28 -2 -30 -2 -2 -1 -2 -1 -2 rrcurveto
          -81 -40 -44 -53 -36 hhcurveto
          -22 -31 12 69 hvcurveto
          50 8 80 7 -65 callgsubr
          -10 -11 -7 -46 callgsubr
          -6 -46 -3 -47 -47 vvcurveto
          -64 31 -53 58 48 44 52 48 30 vhcurveto
          -1 -44 0 -46 -47 vvcurveto
          -107 -116 -41 -115 -80 vvcurveto
          -73 33 -42 49 69 36 85 179 vhcurveto
          45 -2 51 52 vvcurveto
          52 58 80 82 30 67 rrcurveto
          -73 callsubr
          9 -8 9 -11 -7 -7 -4 -7 -2 vhcurveto
          -23 -50 -59 -66 -47 -52 rrcurveto
          -35 -199 rmoveto
          -211 -46 -20 -22 -37 -9 43 36 64 32 94 80 98 vhcurveto
          1 -39 1 -33 -32 vvcurveto
          -133 599 -69 callgsubr
          214 hmoveto
          25 -20 20 -24 -24 -20 -20 -25 -24 20 -20 24 24 20 20 24 vhcurveto
          -241 hmoveto
          -9 -8 -35 callgsubr
          -7 0 callgsubr
          -11 callgsubr
          -18 callsubr
          214 hmoveto
          -20 callsubr
          endchar
        </CharString>
        <CharString name="imacron">
          -63 19 97 -97 callsubr
          111 236 -93 callsubr
        </CharString>
        <CharString name="infinity">
          191 434 302 rmoveto
          30 -16 36 -53 -22 -30 -13 -31 -51 vhcurveto
          42 -66 -46 18 -29 hhcurveto
          -50 -41 -36 -44 -48 37 -34 51 31 30 10 54 83 hvcurveto
          -35 52 23 -15 31 hhcurveto
          39 27 31 35 hvcurveto
          -66 -32 rmoveto
          -13 -25 10 24 -35 hvcurveto
          18 26 32 12 15 hhcurveto
          21 11 -14 -19 -21 -17 -10 -15 hvcurveto
          -141 34 rmoveto
          -16 -23 -55 -32 -31 hhcurveto
          -32 -22 19 29 25 26 22 31 19 47 -18 -27 40 hvcurveto
          endchar
        </CharString>
        <CharString name="iogonek">
          -63 106 -102 rmoveto
          8 -6 8 -9 -6 -6 -46 callsubr
          -8 -5 -7 -14 -17 hhcurveto
          -13 -9 8 14 24 callgsubr
          1 1 1 1 1 1 rrcurveto
          -5 11 12 -4 14 hhcurveto
          69 62 109 46 23 hvcurveto
          1 3 -88 callsubr
          -6 -3 vhcurveto
          -81 -40 -44 -53 -36 hhcurveto
          -22 -31 12 69 hvcurveto
          50 8 80 7 -65 callgsubr
          -10 -11 -7 -46 callgsubr
          -6 -46 -3 -47 -47 vvcurveto
          -35 9 -30 17 -22 vhcurveto
          -10 -10 -43 -48 -48 vvcurveto
          -26 17 -28 39 35 23 27 21 vhcurveto
          -8 485 -69 callgsubr
          -27 hmoveto
          -9 -8 -35 callgsubr
          -7 0 callgsubr
          -11 callgsubr
          -18 callsubr
          endchar
        </CharString>
        <CharString name="itilde">
          -63 19 97 -97 callsubr
          113 238 -104 callsubr
        </CharString>
        <CharString name="j">
          -107 103 383 rmoveto
          25 -20 20 -25 -24 -20 -20 -25 -24 20 -20 24 25 20 20 24 vhcurveto
          -47 -400 -86 callgsubr
          19 400 rmoveto
          -20 callsubr
          -54 -599 -41 callgsubr
        </CharString>
        <CharString name="jcircumflex">
          -107 56 -17 -86 callgsubr
          -35 -199 -73 callgsubr
          40 601 rmoveto
          -107 callsubr
        </CharString>
        <CharString name="k">
          -65 callsubr
          173 6 403 5 -76 callgsubr
          -1 callsubr
          -10 vhcurveto
          -26 -9 -612 -19 vvcurveto
          -20 11 -7 10 20 5 22 15 4 vhcurveto
          70 17 50 117 53 hhcurveto
          17 13 -12 -18 -40 -38 -30 -54 -15 hvcurveto
          -19 -6 -2 -16 -5 vvcurveto
          -41 46 -40 59 74 70 58 95 45 vhcurveto
          1 2 -57 callgsubr
          9 -8 9 -11 -7 -6 -84 callsubr
          -130 -61 -76 -1 -19 hhcurveto
          -32 -28 15 25 -10 hvcurveto
          endchar
        </CharString>
        <CharString name="kcommaaccent">
          -65 callsubr
          173 6 403 5 -76 callgsubr
          -1 callsubr
          -10 vhcurveto
          -26 -9 -612 -19 vvcurveto
          -20 11 -7 10 20 5 22 15 4 vhcurveto
          70 17 50 117 53 hhcurveto
          17 13 -12 -18 -40 -38 -30 -54 -15 hvcurveto
          -19 -6 -2 -16 -5 vvcurveto
          -41 46 -40 59 74 70 58 95 45 vhcurveto
          1 2 -57 callgsubr
          9 -8 9 -11 -7 -6 -84 callsubr
          -130 -61 -76 -1 -19 hhcurveto
          -32 -28 15 25 -10 hvcurveto
          19 -150 -95 callsubr
        </CharString>
        <CharString name="kgreenlandic">
          -65 callsubr
          75 1 59 5 18 callgsubr
          8 -10 -1 callsubr
          -10 vhcurveto
          -26 -3 -171 -19 vvcurveto
          -20 11 -7 10 20 5 22 15 4 vhcurveto
          70 17 50 117 53 hhcurveto
          17 13 -12 -18 -40 -38 -30 -54 -15 hvcurveto
          -19 -6 -2 -16 -5 vvcurveto
          -41 46 -40 59 74 70 58 95 45 vhcurveto
          1 2 -57 callgsubr
          9 -8 9 -11 -7 -6 -84 callsubr
          -130 -61 -76 -1 -19 hhcurveto
          -32 -28 15 25 -10 hvcurveto
          endchar
        </CharString>
        <CharString name="l">
          -28 296 -64 callgsubr
          -7 -80 callgsubr
          73 133 58 150 130 vvcurveto
          105 -27 39 -43 -81 -31 -213 -165 -113 15 -236 116 76 52 106 44 22 vhcurveto
          -244 -30 callgsubr
          32 179 42 21 13 -30 -77 -110 -49 -136 -54 -106 vhcurveto
          -3 35 -2 39 42 vvcurveto
          endchar
        </CharString>
        <CharString name="lacute">
          -28 296 -64 callgsubr
          -7 -80 callgsubr
          73 133 58 150 130 vvcurveto
          105 -27 39 -43 -81 -31 -213 -165 -113 15 -236 116 76 52 106 44 22 vhcurveto
          -244 -30 callgsubr
          32 179 42 21 13 -30 -77 -110 -49 -136 -54 -106 vhcurveto
          -3 35 -2 39 42 vvcurveto
          54 450 rmoveto
          -4 -3 -1 -4 -5 -74 callgsubr
          30 callsubr
          -57 callsubr
          vhcurveto
          78 74 rlineto
          4 3 1 -84 callgsubr
          8 -8 -4 -4 -2 -3 -3 vhcurveto
          -78 -74 rlineto
          endchar
        </CharString>
        <CharString name="lcaron">
          51 296 -64 callgsubr
          -7 -80 callgsubr
          73 133 58 150 130 vvcurveto
          105 -27 39 -43 -81 -31 -213 -165 -113 15 -236 116 76 52 106 44 22 vhcurveto
          -244 -30 callgsubr
          32 179 42 21 13 -30 -77 -110 -49 -136 -54 -106 vhcurveto
          -3 35 -2 39 42 vvcurveto
          257 334 -88 callgsubr
        </CharString>
        <CharString name="lcommaaccent">
          -28 296 -64 callgsubr
          -7 -80 callgsubr
          73 133 58 150 130 vvcurveto
          105 -27 39 -43 -81 -31 -213 -165 -113 15 -236 116 76 52 106 44 22 vhcurveto
          -244 -30 callgsubr
          32 179 42 21 13 -30 -77 -110 -49 -136 -54 -106 vhcurveto
          -3 35 -2 39 42 vvcurveto
          12 -418 -95 callsubr
        </CharString>
        <CharString name="ldotaccent">
          47 296 -64 callgsubr
          -7 -80 callgsubr
          73 133 58 150 130 vvcurveto
          105 -27 39 -43 -81 -31 -213 -165 -113 15 -236 116 76 52 106 44 22 vhcurveto
          -244 -30 callgsubr
          32 179 42 21 13 -30 -77 -110 -49 -136 -54 -106 vhcurveto
          -3 35 -2 39 42 vvcurveto
          221 9 -71 callgsubr
        </CharString>
        <CharString name="less">
          93 313 135 rmoveto
          -51 callgsubr
          4 3 vvcurveto
          6 -3 6 -5 3 vhcurveto
          -95 65 -18 16 -92 54 129 80 76 90 5 7 rrcurveto
          -4 callsubr
          10 -8 8 -11 -6 -5 -2 -5 9 callgsubr
          -2 -93 -109 -132 -71 rrcurveto
          -6 -4 -4 -6 -7 vvcurveto
          -6 3 -7 6 -3 vhcurveto
          101 -57 27 -23 102 -70 rrcurveto
          -3 4 -9 callgsubr
          hhcurveto
          6 7 5 5 -15 callsubr
        </CharString>
        <CharString name="lessequal">
          93 330 162 -76 callsubr
          -13 58 rmoveto
          9 -6 6 -6 2 vhcurveto
          -76 34 -37 14 -78 33 118 57 56 31 20 13 rrcurveto
          6 5 4 5 9 vvcurveto
          10 -8 7 -11 -6 -4 -3 -2 -4 vhcurveto
          -7 -4 -101 -59 -119 -56 rrcurveto
          -6 -3 -7 -5 -8 vvcurveto
          -10 6 -3 6 -3 vhcurveto
          99 -41 27 -10 104 -45 rrcurveto
          -1 4 -9 callgsubr
          hhcurveto
          11 9 10 9 hvcurveto
          endchar
        </CharString>
        <CharString name="logicalnot">
          93 284 331 rmoveto
          -4 -91 rlineto
          -11 -1 8 -9 11 hhcurveto
          -42 callgsubr
          hvcurveto
          6 111 rlineto
          0 0 1 0 vhcurveto
          11 -26 callsubr
          vhcurveto
          -250 -8 rlineto
          -11 -1 -7 -8 -10 vvcurveto
          15 callgsubr
          endchar
        </CharString>
        <CharString name="lslash">
          -28 296 -64 callgsubr
          -7 -80 callgsubr
          25 46 23 47 20 48 98 35 rcurveline
          7 2 4 8 6 callgsubr
          -67 -24 rlineto
          28 78 18 78 71 vvcurveto
          105 -27 39 -43 -81 -31 -213 -165 vhcurveto
          -12 0 -14 -15 vvcurveto
          -82 -29 rlineto
          -7 -2 -5 -8 -7 vvcurveto
          -10 9 -8 9 2 4 0 1 2 vhcurveto
          70 25 rlineto
          -118 7 29 -152 93 hhcurveto
          76 52 106 44 22 hvcurveto
          -244 -30 callgsubr
          32 179 42 21 13 -30 -77 -74 -23 -87 -31 -82 vhcurveto
          -54 -19 rlineto
          1 -38 rmoveto
          34 12 -9 -22 -11 -22 -10 -20 rlinecurve
          -1 16 -2 18 -1 18 rrcurveto
          endchar
        </CharString>
        <CharString name="m">
          366 131 43 rmoveto
          3 49 4 46 58 vvcurveto
          26 -9 30 -30 -25 -27 -32 -69 -29 vhcurveto
          -1 -13 callsubr
          -2 vvcurveto
          -26 callsubr
          11 -37 callgsubr
          24 57 15 19 6 2 rrcurveto
          3 -3 2 -16 -16 vvcurveto
          -3 -60 -4 -91 -5 vvcurveto
          -18 9 -13 19 12 14 8 28 14 vhcurveto
          23 46 42 74 18 23 rrcurveto
          16 11 9 3 7 hhcurveto
          8 7 -6 -17 hvcurveto
          -24 -6 -97 -29 vvcurveto
          -19 9 -13 17 16 8 12 41 21 vhcurveto
          76 40 37 76 31 hhcurveto
          4 14 1 -32 hvcurveto
          -15 -4 -29 -32 vvcurveto
          -47 13 -44 57 80 59 128 16 7 vhcurveto
          1 3 1 2 2 vvcurveto
          9 -7 10 -12 -7 -6 -84 callsubr
          -35 -16 -46 -88 -51 hhcurveto
          -31 -3 28 28 hvcurveto
          33 5 23 22 vvcurveto
          29 -11 36 -44 -19 -25 -10 -38 -28 vhcurveto
          -19 -27 -31 -60 -20 -39 rrcurveto
          1 36 4 51 20 vvcurveto
          36 -14 31 -34 -17 -21 -9 -23 -19 vhcurveto
          -23 -28 -45 -84 -20 -40 rrcurveto
          endchar
        </CharString>
        <CharString name="macron">
          -29 200 333 -93 callsubr
        </CharString>
        <CharString name="micro">
          105 206 55 rmoveto
          -40 12 26 -23 37 hhcurveto
          33 30 19 27 21 hvcurveto
          3 3 -57 callgsubr
          10 -9 10 -9 -5 -4 -2 -4 -4 vhcurveto
          -18 -18 -18 -15 -20 hhcurveto
          -42 -10 58 32 3 5 73 1 14 hvcurveto
          10 1 -7 10 -11 hhcurveto
          -10 callgsubr
          -10 -1 hvcurveto
          -7 -84 rlineto
          -65 -6 -43 -30 -21 hhcurveto
          -28 -15 20 38 68 22 37 7 12 hvcurveto
          2 -52 callsubr
          -76 callgsubr
          -38 callgsubr
          -25 -35 -65 -11 hvcurveto
          -4 -27 -17 -90 -176 vvcurveto
          -10 9 -9 10 -14 callgsubr
          75 2 62 3 45 vhcurveto
          -17 14 20 -8 22 hhcurveto
          30 33 23 37 21 hvcurveto
          endchar
        </CharString>
        <CharString name="minus">
          93 330 309 -56 callgsubr
        </CharString>
        <CharString name="mu">
          105 206 55 rmoveto
          -40 12 26 -23 37 hhcurveto
          33 30 19 27 21 hvcurveto
          3 3 -57 callgsubr
          10 -9 10 -9 -5 -4 -2 -4 -4 vhcurveto
          -18 -18 -18 -15 -20 hhcurveto
          -42 -10 58 32 3 5 73 1 14 hvcurveto
          10 1 -7 10 -11 hhcurveto
          -10 callgsubr
          -10 -1 hvcurveto
          -7 -84 rlineto
          -65 -6 -43 -30 -21 hhcurveto
          -28 -15 20 38 68 22 37 7 12 hvcurveto
          2 -52 callsubr
          -76 callgsubr
          -38 callgsubr
          -25 -35 -65 -11 hvcurveto
          -4 -27 -17 -90 -176 vvcurveto
          -10 9 -9 10 -14 callgsubr
          75 2 62 3 45 vhcurveto
          -17 14 20 -8 22 hhcurveto
          30 33 23 37 21 hvcurveto
          endchar
        </CharString>
        <CharString name="multiply">
          93 298 427 rmoveto
          -7 7 -12 -1 -7 -8 -88 -96 rcurveline
          -86 92 -8 7 -12 1 -8 -9 rlinecurve
          -6 -6 0 -11 7 -7 31 -34 30 -31 28 -29 -93 -102 rcurveline
          -7 -8 1 -11 7 -7 8 -7 11 1 7 8 91 99 rcurveline
          51 -55 35 -37 1 -1 7 -6 12 0 7 8 6 6 0 11 -7 7 -88 94 rcurveline
          91 99 7 8 -1 11 -8 7 rlinecurve
          endchar
        </CharString>
        <CharString name="n">
          -101 callgsubr
          endchar
        </CharString>
        <CharString name="nacute">
          -101 callgsubr
          48 283 rmoveto
          -4 -3 -1 -4 -5 -74 callgsubr
          30 callsubr
          -57 callsubr
          vhcurveto
          78 74 rlineto
          4 3 1 -84 callgsubr
          8 -8 -4 -4 -2 -3 -3 vhcurveto
          -78 -74 rlineto
          endchar
        </CharString>
        <CharString name="napostrophe">
          -101 callgsubr
          -72 622 -88 callgsubr
        </CharString>
        <CharString name="nbspace">
          -53 endchar
        </CharString>
        <CharString name="ncaron">
          -101 callgsubr
          64 262 -102 callgsubr
        </CharString>
        <CharString name="ncommaaccent">
          -101 callgsubr
          120 -110 -95 callsubr
        </CharString>
        <CharString name="nine">
          449 688 411 rmoveto
          185 -163 118 -170 -172 -154 -110 -150 -152 128 -75 133 149 129 90 121 26 vhcurveto
          1 3 27 callsubr
          10 -8 8 29 callgsubr
          -8 -2 vhcurveto
          -105 -28 -109 -79 -134 hhcurveto
          -102 -120 51 140 129 137 93 152 109 187 -68 -197 -168 -110 -155 -146 -63 hvcurveto
          -38 -87 -76 -1 -1 3 callsubr
          -8 -10 -10 9 -9 10 1 hvcurveto
          4 79 0 41 94 hvcurveto
          167 72 113 172 175 vvcurveto
          endchar
        </CharString>
        <CharString name="notequal">
          93 322 240 -24 callgsubr
          -127 -2 52 85 84 2 rlineto
          11 0 callgsubr
          -63 callsubr
          hvcurveto
          -61 -2 25 41 rlineto
          2 4 1 3 4 vvcurveto
          7 -7 8 -9 -5 -5 -2 10 callsubr
          -37 -61 -157 -3 20 callsubr
          133 3 -51 -84 -84 -1 rlineto
          -10 -8 -3 callsubr
          11 hvcurveto
          61 1 -25 -42 rlineto
          -2 -3 -1 -4 -3 vvcurveto
          -8 6 -8 6 callsubr
          37 61 150 3 rlineto
          -42 callgsubr
          hvcurveto
          endchar
        </CharString>
        <CharString name="ntilde">
          -101 callgsubr
          158 305 -104 callsubr
        </CharString>
        <CharString name="numbersign">
          66 252 401 rmoveto
          30 102 rlineto
          1 3 0 2 2 -76 callgsubr
          10 callgsubr
          -8 -3 vhcurveto
          -33 -114 -46 -1 23 76 rlineto
          2 7 1 3 4 vvcurveto
          10 -8 6 -11 -8 -7 -6 -7 -2 vhcurveto
          -30 -94 -55 -1 rlineto
          -10 -8 -8 28 callsubr
          11 2 15 0 1 26 hvcurveto
          -28 -90 rlineto
          -51 hlineto
          -10 -8 -8 -11 -61 callsubr
          10 hvcurveto
          40 hlineto
          -32 -102 rlineto
          -1 -2 -2 -7 -3 vvcurveto
          -61 callsubr
          11 8 7 5 8 3 vhcurveto
          37 119 rlineto
          49 hlineto
          -39 -133 rlineto
          -1 -4 -2 -6 -2 2 callsubr
          -9 11 8 7 5 8 3 vhcurveto
          43 151 rlineto
          58 hlineto
          -42 callgsubr
          10 -8 8 -10 hvcurveto
          -47 hlineto
          27 92 rlineto
          18 20 0 21 hhcurveto
          -14 callgsubr
          10 -8 8 -11 hvcurveto
          -97 -37 rmoveto
          -26 -92 rlineto
          -13 -18 0 -18 hhcurveto
          29 91 rlineto
          13 16 1 17 hhcurveto
          endchar
        </CharString>
        <CharString name="o">
          -106 callsubr
          endchar
        </CharString>
        <CharString name="oacute">
          -106 callsubr
          -42 134 rmoveto
          -4 -3 -1 -4 -5 -74 callgsubr
          30 callsubr
          -57 callsubr
          vhcurveto
          78 74 rlineto
          4 3 1 -84 callgsubr
          8 -8 -4 -4 -2 -3 -3 vhcurveto
          -78 -74 rlineto
          endchar
        </CharString>
        <CharString name="obreve">
          -106 callsubr
          56 184 -94 callgsubr
        </CharString>
        <CharString name="ocircumflex">
          -106 callsubr
          206 vmoveto
          -107 callsubr
        </CharString>
        <CharString name="odieresis">
          -106 callsubr
          58 150 -98 callsubr
        </CharString>
        <CharString name="oe">
          165 260 54 rmoveto
          51 25 39 42 53 vvcurveto
          41 -32 25 -30 -31 -25 -18 -29 -15 vhcurveto
          26 -17 -27 17 -32 hhcurveto
          -54 -33 -46 -41 -1 hvcurveto
          7 -2 -7 6 -9 hhcurveto
          -21 -4 -40 -20 -65 45 -51 60 48 36 28 36 20 hvcurveto
          -37 19 34 -28 54 hhcurveto
          67 1 52 52 45 98 rrcurveto
          1 2 -83 callgsubr
          -11 -7 -7 -4 -7 -2 vhcurveto
          -61 -27 -41 -68 -63 hhcurveto
          -31 -22 13 19 -13 hvcurveto
          -145 -31 rmoveto
          -44 -25 35 44 hvcurveto
          17 7 14 6 vvcurveto
          -34 4 26 -34 43 hhcurveto
          19 21 7 20 21 hvcurveto
          4 4 2 5 5 vvcurveto
          11 -8 7 -10 -5 -4 -2 -3 -4 vhcurveto
          -12 -12 -13 -6 -12 hhcurveto
          -18 -17 18 24 12 8 38 42 51 10 -51 -25 -49 -32 -51 -54 hvcurveto
          130 62 rmoveto
          -3 12 -3 14 12 vvcurveto
          38 14 43 35 13 11 -11 -19 -35 -26 -36 -41 -18 vhcurveto
          endchar
        </CharString>
        <CharString name="ogonek">
          -29 180 -117 rmoveto
          9 -8 callsubr
          -14 -8 7 15 33 42 48 1 hvcurveto
          4 5 3 5 5 vvcurveto
          10 -8 6 -9 -4 -4 -1 -3 -3 vhcurveto
          -3 -2 -53 -54 -52 vvcurveto
          -26 18 -29 39 34 24 28 20 vhcurveto
          endchar
        </CharString>
        <CharString name="ograve">
          -106 callsubr
          19 134 -98 callgsubr
        </CharString>
        <CharString name="ohungarumlaut">
          -106 callsubr
          -78 134 rmoveto
          -3 -3 -2 -4 -5 -74 callgsubr
          10 3 4 2 3 4 vhcurveto
          78 -8 callgsubr
          3 2 -84 callgsubr
          8 -8 -4 -4 -2 -3 -4 vhcurveto
          5 -74 rmoveto
          -3 -3 -2 -4 -5 -74 callgsubr
          10 3 4 2 3 4 vhcurveto
          78 -8 callgsubr
          3 2 -84 callgsubr
          8 -8 -4 -4 -2 -3 -4 vhcurveto
          endchar
        </CharString>
        <CharString name="omacron">
          -106 callsubr
          65 154 -93 callsubr
        </CharString>
        <CharString name="one">
          57 284 662 rmoveto
          22 -13 19 -20 -18 -12 -13 -29 -1 vhcurveto
          -15 0 -33 -21 vvcurveto
          -60 -112 -125 -80 -2 -1 rrcurveto
          -6 -4 -3 -6 -6 vvcurveto
          -10 10 -8 9 -51 callgsubr
          2 4 vhcurveto
          5 3 94 61 68 91 rrcurveto
          -195 -1 -324 -4 vvcurveto
          -10 8 -9 10 -14 callgsubr
          vhcurveto
          5 2 398 180 vvcurveto
          12 24 15 28 27 vvcurveto
          endchar
        </CharString>
        <CharString name="onehalf">
          308 417 95 -68 callsubr
          10 -21 hhcurveto
          -30 -17 -20 -32 callgsubr
          1 2 hvcurveto
          -34 callgsubr
          4 12 callsubr
          -7 6 -9 -5 -4 -2 -4 -4 vhcurveto
          0 19 callsubr
          -5 rmoveto
          -5 -10 -15 -2 -9 hhcurveto
          -7 -11 0 7 6 6 4 11 9 15 -5 -5 11 hvcurveto
          101 460 13 callsubr
          12 callsubr
          -6 8 -10 -5 -5 -2 -5 -3 -44 callgsubr
          7 -8 9 6 4 2 5 3 vhcurveto
          82 479 rmoveto
          5 10 4 13 9 vvcurveto
          12 -9 7 -8 -18 -5 -12 -31 vhcurveto
          -19 -34 -38 -24 0 vvcurveto
          -5 -3 -3 -5 -6 2 callsubr
          -6 8 3 -1 callgsubr
          vhcurveto
          2 1 18 12 20 19 rrcurveto
          -63 -1 -82 -1 vvcurveto
          -9 7 -7 9 9 6 7 9 vhcurveto
          1 1 129 60 vvcurveto
          endchar
        </CharString>
        <CharString name="onequarter">
          238 472 132 rmoveto
          9 -6 7 -9 vhcurveto
          -1 -21 2 -34 hhcurveto
          1 49 1 45 2 23 rrcurveto
          7 21 callsubr
          -5 -1 -17 -4 -2 -32 -78 -89 -92 -48 -1 -1 rrcurveto
          -6 -3 -3 -5 -7 2 callsubr
          -6 7 13 10 6 2 137 vhcurveto
          -25 -1 -21 -14 vvcurveto
          -9 6 -7 9 10 6 7 9 vhcurveto
          20 1 20 19 vvcurveto
          33 20 -25 callgsubr
          8 8 4 10 1 hvcurveto
          -100 102 rmoveto
          -1 -24 0 -33 -1 -27 rrcurveto
          -28 -37 -1 -2 -34 hvcurveto
          27 20 39 32 35 35 rrcurveto
          67 316 13 callsubr
          12 callsubr
          -6 8 -10 -5 -5 -2 -5 -3 -44 callgsubr
          7 -8 9 6 4 2 5 3 vhcurveto
          82 479 rmoveto
          5 10 4 13 9 vvcurveto
          12 -9 7 -8 -18 -5 -12 -31 vhcurveto
          -19 -34 -38 -24 0 vvcurveto
          -5 -3 -3 -5 -6 2 callsubr
          -6 8 3 -1 callgsubr
          vhcurveto
          2 1 18 12 20 19 rrcurveto
          -63 -1 -82 -1 vvcurveto
          -9 7 -7 9 9 6 7 9 vhcurveto
          1 1 129 60 vvcurveto
          endchar
        </CharString>
        <CharString name="onesuperior">
          -128 105 651 rmoveto
          5 10 4 13 9 vvcurveto
          12 -8 8 -9 -17 -6 -13 -31 vhcurveto
          -18 -34 -38 -23 -1 -1 rrcurveto
          -5 -3 -2 -5 -6 2 callsubr
          -6 8 3 -1 callgsubr
          vhcurveto
          1 1 19 12 19 19 rrcurveto
          -63 0 -82 -1 vvcurveto
          -9 7 -7 9 9 6 7 9 vhcurveto
          1 0 129 60 vvcurveto
          endchar
        </CharString>
        <CharString name="ordfeminine">
          -41 139 559 rmoveto
          -25 9 22 -19 24 hhcurveto
          14 9 4 14 9 -54 callgsubr
          hvcurveto
          -3 -1 -1 -3 hhcurveto
          -20 -8 24 46 -4 hvcurveto
          8 -1 -7 8 -9 hhcurveto
          -9 -6 -7 -8 -1 hvcurveto
          -49 -6 -28 -20 -18 hhcurveto
          -18 -9 15 21 57 43 24 28 hvcurveto
          18 10 -16 11 hhcurveto
          9 8 0 callgsubr
          -20 23 -37 -45 -58 -39 -76 -39 24 -29 36 20 24 11 31 18 hvcurveto
          76 -101 rmoveto
          9 -41 callsubr
          vhcurveto
          -168 21 callgsubr
          168 hlineto
          9 7 7 9 hvcurveto
          endchar
        </CharString>
        <CharString name="ordmasculine">
          -69 189 615 rmoveto
          45 -30 40 -43 -27 -35 -21 -22 -54 callgsubr
          10 8 4 5 6 3 vhcurveto
          8 6 7 7 15 hhcurveto
          35 7 -34 -17 -42 -26 -29 -34 -27 -19 22 33 5 2 5 1 6 hvcurveto
          2 5 1 5 12 callsubr
          -6 9 -10 -20 -3 -30 -18 -55 37 -31 43 55 37 46 56 vhcurveto
          -157 vmoveto
          9 -41 callsubr
          vhcurveto
          -142 21 callgsubr
          142 hlineto
          9 7 7 9 hvcurveto
          endchar
        </CharString>
        <CharString name="oslash">
          -90 callsubr
          endchar
        </CharString>
        <CharString name="oslashacute">
          -90 callsubr
          -46 111 rmoveto
          -4 -3 -1 -4 -5 -74 callgsubr
          30 callsubr
          -57 callsubr
          vhcurveto
          78 74 rlineto
          4 3 1 -84 callgsubr
          8 -8 -4 -4 -2 -3 -3 vhcurveto
          -78 -74 rlineto
          endchar
        </CharString>
        <CharString name="otilde">
          -106 callsubr
          67 156 -104 callsubr
        </CharString>
        <CharString name="p">
          80 269 -15 callgsubr
          20 callgsubr
          150 vlineto
          10 -8 8 -10 -10 -8 -9 -9 -77 callgsubr
          -2 3 -3 3 -3 2 rrcurveto
          0 0 0 -1 vhcurveto
          1 -1 0 0 -2 hhcurveto
          0 -1 1 0 vhcurveto
          -1 -2 0 -1 hhcurveto
          -1 hlineto
          -5 -3 -2 -3 -3 hvcurveto
          26 callgsubr
          hvcurveto
          34 callsubr
          -4 -5 vvcurveto
          -2 -59 callgsubr
          vhcurveto
          0 0 -1 1 -1 vhcurveto
          3 -41 callsubr
          9 -7 rrcurveto
          -22 25 34 -11 34 hhcurveto
          96 60 85 75 33 hvcurveto
          1 3 1 2 -45 callsubr
          -7 -4 -7 -3 vhcurveto
          -5 callsubr
          -217 -157 -42 callsubr
        </CharString>
        <CharString name="paragraph">
          450 713 500 rmoveto
          -74 callsubr
          -4 3 vhcurveto
          92 -104 -130 63 -139 hhcurveto
          -156 -149 -91 -155 -155 126 -63 126 hvcurveto
          51 31 12 2 hhcurveto
          7 3 4 7 7 vvcurveto
          12 -9 7 -9 -3 -1 -1 -1 -3 vhcurveto
          0 -26 -10 -44 -120 -95 54 128 135 134 75 135 87 89 -28 -54 85 vhcurveto
          -5 -3 -4 -5 -5 vvcurveto
          -5 -40 -16 -168 -125 -88 4 -88 -1 vvcurveto
          15 callgsubr
          10 1 8 9 10 1 -3 90 89 20 0 21 19 vvcurveto
          4 131 12 110 4 22 20 -14 19 -16 20 -17 rrcurveto
          -3 3 4 -1 4 -7 callsubr
          9 10 hvcurveto
          -261 63 rmoveto
          3 vlineto
          10 -8 8 -10 -9 -7 -2 -13 -2 vhcurveto
          -9 -43 -22 -223 -102 -109 8 -92 -1 vvcurveto
          -11 1 8 -6 11 hhcurveto
          10 7 9 9 hvcurveto
          2 vlineto
          1 -8 93 108 vvcurveto
          151 29 205 1 3 vhcurveto
          endchar
        </CharString>
        <CharString name="parenleft">
          71 341 767 rmoveto
          5 -4 -5 3 -7 hhcurveto
          -3 -4 28 callgsubr
          -2 -1 -59 -39 -60 -77 rrcurveto
          -55 -70 -66 -118 -158 vvcurveto
          -305 164 -110 7 -4 vhcurveto
          -2 3 3 -1 4 hhcurveto
          -42 callgsubr
          6 -2 6 -6 4 hvcurveto
          -1 1 -153 102 285 vvcurveto
          283 223 147 2 2 vhcurveto
          6 3 3 -22 callsubr
          4 -1 3 -2 4 vhcurveto
          endchar
        </CharString>
        <CharString name="parenright">
          71 271 351 rmoveto
          304 -164 110 -7 4 vhcurveto
          2 -3 -4 1 -3 3 callsubr
          -7 -12 -5 3 -5 6 -5 -22 callgsubr
          153 -102 -284 vvcurveto
          -285 -223 -147 -3 -1 vhcurveto
          -5 -4 -3 -6 -6 14 callgsubr
          3 -1 callgsubr
          vhcurveto
          3 1 59 39 60 76 rrcurveto
          55 71 66 117 160 vvcurveto
          endchar
        </CharString>
        <CharString name="partialdiff">
          122 176 528 rmoveto
          -81 -58 -60 -2 -2 hvcurveto
          -4 -4 -2 -4 -5 14 callgsubr
          5 5 -57 callsubr
          vhcurveto
          1 1 49 50 65 hhcurveto
          84 59 -64 -97 -142 -78 -170 -112 -29 -13 20 25 41 58 96 101 12 hvcurveto
          9 1 7 8 9 vvcurveto
          12 -7 8 -14 -2 vhcurveto
          -85 -8 -106 -95 -82 vvcurveto
          -46 27 -37 51 136 92 187 165 107 -72 89 -108 vhcurveto
          endchar
        </CharString>
        <CharString name="percent">
          307 -68 callgsubr
          -34 callgsubr
          3 12 callsubr
          -6 8 -9 -5 -6 -2 10 callsubr
          -370 -497 rlineto
          -3 -83 callsubr
          7 -8 6 callsubr
          -66 callgsubr
          endchar
        </CharString>
        <CharString name="period">
          -93 116 14 -71 callgsubr
        </CharString>
        <CharString name="periodcentered">
          -93 116 341 -71 callgsubr
        </CharString>
        <CharString name="perthousand">
          605 -68 callgsubr
          6 7 -2 10 -7 6 -7 5 -10 -1 -6 -8 -370 -497 rcurveline
          -5 -7 1 -10 7 -6 rrcurveto
          -2 3 4 -1 3 hhcurveto
          -18 callgsubr
          hvcurveto
          -66 callgsubr
          607 -268 rmoveto
          72 -58 59 -69 -71 -57 -59 -72 -73 57 -59 71 69 58 59 73 vhcurveto
          -33 hmoveto
          -56 -42 -44 -52 -53 -43 44 56 54 43 45 53 52 42 -45 -54 vhcurveto
          endchar
        </CharString>
        <CharString name="plus">
          93 334 309 rmoveto
          27 callgsubr
          vhcurveto
          -110 -6 8 106 rlineto
          10 -7 9 -12 -9 -8 -46 callgsubr
          -3 -41 -3 -37 -2 -32 -119 -6 rcurveline
          -10 -7 -9 -11 -10 10 -7 9 hvcurveto
          115 6 rlineto
          -5 -67 -3 -39 0 vvcurveto
          -61 callsubr
          10 10 -11 callgsubr
          1 vhcurveto
          9 109 114 6 rlineto
          11 1 6 8 11 vvcurveto
          endchar
        </CharString>
        <CharString name="plusminus">
          93 336 333 -2 callgsubr
          -1 vhcurveto
          -110 -6 7 87 rlineto
          10 -7 9 -12 -9 -9 -7 -10 vhcurveto
          -3 -35 -2 -30 -2 -26 -119 -6 rcurveline
          -10 -35 callgsubr
          -11 9 -7 10 1 hvcurveto
          114 6 rlineto
          -4 -61 -2 -26 0 vvcurveto
          -61 callsubr
          10 24 callsubr
          1 vhcurveto
          7 90 114 5 rlineto
          11 1 6 9 10 vvcurveto
          -6 -171 -76 callsubr
          endchar
        </CharString>
        <CharString name="q">
          31 195 -50 rmoveto
          6 101 7 88 3 -17 callsubr
          -33 callsubr
          -9 -1 vhcurveto
          -74 -11 -43 -38 -30 hhcurveto
          -28 -14 22 30 83 62 34 39 25 11 -12 -4 6 hvcurveto
          -3 4 3 -3 6 -7 callsubr
          9 10 -74 callsubr
          -4 3 -22 callgsubr
          -27 26 -41 hhcurveto
          -60 -76 -53 -102 -50 30 -38 47 31 26 18 30 21 hvcurveto
          -6 -84 -5 -119 -109 vvcurveto
          -166 7 -91 71 24 51 16 113 101 -43 137 -56 65 vhcurveto
          63 80 57 87 28 63 rrcurveto
          1 3 1 2 2 vvcurveto
          10 -8 9 -11 -7 -6 -84 callsubr
          -25 -55 -48 -75 -55 -71 rrcurveto
          -3 -83 rmoveto
          43 -58 35 -117 -87 vvcurveto
          -26 -4 -68 -34 -42 1 132 167 18 0 19 1 20 vhcurveto
          endchar
        </CharString>
        <CharString name="question">
          502 356 727 rmoveto
          -194 -133 -81 -131 -94 68 -73 112 38 77 15 29 11 -9 8 -10 -3 -4 28 callgsubr
          -15 -23 -30 -8 -32 hhcurveto
          -79 -65 47 82 111 118 65 172 145 208 -48 -162 -205 -322 21 -71 -159 hvcurveto
          -1 -2 0 -3 -2 2 callsubr
          -9 10 -37 callgsubr
          40 95 190 32 103 88 rrcurveto
          41 36 22 53 52 vvcurveto
          125 -106 124 -284 -1 vhcurveto
          -4 -716 rmoveto
          14 -12 12 -15 -14 30 callgsubr
          -15 12 -12 14 15 12 12 15 vhcurveto
          endchar
        </CharString>
        <CharString name="questiondown">
          405 390 -308 rmoveto
          194 133 81 131 94 -68 73 -112 -37 -78 -15 -29 -11 9 -8 10 3 4 1 2 3 hvcurveto
          15 23 30 8 32 hhcurveto
          79 65 -47 -82 -111 -118 -65 -172 -145 -208 48 162 205 322 -21 71 159 -30 callsubr
          3 2 vvcurveto
          9 -8 9 -10 -81 callsubr
          -40 -95 -190 -32 -103 -88 rrcurveto
          -41 -36 -22 -53 -53 vvcurveto
          -124 106 -124 284 1 vhcurveto
          5 716 rmoveto
          -14 11 -12 15 15 11 12 14 15 -11 12 -15 -15 -11 -12 -15 vhcurveto
          endchar
        </CharString>
        <CharString name="quotedbl">
          -76 160 678 rmoveto
          1 2 0 4 1 vvcurveto
          9 -8 9 -10 -9 -70 callgsubr
          -18 -107 rlineto
          -1 -3 0 -3 -2 vvcurveto
          -11 7 -9 11 9 8 7 8 2 vhcurveto
          -59 85 rmoveto
          5 2 11 3 -65 callgsubr
          -11 -9 -9 -63 callgsubr
          -12 -101 rlineto
          -5 -1 -3 -2 vvcurveto
          -11 9 -8 9 9 9 7 9 1 vhcurveto
          endchar
        </CharString>
        <CharString name="quotedblbase">
          -30 120 18 rmoveto
          -72 callgsubr
          vhcurveto
          2 -40 -13 -33 -27 -27 -7 -8 -64 callsubr
          -27 -7 -8 -49 callsubr
        </CharString>
        <CharString name="quotedblleft">
          -30 198 652 rmoveto
          -80 callsubr
          -83 hmoveto
          -80 callsubr
          endchar
        </CharString>
        <CharString name="quotedblright">
          -30 120 666 rmoveto
          10 -9 8 -10 -10 -8 -9 -10 vhcurveto
          2 -40 -13 -33 -27 -28 -7 -7 -64 callsubr
          -28 -7 -7 -49 callsubr
        </CharString>
        <CharString name="quoteleft">
          -113 115 652 rmoveto
          -80 callsubr
          endchar
        </CharString>
        <CharString name="quoteright">
          -113 120 666 -88 callgsubr
        </CharString>
        <CharString name="quotesinglbase">
          -114 120 18 rmoveto
          11 -1 -9 7 -9 hhcurveto
          -58 callsubr
          -42 -14 -33 -25 -25 hvcurveto
          -3 -4 -2 -5 -5 14 callgsubr
          -4 callgsubr
        </CharString>
        <CharString name="quotesingle">
          -151 84 666 rmoveto
          4 2 12 -24 callsubr
          -9 -9 -7 -9 -1 vhcurveto
          -12 -102 rlineto
          -4 -1 -3 -3 vvcurveto
          -11 9 -8 9 9 9 7 9 1 vhcurveto
          endchar
        </CharString>
        <CharString name="r">
          -94 callsubr
          endchar
        </CharString>
        <CharString name="racute">
          -94 callsubr
          36 124 rmoveto
          -4 -3 -1 -4 -5 -74 callgsubr
          30 callsubr
          -57 callsubr
          vhcurveto
          78 74 rlineto
          4 3 1 -84 callgsubr
          8 -8 -4 -4 -2 -3 -3 vhcurveto
          -78 -74 rlineto
          endchar
        </CharString>
        <CharString name="radical">
          216 489 691 rmoveto
          11 -8 7 -10 34 callsubr
          -1 -3 vhcurveto
          -46 -26 -46 25 -10 -33 -184 -618 rcurveline
          -28 64 -22 56 -3 15 rrcurveto
          9 -3 -6 7 -10 hhcurveto
          -57 hlineto
          -23 callgsubr
          -10 9 -9 10 hvcurveto
          42 1 13 -35 31 -76 28 -65 rlinecurve
          -8 3 7 -4 8 hhcurveto
          7 7 6 8 2 hvcurveto
          197 660 rlineto
          23 1 73 7 28 vvcurveto
          endchar
        </CharString>
        <CharString name="rcaron">
          -94 callsubr
          55 101 -102 callgsubr
        </CharString>
        <CharString name="rcommaaccent">
          -94 callsubr
          37 -303 -95 callsubr
        </CharString>
        <CharString name="registered">
          218 452 536 rmoveto
          95 -71 72 -96 -124 -122 -117 -130 -95 72 -71 96 130 115 118 128 vhcurveto
          -245 -209 rmoveto
          -78 -53 55 76 110 105 98 104 76 55 -55 -75 -109 -101 -100 -108 hvcurveto
          154 227 rmoveto
          39 -25 16 -25 -33 -42 -20 -82 -36 vhcurveto
          2 28 2 17 19 -37 callsubr
          -10 -10 -9 -46 callgsubr
          -15 -172 rlineto
          -13 9 -7 10 7 7 4 6 2 vhcurveto
          102 30 37 80 53 29 -21 -36 29 hhcurveto
          11 6 8 9 hvcurveto
          endchar
        </CharString>
        <CharString name="ring">
          -29 192 350 -86 callsubr
        </CharString>
        <CharString name="s">
          -95 callgsubr
          endchar
        </CharString>
        <CharString name="sacute">
          -95 callgsubr
          -35 194 rmoveto
          -4 -3 -1 -4 -5 -74 callgsubr
          30 callsubr
          -57 callsubr
          vhcurveto
          78 74 rlineto
          4 3 1 -84 callgsubr
          8 -8 -4 -4 -2 -3 -3 vhcurveto
          -78 -74 rlineto
          endchar
        </CharString>
        <CharString name="scaron">
          -95 callgsubr
          -18 173 -102 callgsubr
        </CharString>
        <CharString name="scedilla">
          -19 139 -106 26 callsubr
          -30 vhcurveto
          6 19 1 1 0 2 1 2 rlinecurve
          -1 10 11 -1 11 hhcurveto
          109 59 106 53 21 hvcurveto
          -73 callsubr
          -50 callgsubr
          -11 -6 -5 -84 callsubr
          -65 -28 -49 -75 -75 29 callsubr
          1 -4 hvcurveto
          26 17 10 -11 callsubr
          42 -33 38 -30 73 vhcurveto
          4 16 2 9 11 vvcurveto
          18 -10 15 -15 -16 -10 -14 -22 -11 2 -9 5 -15 vhcurveto
          -5 -26 -7 -23 -17 -32 rrcurveto
          -2 -5 -1 -1 -4 vvcurveto
          -9 7 5 callgsubr
          5 7 11 6 vhcurveto
          7 14 6 13 4 11 rrcurveto
          16 -38 24 -30 -33 vvcurveto
          -17 -11 -29 -31 -16 -14 12 2 -2 vhcurveto
          4 -3 -5 -51 callsubr
          -48 callsubr
          11 -17 16 -12 18 -8 -15 -40 -27 callsubr
          -8 -23 -21 -17 -10 -19 hvcurveto
          -27 -9 17 -10 hhcurveto
          -8 -9 -5 -62 callgsubr
        </CharString>
        <CharString name="scircumflex">
          -95 callgsubr
          8 266 rmoveto
          -107 callsubr
        </CharString>
        <CharString name="section">
          504 631 90 rmoveto
          46 -25 29 -43 19 vhcurveto
          45 23 23 30 45 vvcurveto
          92 -110 14 -163 13 vhcurveto
          -103 8 -169 24 97 vvcurveto
          125 201 61 160 163 81 -37 -80 vhcurveto
          -7 -2 -9 -7 vvcurveto
          -61 callsubr
          11 8 7 6 9 2 vhcurveto
          2 9 1 9 9 vvcurveto
          109 -104 44 -177 -183 -215 -72 -152 -34 12 -28 24 -24 vhcurveto
          -24 -29 -12 -34 -35 vvcurveto
          -95 105 -59 201 -11 vhcurveto
          103 -6 135 -2 -81 vvcurveto
          -59 -77 -35 -126 -133 -69 42 1 -1 vhcurveto
          2 -3 -4 0 -3 hhcurveto
          -10 callgsubr
          -11 -6 3 -5 5 -4 -23 callsubr
          75 -47 145 hhcurveto
          182 59 70 60 hvcurveto
          -276 274 rmoveto
          109 -9 130 -6 -67 vvcurveto
          -41 -30 -23 -50 -19 vhcurveto
          -43 10 -52 5 -61 3 rrcurveto
          -103 5 -169 27 97 vvcurveto
          26 10 26 20 23 vhcurveto
          50 -29 79 -19 110 -9 rrcurveto
          endchar
        </CharString>
        <CharString name="semicolon">
          -44 139 209 rmoveto
          15 -12 11 -14 -15 -12 -11 -15 35 callgsubr
          15 14 12 12 14 vhcurveto
          -10 -191 rmoveto
          11 -40 callsubr
          -10 -35 callgsubr
          -42 -14 -33 -25 -25 vhcurveto
          -4 -4 -1 -5 -5 vvcurveto
          -10 9 -8 9 5 5 -40 callgsubr
          vhcurveto
          37 35 11 46 46 vvcurveto
          endchar
        </CharString>
        <CharString name="seven">
          373 627 685 rmoveto
          -2 -1 0 -1 -2 hvcurveto
          -24 -79 -93 -8 -89 -178 -155 33 -9 3 callsubr
          -8 -10 -9 6 -8 9 -2 hvcurveto
          -2 9 159 -31 176 hhcurveto
          67 71 5 12 65 hvcurveto
          -97 -93 -208 -222 -143 -309 rrcurveto
          -2 -3 0 -3 -2 2 callsubr
          -10 10 -37 callgsubr
          188 406 301 251 3 3 rrcurveto
          5 4 2 5 5 vvcurveto
          10 -10 9 -9 vhcurveto
          endchar
        </CharString>
        <CharString name="six">
          449 434 459 rmoveto
          -151 -124 -90 -120 -31 hvcurveto
          -2 -1 -3 -1 vvcurveto
          -10 9 -9 10 8 8 6 8 2 vhcurveto
          104 26 111 80 132 hhcurveto
          102 121 -51 -139 -130 -136 -93 -153 -109 -187 68 197 168 111 154 146 64 hvcurveto
          38 87 76 0 1 hhcurveto
          -14 callgsubr
          10 -8 8 -10 -5 -79 0 -41 -94 hvcurveto
          -166 -71 -114 -175 -175 vvcurveto
          -184 164 -117 169 172 154 109 150 153 -126 75 -133 vhcurveto
          endchar
        </CharString>
        <CharString name="slash">
          215 457 669 rmoveto
          -57 callsubr
          7 -45 callgsubr
          -7 10 -11 -6 -59 callsubr
          -397 -679 rlineto
          -2 -3 -3 -4 -6 2 callsubr
          -10 -16 callsubr
          4 6 4 vhcurveto
          endchar
        </CharString>
        <CharString name="space">
          -53 endchar
        </CharString>
        <CharString name="sterling">
          201 295 333 -24 callgsubr
          -86 -2 rlineto
          -5 25 -5 22 20 vvcurveto
          68 40 44 63 48 24 -31 -26 vhcurveto
          -32 -18 1 -17 vvcurveto
          -10 10 -8 8 23 14 38 32 48 -42 40 -67 -71 -69 -48 -98 -19 5 -24 6 -25 vhcurveto
          -64 -1 rlineto
          -10 callgsubr
          -10 -11 -50 callgsubr
          hvcurveto
          72 1 rlineto
          4 -20 3 -19 -15 vvcurveto
          -8 0 -8 -2 -7 vhcurveto
          9 -17 -19 4 -22 hhcurveto
          -31 -44 -16 -43 -47 52 -7 18 39 27 19 27 17 hvcurveto
          -38 48 44 -58 77 hhcurveto
          90 13 56 10 10 -7 7 -11 -6 -7 -3 -5 -3 hvcurveto
          -13 -7 -11 -26 -51 hhcurveto
          -66 -39 56 38 -51 hvcurveto
          4 12 1 13 14 vvcurveto
          19 -3 20 -4 19 vhcurveto
          79 1 rlineto
          11 7 8 10 hvcurveto
          -191 -161 rmoveto
          -17 -16 5 15 18 23 6 13 18 16 -5 -8 15 hvcurveto
          -21 -12 -19 -10 -21 hhcurveto
          endchar
        </CharString>
        <CharString name="t">
          -40 -91 callgsubr
          endchar
        </CharString>
        <CharString name="tbar">
          -40 414 489 rmoveto
          10 -8 7 -10 vhcurveto
          -250 hlineto
          46 -5 -15 34 -32 hhcurveto
          -34 -21 -34 -46 -14 hvcurveto
          -184 hlineto
          -10 callgsubr
          -10 -10 -50 callgsubr
          hvcurveto
          176 hlineto
          -9 -43 -4 -49 -2 -40 -96 -1 rcurveline
          -48 callgsubr
          39 17 0 39 hhcurveto
          -17 vlineto
          -172 54 -124 90 77 55 130 15 6 vhcurveto
          1 2 1 2 3 vvcurveto
          9 -8 9 -11 -7 -7 -4 -8 -3 vhcurveto
          -32 -13 -48 -89 -45 hhcurveto
          -39 -30 47 60 -17 hvcurveto
          18 23 28 69 21 78 rrcurveto
          1 24 28 0 34 hhcurveto
          11 -53 callsubr
          hvcurveto
          10 -1 -9 6 -10 hhcurveto
          -76 -1 rlineto
          9 43 6 44 38 vvcurveto
          6 248 vlineto
          24 callsubr
          hvcurveto
          -360 -17 rmoveto
          57 hlineto
          -38 -6 -46 -9 -47 vhcurveto
          -56 -1 2 58 5 42 7 32 rlinecurve
          -8 -287 rmoveto
          -5 25 -2 31 47 vvcurveto
          18 vlineto
          13 16 0 20 hhcurveto
          -11 -43 -14 -42 -17 -36 rrcurveto
          46 365 rmoveto
          8 6 -17 -27 3 hvcurveto
          -47 hlineto
          33 12 12 11 6 hhcurveto
          endchar
        </CharString>
        <CharString name="tcaron">
          -20 -91 callgsubr
          156 116 -88 callgsubr
        </CharString>
        <CharString name="tcommaaccent">
          -40 -91 callgsubr
          -33 -616 -95 callsubr
        </CharString>
        <CharString name="thorn">
          80 389 162 rmoveto
          -7 -7 -4 -7 -3 hvcurveto
          -5 callsubr
          20 callgsubr
          548 vlineto
          10 -8 9 -10 -23 callgsubr
          vhcurveto
          -398 vlineto
          -77 callgsubr
          7 -5 -6 3 -7 hhcurveto
          -11 -6 -9 -10 -13 15 -13 8 -8 hvcurveto
          -21 26 33 -12 34 hhcurveto
          96 60 85 75 33 hvcurveto
          -73 callsubr
          9 -8 9 -10 vhcurveto
          -337 -183 -42 callsubr
        </CharString>
        <CharString name="three">
          326 403 368 rmoveto
          76 42 50 64 61 vvcurveto
          110 -97 58 -97 -187 -103 -144 -5 9 callgsubr
          -4 -72 callsubr
          -9 7 -9 11 5 6 2 6 4 vhcurveto
          0 95 133 169 81 75 -47 -83 -48 -49 -69 -95 -37 vhcurveto
          8 -41 -39 3 -31 hhcurveto
          -91 -3 -31 -9 -21 21 -14 51 45 49 11 15 41 hvcurveto
          100 -23 82 -51 -97 vvcurveto
          -118 -105 -69 -139 -156 -81 86 -1 vhcurveto
          4 -3 -29 callgsubr
          -10 -8 -8 -10 -5 1 -4 3 -4 hvcurveto
          -2 2 89 -94 173 hhcurveto
          124 157 61 163 103 -77 60 -89 31 hvcurveto
          -110 -8 rmoveto
          -6 -22 -28 -3 -23 hhcurveto
          -13 -11 1 2 -6 hvcurveto
          6 10 25 3 26 hhcurveto
          15 14 -1 -2 13 hvcurveto
          endchar
        </CharString>
        <CharString name="threequarters">
          301 203 469 rmoveto
          23 12 11 21 19 vvcurveto
          20 -14 45 -60 -67 -36 -51 -2 -2 vhcurveto
          -2 -3 -1 -4 -3 vvcurveto
          -7 6 -8 9 5 4 3 4 4 vhcurveto
          0 30 41 50 28 16 -14 -21 -13 -11 -21 -28 -8 vhcurveto
          2 -14 -16 1 -7 hhcurveto
          -33 -6 -15 -7 -9 8 -10 21 19 13 4 5 15 hvcurveto
          29 -7 23 -15 -26 vvcurveto
          -32 -26 -22 -46 -47 -24 24 0 vhcurveto
          3 -3 -49 callgsubr
          hhcurveto
          -9 -7 -6 -8 -4 1 -4 3 -3 hvcurveto
          -1 1 32 -35 61 hhcurveto
          44 59 23 61 31 -20 24 -27 13 hvcurveto
          332 -337 rmoveto
          9 -6 7 -9 vhcurveto
          0 -22 2 -33 vhcurveto
          1 49 1 45 1 23 rrcurveto
          8 21 callsubr
          -6 -1 -16 -4 -3 -32 -78 -89 -92 -48 -1 -1 rrcurveto
          -5 -3 -4 -5 -7 2 callsubr
          -6 8 13 10 6 2 136 vhcurveto
          -25 0 -21 -14 vvcurveto
          -9 6 -7 9 9 7 7 9 20 1 20 -1 19 vhcurveto
          33 21 -1 0 hvcurveto
          9 8 4 10 hvcurveto
          -99 102 rmoveto
          -1 -24 -1 -33 -27 vvcurveto
          -28 -38 -1 -2 -34 hvcurveto
          27 20 40 32 35 35 rrcurveto
          66 316 13 callsubr
          12 callsubr
          -6 8 -9 -5 -6 -2 -5 -2 -44 callgsubr
          6 -8 10 5 4 2 5 4 vhcurveto
          endchar
        </CharString>
        <CharString name="threesuperior">
          -23 179 585 rmoveto
          23 13 11 21 18 vvcurveto
          21 -12 45 -62 -67 -37 -52 -2 -1 vhcurveto
          -2 -3 -1 -3 -3 vvcurveto
          -8 6 -7 6 callsubr
          0 28 40 50 29 14 -14 -20 -13 -10 -20 -27 -9 vhcurveto
          3 -14 -15 1 -11 hhcurveto
          -35 -4 -16 -7 -10 7 -10 21 19 17 4 5 15 hvcurveto
          28 -7 22 -14 -26 vvcurveto
          -32 -24 -22 -46 vhcurveto
          -47 -24 25 -1 hhcurveto
          4 -3 -4 1 -4 hhcurveto
          -10 -7 -7 -8 -3 2 -4 3 -4 hvcurveto
          0 33 -35 61 44 59 23 61 31 -20 24 -27 12 vhcurveto
          endchar
        </CharString>
        <CharString name="tilde">
          -29 203 335 -104 callsubr
        </CharString>
        <CharString name="trademark">
          252 448 614 rmoveto
          8 -6 6 -7 vhcurveto
          -266 hlineto
          5 0 5 6 vvcurveto
          37 -9 22 -22 -21 -14 -25 -50 -7 vhcurveto
          -68 hlineto
          -7 -6 -6 -8 -8 6 -5 7 hvcurveto
          66 hlineto
          -1 -11 0 -11 -13 vvcurveto
          -79 28 -57 43 vhcurveto
          36 2 24 54 5 11 rrcurveto
          1 vlineto
          5 8 3 10 2 4 rrcurveto
          -8 vlineto
          -1 -17 -1 -33 -1 -7 rrcurveto
          -3 vlineto
          -12 8 -10 11 7 8 4 15 8 vhcurveto
          14 30 22 35 6 3 rrcurveto
          1 -1 0 -1 -4 -8 -2 -40 -14 vvcurveto
          -13 5 -9 12 8 5 3 23 12 vhcurveto
          32 16 19 32 7 hhcurveto
          0 2 2 -10 -6 -2 -13 -14 vvcurveto
          -19 6 -27 32 38 26 55 12 5 vhcurveto
          2 1 1 2 vvcurveto
          7 -6 7 -7 vhcurveto
          -17 -17 -58 -23 hhcurveto
          -8 -2 8 10 hvcurveto
          17 3 6 10 vvcurveto
          14 -6 21 -25 -15 -15 -8 -48 -25 vhcurveto
          8 1 7 6 vvcurveto
          19 -9 17 -19 -19 -13 -17 -44 -24 vhcurveto
          1 9 0 9 1 9 rrcurveto
          6 vlineto
          17 -4 22 -20 -17 -13 -24 -24 -10 vhcurveto
          26 callgsubr
          vvcurveto
          -17 -12 -12 -30 -15 hhcurveto
          -13 -8 11 21 -9 hvcurveto
          2 1 2 2 2 3 -2 -3 22 43 8 65 rrcurveto
          268 hlineto
          7 6 5 8 hvcurveto
          -325 -84 rmoveto
          -1 12 -1 12 14 vvcurveto
          12 0 11 1 10 vhcurveto
          15 hlineto
          -3 -26 -6 -29 -5 -16 rrcurveto
          15 144 rmoveto
          2 -5 2 -9 -15 -5 -1 -6 -6 vvcurveto
          -16 hlineto
          4 31 7 12 2 3 rrcurveto
          endchar
        </CharString>
        <CharString name="two">
          519 861 83 rmoveto
          -4 callsubr
          10 -8 9 -10 -5 -6 -3 -4 -3 vhcurveto
          -3 -3 -66 -78 -148 hhcurveto
          -60 -85 22 27 -88 hvcurveto
          162 94 113 152 149 vvcurveto
          158 -111 101 -162 -139 -159 -91 -147 -68 31 -53 1 -1 vhcurveto
          -6 3 6 -4 7 31 callgsubr
          10 9 3 -1 -9 callgsubr
          hvcurveto
          -2 4 -25 44 55 vvcurveto
          131 152 71 107 142 96 -84 -138 -172 -152 -137 -136 -72 vhcurveto
          26 -86 -80 22 -56 hhcurveto
          -75 -36 -39 -35 -36 35 -36 80 61 79 19 40 82 hvcurveto
          -27 87 97 -34 96 hhcurveto
          166 75 91 4 3 hvcurveto
          -578 -18 rmoveto
          -25 -62 -59 -13 -47 hhcurveto
          -56 -22 19 16 18 29 19 49 42 61 -15 -19 65 hvcurveto
          endchar
        </CharString>
        <CharString name="twosuperior">
          67 186 482 -68 callsubr
          11 -21 hhcurveto
          -29 -18 -21 -32 callgsubr
          2 2 -31 callgsubr
          12 callsubr
          -41 callsubr
          -5 -4 -2 -4 -4 vhcurveto
          -1 19 callsubr
          -4 rmoveto
          -5 -10 -14 -3 -10 hhcurveto
          -7 -11 0 8 5 6 4 11 9 15 -5 -4 11 hvcurveto
          endchar
        </CharString>
        <CharString name="u">
          77 181 55 rmoveto
          -40 12 26 -23 38 hhcurveto
          83 56 128 16 6 hvcurveto
          -73 callsubr
          -50 callgsubr
          -12 -7 -6 -84 callsubr
          -35 -15 -44 -88 -52 hhcurveto
          -47 -7 72 27 13 callgsubr
          81 rlineto
          10 -6 10 -12 -9 -9 -46 callgsubr
          -7 -84 rlineto
          -65 -6 -44 -30 -23 hhcurveto
          -28 -16 20 38 68 28 38 6 11 hvcurveto
          2 -52 callsubr
          -76 callgsubr
          -5 -5 -2 -4 -4 vhcurveto
          0 -42 -49 -92 vvcurveto
          -58 31 25 callgsubr
          23 37 23 vhcurveto
          endchar
        </CharString>
        <CharString name="uacute">
          77 181 55 rmoveto
          -40 12 26 -23 38 hhcurveto
          83 56 128 16 6 hvcurveto
          -73 callsubr
          -50 callgsubr
          -12 -7 -6 -84 callsubr
          -35 -15 -44 -88 -52 hhcurveto
          -47 -7 72 27 13 callgsubr
          81 rlineto
          10 -6 10 -12 -9 -9 -46 callgsubr
          -7 -84 rlineto
          -65 -6 -44 -30 -23 hhcurveto
          -28 -16 20 38 68 28 38 6 11 hvcurveto
          2 -52 callsubr
          -76 callgsubr
          -5 -5 -2 -4 -4 vhcurveto
          0 -42 -49 -92 vvcurveto
          -58 31 25 callgsubr
          23 37 23 vhcurveto
          -65 258 rmoveto
          -4 -3 -1 -4 -5 -74 callgsubr
          30 callsubr
          -57 callsubr
          vhcurveto
          78 74 rlineto
          4 3 1 -84 callgsubr
          8 -8 -4 -4 -2 -3 -3 vhcurveto
          -78 -74 rlineto
          endchar
        </CharString>
        <CharString name="ubreve">
          77 181 55 rmoveto
          -40 12 26 -23 38 hhcurveto
          83 56 128 16 6 hvcurveto
          -73 callsubr
          -50 callgsubr
          -12 -7 -6 -84 callsubr
          -35 -15 -44 -88 -52 hhcurveto
          -47 -7 72 27 13 callgsubr
          81 rlineto
          10 -6 10 -12 -9 -9 -46 callgsubr
          -7 -84 rlineto
          -65 -6 -44 -30 -23 hhcurveto
          -28 -16 20 38 68 28 38 6 11 hvcurveto
          2 -52 callsubr
          -76 callgsubr
          -5 -5 -2 -4 -4 vhcurveto
          0 -42 -49 -92 vvcurveto
          -58 31 25 callgsubr
          23 37 23 vhcurveto
          33 308 -94 callgsubr
        </CharString>
        <CharString name="ucircumflex">
          77 181 55 rmoveto
          -40 12 26 -23 38 hhcurveto
          83 56 128 16 6 hvcurveto
          -73 callsubr
          -50 callgsubr
          -12 -7 -6 -84 callsubr
          -35 -15 -44 -88 -52 hhcurveto
          -47 -7 72 27 13 callgsubr
          81 rlineto
          10 -6 10 -12 -9 -9 -46 callgsubr
          -7 -84 rlineto
          -65 -6 -44 -30 -23 hhcurveto
          -28 -16 20 38 68 28 38 6 11 hvcurveto
          2 -52 callsubr
          -76 callgsubr
          -5 -5 -2 -4 -4 vhcurveto
          0 -42 -49 -92 vvcurveto
          -58 31 25 callgsubr
          23 37 23 vhcurveto
          -23 330 rmoveto
          -107 callsubr
        </CharString>
        <CharString name="udieresis">
          77 181 55 rmoveto
          -40 12 26 -23 38 hhcurveto
          83 56 128 16 6 hvcurveto
          -73 callsubr
          -50 callgsubr
          -12 -7 -6 -84 callsubr
          -35 -15 -44 -88 -52 hhcurveto
          -47 -7 72 27 13 callgsubr
          81 rlineto
          10 -6 10 -12 -9 -9 -46 callgsubr
          -7 -84 rlineto
          -65 -6 -44 -30 -23 hhcurveto
          -28 -16 20 38 68 28 38 6 11 hvcurveto
          2 -52 callsubr
          -76 callgsubr
          -5 -5 -2 -4 -4 vhcurveto
          0 -42 -49 -92 vvcurveto
          -58 31 25 callgsubr
          23 37 23 vhcurveto
          35 274 -98 callsubr
        </CharString>
        <CharString name="ugrave">
          77 181 55 rmoveto
          -40 12 26 -23 38 hhcurveto
          83 56 128 16 6 hvcurveto
          -73 callsubr
          -50 callgsubr
          -12 -7 -6 -84 callsubr
          -35 -15 -44 -88 -52 hhcurveto
          -47 -7 72 27 13 callgsubr
          81 rlineto
          10 -6 10 -12 -9 -9 -46 callgsubr
          -7 -84 rlineto
          -65 -6 -44 -30 -23 hhcurveto
          -28 -16 20 38 68 28 38 6 11 hvcurveto
          2 -52 callsubr
          -76 callgsubr
          -5 -5 -2 -4 -4 vhcurveto
          0 -42 -49 -92 vvcurveto
          -58 31 25 callgsubr
          23 37 23 vhcurveto
          -4 258 -98 callgsubr
        </CharString>
</ttFont>
